<svg xmlns="http://www.w3.org/2000/svg" width="172" height="63" viewBox="0 0 172 63">
  <g id="Grupo_9522" data-name="Grupo 9522" transform="translate(-1309 -1295)">
    <rect id="Rectángulo_3364" data-name="Rectángulo 3364" width="172" height="63" rx="8" transform="translate(1309 1295)" fill="#fff"/>
    <text id="Disciplina" transform="translate(1381 1332)" fill="#253150" font-size="14" font-family="Gotham-Bold, Gotham" font-weight="700"><tspan x="0" y="0">Disciplina</tspan></text>
    <g id="Grupo_9539" data-name="Grupo 9539" transform="translate(1309.587 1295)">
      <circle id="Elipse_381" data-name="Elipse 381" cx="14.945" cy="14.945" r="14.945" transform="translate(15.862 16.555)" fill="#eff0f1"/>
      <g id="Capa_2" data-name="Capa 2">
        <g id="Capa_1" data-name="Capa 1">
          <path id="Trazado_8850" data-name="Trazado 8850" d="M27.539,36.1l2.628,1.7L32.9,39.15,35.8,40.159h2.275l4.207-1.6,4.05-2.581.7,2.093-2.2,1.8-3.869,2.11-4.025,1.2-3.872-1.1L30.135,40.6l-2.8-2.139Z" fill="#bd0f14"/>
          <path id="Trazado_8851" data-name="Trazado 8851" d="M53.067,25.322l-7.084-2.4a.493.493,0,0,0-.314.934l7.016,2.371-3.3,1.611a1.577,1.577,0,0,0-.46-.207l-9.911-2.6a2.121,2.121,0,0,0-4.2.4h0a1.26,1.26,0,0,0,1.266,1.244h1.711a1.254,1.254,0,0,0,1.112-.663l9.241,2.414L37.833,33.472a2.05,2.05,0,0,1-1.783,0L21.183,26.231l15.1-5.1a2.06,2.06,0,0,1,1.312,0l5.893,1.993a.5.5,0,1,0,.4-.916.522.522,0,0,0-.087-.029L37.9,20.2a3.02,3.02,0,0,0-1.943,0L20.8,25.322a.955.955,0,0,0-.114,1.761l7.783,3.793a46.442,46.442,0,0,1-1.782,6.172,1.941,1.941,0,0,0,.624,2.2,24.731,24.731,0,0,0,7.608,4.007,6.614,6.614,0,0,0,4.029,0,24.71,24.71,0,0,0,7.619-4.007,1.938,1.938,0,0,0,.624-2.2,46.931,46.931,0,0,1-1.783-6.171l3.662-1.783v7.4A1.213,1.213,0,0,0,47.949,37.7v1.426a.718.718,0,0,0,.239.538L48,42.423a.938.938,0,0,0,.874,1l.06,0h1.234a.935.935,0,0,0,.937-.932c0-.023,0-.045,0-.068l-.182-2.759a.71.71,0,0,0,.246-.531V37.707a1.216,1.216,0,0,0-1.12-1.208V29.08a1.427,1.427,0,0,0-.068-.435l3.209-1.562a.954.954,0,0,0-.114-1.761Zm-15.277.389H36.078a.276.276,0,0,1-.282-.26h0a1.137,1.137,0,0,1,2.271-.064.275.275,0,0,1-.221.32.364.364,0,0,1-.057,0Zm7.926,10.072A23.231,23.231,0,0,1,37.99,39.6a.492.492,0,1,0,.139.974l.043-.008a24.206,24.206,0,0,0,7.876-3.8c.068.2.146.421.221.62a.964.964,0,0,1-.307,1.091,23.855,23.855,0,0,1-7.312,3.84,5.641,5.641,0,0,1-3.43,0,23.867,23.867,0,0,1-7.312-3.84.967.967,0,0,1-.307-1.091v-.025c.075-.2.153-.417.214-.6a24.246,24.246,0,0,0,7.872,3.8A.492.492,0,1,0,35.9,39.6l-.03-.005a23.369,23.369,0,0,1-7.723-3.811,45.609,45.609,0,0,0,1.226-4.46L35.6,34.356a3.03,3.03,0,0,0,2.66,0l6.225-3.034q.505,2.259,1.234,4.46Zm3.262,6.663.171-2.585h.8l.171,2.585Zm1.2-4.745v1.177H48.92V37.7a.233.233,0,0,1,.229-.228h.8a.228.228,0,0,1,.23.226v0Z" fill="#253150"/>
        </g>
      </g>
    </g>
  </g>
</svg>
