<?xml version="1.0" encoding="UTF-8" standalone="no"?>
<svg
   xmlns:dc="http://purl.org/dc/elements/1.1/"
   xmlns:cc="http://creativecommons.org/ns#"
   xmlns:rdf="http://www.w3.org/1999/02/22-rdf-syntax-ns#"
   xmlns:svg="http://www.w3.org/2000/svg"
   xmlns="http://www.w3.org/2000/svg"
   xmlns:sodipodi="http://sodipodi.sourceforge.net/DTD/sodipodi-0.dtd"
   xmlns:inkscape="http://www.inkscape.org/namespaces/inkscape"
   width="10.01792mm"
   height="7.9083958mm"
   viewBox="0 0 10.01792 7.9083958"
   version="1.1"
   id="svg101"
   sodipodi:docname="disiplina-1.svg"
   inkscape:version="1.0.2-2 (e86c870879, 2021-01-15)">
  <defs
     id="defs95" />
  <sodipodi:namedview
     id="base"
     pagecolor="#ffffff"
     bordercolor="#666666"
     borderopacity="1.0"
     inkscape:pageopacity="0.0"
     inkscape:pageshadow="2"
     inkscape:zoom="0.98994949"
     inkscape:cx="79.743936"
     inkscape:cy="106.38726"
     inkscape:document-units="mm"
     inkscape:current-layer="Grupo_5876"
     inkscape:document-rotation="0"
     showgrid="false"
     inkscape:window-width="1258"
     inkscape:window-height="1040"
     inkscape:window-x="1926"
     inkscape:window-y="9"
     inkscape:window-maximized="0"
     fit-margin-top="0"
     fit-margin-left="0"
     fit-margin-right="0"
     fit-margin-bottom="0" />
  <metadata
     id="metadata98">
    <rdf:RDF>
      <cc:Work
         rdf:about="">
        <dc:format>image/svg+xml</dc:format>
        <dc:type
           rdf:resource="http://purl.org/dc/dcmitype/StillImage" />
        <dc:title></dc:title>
      </cc:Work>
    </rdf:RDF>
  </metadata>
  <g
     inkscape:label="Capa 1"
     inkscape:groupmode="layer"
     id="layer1"
     transform="translate(-176.19979,-104.8245)">
    <g
       id="Grupo_5876"
       data-name="Grupo 5876"
       transform="matrix(0.26458333,0,0,0.26458333,-144.4247,-401.21104)">
      <g
         id="Grupo_9539"
         data-name="Grupo 9539"
         transform="translate(1195.9471,1896.0203)">
        <circle
           id="Elipse_381"
           data-name="Elipse 381"
           cx="14.945"
           cy="14.945"
           r="14.945"
           transform="translate(15.862,16.555)"
           fill="#eff0f1" />
        <g
           id="Capa_2"
           data-name="Capa 2">
          <g
             id="Capa_1"
             data-name="Capa 1">
            <path
               id="Trazado_8850"
               data-name="Trazado 8850"
               d="m 27.539,36.1 2.628,1.7 2.733,1.35 2.9,1.009 h 2.275 l 4.207,-1.6 4.05,-2.581 0.7,2.093 -2.2,1.8 -3.869,2.11 -4.025,1.2 -3.872,-1.1 -2.931,-1.481 -2.8,-2.139 z"
               fill="#bd0f14" />
            <path
               id="Trazado_8851"
               data-name="Trazado 8851"
               d="m 53.067,25.322 -7.084,-2.4 a 0.493,0.493 0 0 0 -0.314,0.934 l 7.016,2.371 -3.3,1.611 a 1.577,1.577 0 0 0 -0.46,-0.207 l -9.911,-2.6 a 2.121,2.121 0 0 0 -4.2,0.4 v 0 a 1.26,1.26 0 0 0 1.266,1.244 h 1.711 a 1.254,1.254 0 0 0 1.112,-0.663 l 9.241,2.414 -10.311,5.046 a 2.05,2.05 0 0 1 -1.783,0 l -14.867,-7.241 15.1,-5.1 a 2.06,2.06 0 0 1 1.312,0 l 5.893,1.993 a 0.5,0.5 0 1 0 0.4,-0.916 0.522,0.522 0 0 0 -0.087,-0.029 L 37.9,20.2 a 3.02,3.02 0 0 0 -1.943,0 L 20.8,25.322 a 0.955,0.955 0 0 0 -0.114,1.761 l 7.783,3.793 a 46.442,46.442 0 0 1 -1.782,6.172 1.941,1.941 0 0 0 0.624,2.2 24.731,24.731 0 0 0 7.608,4.007 6.614,6.614 0 0 0 4.029,0 24.71,24.71 0 0 0 7.619,-4.007 1.938,1.938 0 0 0 0.624,-2.2 46.931,46.931 0 0 1 -1.783,-6.171 l 3.662,-1.783 v 7.4 A 1.213,1.213 0 0 0 47.949,37.7 v 1.426 a 0.718,0.718 0 0 0 0.239,0.538 L 48,42.423 a 0.938,0.938 0 0 0 0.874,1 h 0.06 1.234 a 0.935,0.935 0 0 0 0.937,-0.932 c 0,-0.023 0,-0.045 0,-0.068 l -0.182,-2.759 a 0.71,0.71 0 0 0 0.246,-0.531 v -1.426 a 1.216,1.216 0 0 0 -1.12,-1.208 V 29.08 A 1.427,1.427 0 0 0 49.981,28.645 L 53.19,27.083 A 0.954,0.954 0 0 0 53.076,25.322 Z M 37.79,25.711 h -1.712 a 0.276,0.276 0 0 1 -0.282,-0.26 v 0 a 1.137,1.137 0 0 1 2.271,-0.064 0.275,0.275 0 0 1 -0.221,0.32 0.364,0.364 0 0 1 -0.057,0 z m 7.926,10.072 a 23.231,23.231 0 0 1 -7.726,3.817 0.492,0.492 0 1 0 0.139,0.974 l 0.043,-0.008 a 24.206,24.206 0 0 0 7.876,-3.8 c 0.068,0.2 0.146,0.421 0.221,0.62 a 0.964,0.964 0 0 1 -0.307,1.091 23.855,23.855 0 0 1 -7.312,3.84 5.641,5.641 0 0 1 -3.43,0 23.867,23.867 0 0 1 -7.312,-3.84 0.967,0.967 0 0 1 -0.307,-1.091 v -0.025 c 0.075,-0.2 0.153,-0.417 0.214,-0.6 a 24.246,24.246 0 0 0 7.872,3.8 A 0.49216105,0.49216105 0 1 0 35.9,39.6 l -0.03,-0.005 a 23.369,23.369 0 0 1 -7.723,-3.811 45.609,45.609 0 0 0 1.226,-4.46 l 6.227,3.032 a 3.03,3.03 0 0 0 2.66,0 l 6.225,-3.034 q 0.505,2.259 1.234,4.46 z m 3.262,6.663 0.171,-2.585 h 0.8 l 0.171,2.585 z m 1.2,-4.745 v 1.177 H 48.92 V 37.7 a 0.233,0.233 0 0 1 0.229,-0.228 h 0.8 a 0.228,0.228 0 0 1 0.23,0.226 v 0 z"
               fill="#253150" />
          </g>
        </g>
      </g>
    </g>
  </g>
</svg>
