<svg xmlns="http://www.w3.org/2000/svg" width="371" height="63" viewBox="0 0 371 63">
  <g id="Grupo_9521" data-name="Grupo 9521" transform="translate(-1110 -2034)">
    <rect id="Rectángulo_3667" data-name="Rectángulo 3667" width="371" height="63" rx="8" transform="translate(1110 2034)" fill="#fff"/>
    <text id="Entusiasmo_alegría_y_buen_humor" data-name="Entusiasmo, alegría y buen humor" transform="translate(1225 2071)" fill="#253150" font-size="14" font-family="Gotham-Bold, Gotham" font-weight="700"><tspan x="0" y="0">Entusiasmo, alegría y buen humor</tspan></text>
    <g id="Grupo_9540" data-name="Grupo 9540" transform="translate(1151.368 2042.615)">
      <circle id="Elipse_382" data-name="Elipse 382" cx="15" cy="15" r="15" transform="translate(0 6.543)" fill="#eff0f1"/>
      <g id="Capa_2" data-name="Capa 2">
        <g id="Capa_1" data-name="Capa 1">
          <path id="Trazado_8852" data-name="Trazado 8852" d="M39.57,18.443A2.564,2.564,0,0,0,35.342,20.4V25.49a3.124,3.124,0,0,0-.549-.119,2.555,2.555,0,0,0-2.078.733l-6.251,6.243a4.624,4.624,0,0,0-1.346,3.289v3.982a.844.844,0,1,0,1.68.164.9.9,0,0,0,0-.164V35.636a3.017,3.017,0,0,1,.852-2.1l6.244-6.246a.876.876,0,0,1,1.242,1.234l-3.623,3.623a.845.845,0,0,0,1.141,1.247c.02-.019.04-.039.059-.06l3.607-3.623a2.518,2.518,0,0,0,.749-1.935.088.088,0,0,0,0-.064l-.048-7.31a.867.867,0,0,1,.757-.876.884.884,0,0,1,1,.741.761.761,0,0,1,0,.135V29.87a3.569,3.569,0,0,1-1.051,2.54L32.7,37.443a.8.8,0,0,0-.247.589v1.545a.844.844,0,1,0,1.688,0V38.383L38.921,33.6A5.231,5.231,0,0,0,40.47,29.89V20.4A2.575,2.575,0,0,0,39.57,18.443Z" fill="#253150"/>
          <path id="Trazado_8853" data-name="Trazado 8853" d="M13.772,38.383v1.194a.844.844,0,1,0,1.688,0V38.032a.86.86,0,0,0-.263-.589L10.14,32.41a3.565,3.565,0,0,1-1.051-2.54V20.4a.876.876,0,0,1,.868-.884H10.1a.868.868,0,0,1,.741.876L10.8,27.7h0a2.523,2.523,0,0,0,.749,2l3.613,3.622a.839.839,0,0,0,1.218-1.155h0l-3.639-3.645a.876.876,0,0,1,1.234-1.234l6.251,6.243a2.973,2.973,0,0,1,.868,2.1v3.982a.844.844,0,0,0,1.688,0V35.635a4.634,4.634,0,0,0-1.346-3.289L15.165,26.1a2.512,2.512,0,0,0-2.627-.606V20.4A2.572,2.572,0,0,0,7.4,20.11a2.747,2.747,0,0,0,0,.287v9.468a5.231,5.231,0,0,0,1.544,3.71Z" fill="#253150"/>
          <path id="Trazado_8854" data-name="Trazado 8854" d="M24.124,5.128A10.352,10.352,0,1,0,34.472,15.484v0A10.351,10.351,0,0,0,24.124,5.128Zm0,19.183a8.839,8.839,0,1,1,8.839-8.839v.008A8.839,8.839,0,0,1,24.124,24.311Z" fill="#253150"/>
          <path id="Trazado_8855" data-name="Trazado 8855" d="M28.647,17.4a.8.8,0,0,0-1.067.08,4.539,4.539,0,0,1-6.9,0,.8.8,0,0,0-1.147.987,6.053,6.053,0,0,0,8.533.667,6.177,6.177,0,0,0,.667-.667.75.75,0,0,0-.068-1.057l-.012-.01Z" fill="#253150"/>
          <path id="Trazado_8856" data-name="Trazado 8856" d="M19.92,14.294a.8.8,0,0,0,.8-.757.446.446,0,1,1,.884-.119.474.474,0,0,1,0,.119.757.757,0,1,0,1.513.055.5.5,0,0,0,0-.055,1.959,1.959,0,0,0-3.91-.25,2.085,2.085,0,0,0,0,.25A.8.8,0,0,0,19.92,14.294Z" fill="#253150"/>
          <path id="Trazado_8857" data-name="Trazado 8857" d="M27.134,11.571A1.959,1.959,0,0,0,25.183,13.5a.757.757,0,1,0,1.513.055.5.5,0,0,0,0-.055.446.446,0,1,1,.884-.119.474.474,0,0,1,0,.119.757.757,0,1,0,1.513.055.5.5,0,0,0,0-.055,1.959,1.959,0,0,0-1.959-1.959Z" fill="#253150"/>
          <path id="Trazado_8858" data-name="Trazado 8858" d="M30.375,4.221h1.1a.8.8,0,1,0,0-1.521h-1.1a.8.8,0,1,0,0,1.521Z" fill="#bd0f14"/>
          <path id="Trazado_8859" data-name="Trazado 8859" d="M33.138,6.96a.8.8,0,0,0,.8-.757V5.1a.757.757,0,0,0-1.513,0V6.2a.8.8,0,0,0,.717.757Z" fill="#bd0f14"/>
          <path id="Trazado_8860" data-name="Trazado 8860" d="M35.91,2.7H34.8a.8.8,0,0,0,0,1.521H35.91a.8.8,0,0,0,0-1.521Z" fill="#bd0f14"/>
          <path id="Trazado_8861" data-name="Trazado 8861" d="M33.138,2.58a.749.749,0,0,0,.8-.694.938.938,0,0,0,0-.106V.757a.757.757,0,0,0-1.513,0V1.824A.8.8,0,0,0,33.138,2.58Z" fill="#bd0f14"/>
          <path id="Trazado_8862" data-name="Trazado 8862" d="M12.442,3.711h-.884a.8.8,0,1,0,0,1.513h.884a.8.8,0,0,0,0-1.513Z" fill="#bd0f14"/>
          <path id="Trazado_8863" data-name="Trazado 8863" d="M14.775,6.912V6.028a.8.8,0,1,0-1.513,0v.884a.8.8,0,1,0,1.513,0Z" fill="#bd0f14"/>
          <path id="Trazado_8864" data-name="Trazado 8864" d="M15.6,5.224h.876a.8.8,0,1,0,0-1.513H15.6a.8.8,0,1,0,0,1.513Z" fill="#bd0f14"/>
          <path id="Trazado_8865" data-name="Trazado 8865" d="M14.018,3.671a.8.8,0,0,0,.757-.8v-.84a.8.8,0,1,0-1.513,0v.884A.8.8,0,0,0,14.018,3.671Z" fill="#bd0f14"/>
        </g>
      </g>
    </g>
  </g>
</svg>
