<?xml version="1.0" encoding="UTF-8" standalone="no"?>
<svg
   xmlns:dc="http://purl.org/dc/elements/1.1/"
   xmlns:cc="http://creativecommons.org/ns#"
   xmlns:rdf="http://www.w3.org/1999/02/22-rdf-syntax-ns#"
   xmlns:svg="http://www.w3.org/2000/svg"
   xmlns="http://www.w3.org/2000/svg"
   xmlns:sodipodi="http://sodipodi.sourceforge.net/DTD/sodipodi-0.dtd"
   xmlns:inkscape="http://www.inkscape.org/namespaces/inkscape"
   width="10.707687mm"
   height="10.720901mm"
   viewBox="0 0 10.707687 10.720901"
   version="1.1"
   id="svg101"
   sodipodi:docname="entusiasmo-1.svg"
   inkscape:version="1.0.2-2 (e86c870879, 2021-01-15)">
  <defs
     id="defs95" />
  <sodipodi:namedview
     id="base"
     pagecolor="#ffffff"
     bordercolor="#666666"
     borderopacity="1.0"
     inkscape:pageopacity="0.0"
     inkscape:pageshadow="2"
     inkscape:zoom="0.98994949"
     inkscape:cx="47.450973"
     inkscape:cy="201.39853"
     inkscape:document-units="mm"
     inkscape:current-layer="Grupo_5876"
     inkscape:document-rotation="0"
     showgrid="false"
     inkscape:window-width="1258"
     inkscape:window-height="1040"
     inkscape:window-x="1926"
     inkscape:window-y="9"
     inkscape:window-maximized="0"
     fit-margin-top="0"
     fit-margin-left="0"
     fit-margin-right="0"
     fit-margin-bottom="0" />
  <metadata
     id="metadata98">
    <rdf:RDF>
      <cc:Work
         rdf:about="">
        <dc:format>image/svg+xml</dc:format>
        <dc:type
           rdf:resource="http://purl.org/dc/dcmitype/StillImage" />
        <dc:title></dc:title>
      </cc:Work>
    </rdf:RDF>
  </metadata>
  <g
     inkscape:label="Capa 1"
     inkscape:groupmode="layer"
     id="layer1"
     transform="translate(-138.70444,-78.027637)">
    <g
       id="Grupo_5876"
       data-name="Grupo 5876"
       transform="matrix(0.26458333,0,0,0.26458333,-144.4247,-401.21104)">
      <g
         id="Grupo_9540"
         data-name="Grupo 9540"
         transform="translate(1070.0944,1811.2683)">
        <circle
           id="Elipse_382"
           data-name="Elipse 382"
           cx="15"
           cy="15"
           r="15"
           transform="translate(0,6.543)"
           fill="#eff0f1" />
        <g
           id="Capa_2"
           data-name="Capa 2">
          <g
             id="Capa_1"
             data-name="Capa 1">
            <path
               id="Trazado_8852"
               data-name="Trazado 8852"
               d="M 39.57,18.443 A 2.564,2.564 0 0 0 35.342,20.4 v 5.09 a 3.124,3.124 0 0 0 -0.549,-0.119 2.555,2.555 0 0 0 -2.078,0.733 l -6.251,6.243 a 4.624,4.624 0 0 0 -1.346,3.289 v 3.982 a 0.844,0.844 0 1 0 1.68,0.164 0.9,0.9 0 0 0 0,-0.164 v -3.982 a 3.017,3.017 0 0 1 0.852,-2.1 l 6.244,-6.246 a 0.876,0.876 0 0 1 1.242,1.234 l -3.623,3.623 a 0.84511686,0.84511686 0 0 0 1.141,1.247 c 0.02,-0.019 0.04,-0.039 0.059,-0.06 l 3.607,-3.623 a 2.518,2.518 0 0 0 0.749,-1.935 0.088,0.088 0 0 0 0,-0.064 l -0.048,-7.31 a 0.867,0.867 0 0 1 0.757,-0.876 0.884,0.884 0 0 1 1,0.741 0.761,0.761 0 0 1 0,0.135 v 9.468 a 3.569,3.569 0 0 1 -1.051,2.54 L 32.7,37.443 a 0.8,0.8 0 0 0 -0.247,0.589 v 1.545 a 0.844,0.844 0 1 0 1.688,0 V 38.383 L 38.921,33.6 A 5.231,5.231 0 0 0 40.47,29.89 V 20.4 a 2.575,2.575 0 0 0 -0.9,-1.957 z"
               fill="#253150" />
            <path
               id="Trazado_8853"
               data-name="Trazado 8853"
               d="m 13.772,38.383 v 1.194 a 0.844,0.844 0 1 0 1.688,0 V 38.032 A 0.86,0.86 0 0 0 15.197,37.443 L 10.14,32.41 A 3.565,3.565 0 0 1 9.089,29.87 V 20.4 A 0.876,0.876 0 0 1 9.957,19.516 H 10.1 a 0.868,0.868 0 0 1 0.741,0.876 L 10.8,27.7 v 0 a 2.523,2.523 0 0 0 0.749,2 l 3.613,3.622 a 0.83927781,0.83927781 0 0 0 1.218,-1.155 v 0 l -3.639,-3.645 a 0.876,0.876 0 0 1 1.234,-1.234 l 6.251,6.243 a 2.973,2.973 0 0 1 0.868,2.1 v 3.982 a 0.844,0.844 0 0 0 1.688,0 V 35.635 A 4.634,4.634 0 0 0 21.436,32.346 L 15.165,26.1 A 2.512,2.512 0 0 0 12.538,25.494 V 20.4 A 2.5730888,2.5730888 0 0 0 7.4,20.11 a 2.747,2.747 0 0 0 0,0.287 v 9.468 a 5.231,5.231 0 0 0 1.544,3.71 z"
               fill="#253150" />
            <path
               id="Trazado_8854"
               data-name="Trazado 8854"
               d="m 24.124,5.128 a 10.352,10.352 0 1 0 10.348,10.356 v 0 A 10.351,10.351 0 0 0 24.124,5.128 Z m 0,19.183 a 8.839,8.839 0 1 1 8.839,-8.839 v 0.008 a 8.839,8.839 0 0 1 -8.839,8.831 z"
               fill="#253150" />
            <path
               id="Trazado_8855"
               data-name="Trazado 8855"
               d="m 28.647,17.4 a 0.8,0.8 0 0 0 -1.067,0.08 4.539,4.539 0 0 1 -6.9,0 0.8,0.8 0 0 0 -1.147,0.987 6.053,6.053 0 0 0 8.533,0.667 6.177,6.177 0 0 0 0.667,-0.667 0.75,0.75 0 0 0 -0.068,-1.057 L 28.653,17.4 Z"
               fill="#253150" />
            <path
               id="Trazado_8856"
               data-name="Trazado 8856"
               d="m 19.92,14.294 a 0.8,0.8 0 0 0 0.8,-0.757 0.446,0.446 0 1 1 0.884,-0.119 0.474,0.474 0 0 1 0,0.119 0.757,0.757 0 1 0 1.513,0.055 0.5,0.5 0 0 0 0,-0.055 1.959,1.959 0 0 0 -3.91,-0.25 2.085,2.085 0 0 0 0,0.25 0.8,0.8 0 0 0 0.713,0.757 z"
               fill="#253150" />
            <path
               id="Trazado_8857"
               data-name="Trazado 8857"
               d="m 27.134,11.571 a 1.959,1.959 0 0 0 -1.951,1.929 0.757,0.757 0 1 0 1.513,0.055 0.5,0.5 0 0 0 0,-0.055 0.446,0.446 0 1 1 0.884,-0.119 0.474,0.474 0 0 1 0,0.119 0.757,0.757 0 1 0 1.513,0.055 0.5,0.5 0 0 0 0,-0.055 1.959,1.959 0 0 0 -1.959,-1.959 z"
               fill="#253150" />
            <path
               id="Trazado_8858"
               data-name="Trazado 8858"
               d="m 30.375,4.221 h 1.1 a 0.8,0.8 0 1 0 0,-1.521 h -1.1 a 0.8,0.8 0 1 0 0,1.521 z"
               fill="#bd0f14" />
            <path
               id="Trazado_8859"
               data-name="Trazado 8859"
               d="m 33.138,6.96 a 0.8,0.8 0 0 0 0.8,-0.757 V 5.1 a 0.757,0.757 0 0 0 -1.513,0 v 1.1 a 0.8,0.8 0 0 0 0.717,0.757 z"
               fill="#bd0f14" />
            <path
               id="Trazado_8860"
               data-name="Trazado 8860"
               d="M 35.91,2.7 H 34.8 a 0.8,0.8 0 0 0 0,1.521 h 1.11 a 0.8,0.8 0 0 0 0,-1.521 z"
               fill="#bd0f14" />
            <path
               id="Trazado_8861"
               data-name="Trazado 8861"
               d="m 33.138,2.58 a 0.749,0.749 0 0 0 0.8,-0.694 0.938,0.938 0 0 0 0,-0.106 V 0.757 a 0.757,0.757 0 0 0 -1.513,0 v 1.067 a 0.8,0.8 0 0 0 0.713,0.756 z"
               fill="#bd0f14" />
            <path
               id="Trazado_8862"
               data-name="Trazado 8862"
               d="m 12.442,3.711 h -0.884 a 0.8,0.8 0 1 0 0,1.513 h 0.884 a 0.8,0.8 0 0 0 0,-1.513 z"
               fill="#bd0f14" />
            <path
               id="Trazado_8863"
               data-name="Trazado 8863"
               d="M 14.775,6.912 V 6.028 a 0.8,0.8 0 1 0 -1.513,0 v 0.884 a 0.8,0.8 0 1 0 1.513,0 z"
               fill="#bd0f14" />
            <path
               id="Trazado_8864"
               data-name="Trazado 8864"
               d="m 15.6,5.224 h 0.876 a 0.8,0.8 0 1 0 0,-1.513 H 15.6 a 0.8,0.8 0 1 0 0,1.513 z"
               fill="#bd0f14" />
            <path
               id="Trazado_8865"
               data-name="Trazado 8865"
               d="m 14.018,3.671 a 0.8,0.8 0 0 0 0.757,-0.8 v -0.84 a 0.8,0.8 0 1 0 -1.513,0 v 0.884 a 0.8,0.8 0 0 0 0.756,0.756 z"
               fill="#bd0f14" />
          </g>
        </g>
      </g>
    </g>
  </g>
</svg>
