<?xml version="1.0" encoding="UTF-8" standalone="no"?>
<svg
   xmlns:dc="http://purl.org/dc/elements/1.1/"
   xmlns:cc="http://creativecommons.org/ns#"
   xmlns:rdf="http://www.w3.org/1999/02/22-rdf-syntax-ns#"
   xmlns:svg="http://www.w3.org/2000/svg"
   xmlns="http://www.w3.org/2000/svg"
   xmlns:sodipodi="http://sodipodi.sourceforge.net/DTD/sodipodi-0.dtd"
   xmlns:inkscape="http://www.inkscape.org/namespaces/inkscape"
   width="8.7301111mm"
   height="7.6732116mm"
   viewBox="0 0 8.7301111 7.6732116"
   version="1.1"
   id="svg101"
   inkscape:version="1.0.2-2 (e86c870879, 2021-01-15)"
   sodipodi:docname="justicia-1.svg">
  <defs
     id="defs95" />
  <sodipodi:namedview
     id="base"
     pagecolor="#ffffff"
     bordercolor="#666666"
     borderopacity="1.0"
     inkscape:pageopacity="0.0"
     inkscape:pageshadow="2"
     inkscape:zoom="5.6"
     inkscape:cx="6.3853987"
     inkscape:cy="29.13183"
     inkscape:document-units="mm"
     inkscape:current-layer="layer1"
     inkscape:document-rotation="0"
     showgrid="false"
     fit-margin-top="0"
     fit-margin-left="0"
     fit-margin-right="0"
     fit-margin-bottom="0"
     inkscape:window-width="1258"
     inkscape:window-height="1040"
     inkscape:window-x="1926"
     inkscape:window-y="9"
     inkscape:window-maximized="0" />
  <metadata
     id="metadata98">
    <rdf:RDF>
      <cc:Work
         rdf:about="">
        <dc:format>image/svg+xml</dc:format>
        <dc:type
           rdf:resource="http://purl.org/dc/dcmitype/StillImage" />
        <dc:title></dc:title>
      </cc:Work>
    </rdf:RDF>
  </metadata>
  <g
     inkscape:label="Capa 1"
     inkscape:groupmode="layer"
     id="layer1"
     transform="translate(-157.40875,-80.074112)">
    <circle
       id="Elipse_277"
       data-name="Elipse 277"
       cx="161.24521"
       cy="83.910866"
       fill="rgba(176,182,186,0.2)"
       r="3.8364582"
       style="stroke-width:0.264583" />
    <g
       id="Rectángulo_4469"
       data-name="Rectángulo 4469"
       transform="matrix(0.26458333,0,0,0.26458333,159.29258,86.027529)"
       fill="#ffffff"
       stroke="#bd0f14"
       stroke-width="1">
      <rect
         width="12"
         height="2"
         rx="1"
         stroke="none"
         id="rect7"
         x="0"
         y="0" />
      <rect
         x="0.5"
         y="0.5"
         width="11"
         height="1"
         rx="0.5"
         fill="none"
         id="rect9" />
    </g>
    <g
       id="subasta"
       transform="matrix(0.26458333,0,0,0.26458333,158.80945,80.074404)">
      <g
         id="Grupo_3694"
         data-name="Grupo 3694"
         transform="translate(5.449,9.274)">
        <g
           id="Grupo_3693"
           data-name="Grupo 3693">
          <path
             id="Trazado_3635"
             data-name="Trazado 3635"
             d="m 101.628,171.578 a 0.541,0.541 0 1 0 0,0.765 0.541,0.541 0 0 0 0,-0.765 z"
             transform="translate(-100.704,-171.42)"
             fill="#253150" />
        </g>
      </g>
      <g
         id="Grupo_3696"
         data-name="Grupo 3696"
         transform="translate(0,21.207)">
        <g
           id="Grupo_3695"
           data-name="Grupo 3695">
          <path
             id="Trazado_3636"
             data-name="Trazado 3636"
             d="m 13.7,395 a 1.894,1.894 0 0 0 -1.526,-3.015 h -9.2 A 1.892,1.892 0 0 0 1.451,395 2.707,2.707 0 0 0 0,397.4 v 0.541 a 0.541,0.541 0 0 0 0.541,0.541 h 14.066 a 0.541,0.541 0 0 0 0.541,-0.541 V 397.4 A 2.707,2.707 0 0 0 13.7,395 Z M 2.4,393.3 a 0.806,0.806 0 0 1 0.574,-0.238 h 9.2 a 0.8115,0.8115 0 1 1 0,1.623 h -9.2 A 0.812,0.812 0 0 1 2.4,393.3 Z m -1.32,4.09 a 1.625,1.625 0 0 1 1.62,-1.616 h 9.738 a 1.625,1.625 0 0 1 1.623,1.623 z"
             transform="translate(0,-391.987)"
             fill="#253150" />
        </g>
      </g>
      <g
         id="Grupo_3698"
         data-name="Grupo 3698"
         transform="translate(0.002)">
        <g
           id="Grupo_3697"
           data-name="Grupo 3697">
          <path
             id="Trazado_3637"
             data-name="Trazado 3637"
             d="m 27.216,22.73 a 3.407,3.407 0 0 0 -0.652,-0.748 l -2.528,-2.2 a 0.545,0.545 0 0 0 -0.069,-0.084 0.54,0.54 0 0 0 -0.147,-0.1 L 22.291,18.265 15.215,12.093 A 1.62,1.62 0 0 0 14.741,9.5 l 0.655,-0.655 a 2.165,2.165 0 0 0 2.089,-0.559 2.164,2.164 0 0 0 0,-3.061 l -4.59,-4.59 A 2.163,2.163 0 0 0 9.275,2.724 L 2.744,9.255 a 2.177,2.177 0 0 0 -0.56,-0.073 2.164,2.164 0 0 0 -1.53,3.694 l 4.59,4.59 a 2.163,2.163 0 0 0 3.62,-2.089 L 9.517,14.724 A 1.623,1.623 0 0 0 12.1,15.2 l 7.537,8.659 a 0.543,0.543 0 0 0 0.073,0.092 l 0.03,0.027 2.246,2.58 c 0.056,0.066 0.116,0.131 0.177,0.193 A 3.218,3.218 0 0 0 24.45,27.702 3.321,3.321 0 0 0 24.905,27.671 3.274,3.274 0 0 0 27.323,26 3.2,3.2 0 0 0 27.216,22.73 Z M 10.6,1.4 a 1.082,1.082 0 0 1 1.53,0 l 4.59,4.59 A 1.082,1.082 0 0 1 15.19,7.52 L 10.6,2.93 v 0 a 1.083,1.083 0 0 1 0,-1.53 z M 7.54,16.7 a 1.083,1.083 0 0 1 -1.53,0 L 1.42,12.11 a 1.082,1.082 0 0 1 1.528,-1.53 l 4.591,4.591 A 1.083,1.083 0 0 1 7.54,16.7 Z M 9.818,12.892 8.3,14.407 3.714,9.816 9.834,3.695 14.425,8.286 12.91,9.8 12.895,9.814 9.836,12.874 Z m 1.932,1.129 v 0 l -0.381,0.381 a 0.541,0.541 0 0 1 -0.772,-0.758 l 3.073,-3.073 a 0.541,0.541 0 0 1 0.918,0.389 0.536,0.536 0 0 1 -0.159,0.382 l -0.379,0.379 -0.008,0.008 z m 1.12,0.41 1.581,-1.581 6.695,5.839 -2.446,2.444 z m 6.545,7.519 2.547,-2.55 0.817,0.713 -2.653,2.657 z m 6.964,3.517 a 2.2,2.2 0 0 1 -1.62,1.129 2.15,2.15 0 0 1 -1.829,-0.613 c -0.042,-0.042 -0.081,-0.085 -0.119,-0.129 l -0.005,-0.006 -1.968,-2.262 2.762,-2.757 2.259,1.97 h 0.005 a 2.329,2.329 0 0 1 0.446,0.514 2.136,2.136 0 0 1 0.069,2.155 z"
             transform="translate(-0.021,-0.001)"
             fill="#253150" />
        </g>
      </g>
      <g
         id="Grupo_3700"
         data-name="Grupo 3700"
         transform="translate(6.979,5.448)">
        <g
           id="Grupo_3699"
           data-name="Grupo 3699">
          <path
             id="Trazado_3638"
             data-name="Trazado 3638"
             d="m 132.2,100.866 a 0.541,0.541 0 0 0 -0.765,0 l -2.3,2.3 a 0.541,0.541 0 1 0 0.765,0.765 l 2.3,-2.3 a 0.541,0.541 0 0 0 0,-0.765 z"
             transform="translate(-128.985,-100.707)"
             fill="#253150" />
        </g>
      </g>
    </g>
  </g>
</svg>
