<svg xmlns="http://www.w3.org/2000/svg" width="172" height="63" viewBox="0 0 172 63">
  <g id="Grupo_9522" data-name="Grupo 9522" transform="translate(-1309 -1206)">
    <rect id="Rect치ngulo_3362" data-name="Rect치ngulo 3362" width="172" height="63" rx="8" transform="translate(1309 1206)" fill="#fff"/>
    <text id="Honestidad" transform="translate(1374 1243)" fill="#253150" font-size="14" font-family="Gotham-Bold, Gotham" font-weight="700"><tspan x="0" y="0">Honestidad</tspan></text>
    <ellipse id="Elipse_277" data-name="Elipse 277" cx="14.5" cy="14.5" rx="14.5" ry="14.5" transform="translate(1329.88 1223.5)" fill="rgba(176,182,186,0.2)"/>
    <g id="Rect치ngulo_4469" data-name="Rect치ngulo 4469" transform="translate(1337 1246)" fill="#fff" stroke="#bd0f14" stroke-width="1">
      <rect width="12" height="2" rx="1" stroke="none"/>
      <rect x="0.5" y="0.5" width="11" height="1" rx="0.5" fill="none"/>
    </g>
    <g id="subasta" transform="translate(1335.174 1223.5)">
      <g id="Grupo_3694" data-name="Grupo 3694" transform="translate(5.449 9.274)">
        <g id="Grupo_3693" data-name="Grupo 3693">
          <path id="Trazado_3635" data-name="Trazado 3635" d="M101.628,171.578a.541.541,0,1,0,0,.765A.541.541,0,0,0,101.628,171.578Z" transform="translate(-100.704 -171.42)" fill="#253150"/>
        </g>
      </g>
      <g id="Grupo_3696" data-name="Grupo 3696" transform="translate(0 21.207)">
        <g id="Grupo_3695" data-name="Grupo 3695">
          <path id="Trazado_3636" data-name="Trazado 3636" d="M13.7,395a1.894,1.894,0,0,0-1.526-3.015h-9.2A1.892,1.892,0,0,0,1.451,395,2.707,2.707,0,0,0,0,397.4v.541a.541.541,0,0,0,.541.541H14.607a.541.541,0,0,0,.541-.541V397.4A2.707,2.707,0,0,0,13.7,395Zm-11.3-1.7a.806.806,0,0,1,.574-.238h9.2a.811.811,0,1,1,0,1.623h-9.2a.812.812,0,0,1-.574-1.385Zm-1.32,4.09A1.625,1.625,0,0,1,2.7,395.774h9.738a1.625,1.625,0,0,1,1.623,1.623Z" transform="translate(0 -391.987)" fill="#253150"/>
        </g>
      </g>
      <g id="Grupo_3698" data-name="Grupo 3698" transform="translate(0.002 0)">
        <g id="Grupo_3697" data-name="Grupo 3697" transform="translate(0 0)">
          <path id="Trazado_3637" data-name="Trazado 3637" d="M27.216,22.73a3.407,3.407,0,0,0-.652-.748l-2.528-2.2a.545.545,0,0,0-.069-.084.54.54,0,0,0-.147-.1l-1.529-1.333-7.076-6.172A1.62,1.62,0,0,0,14.741,9.5l.655-.655a2.165,2.165,0,0,0,2.089-.559,2.164,2.164,0,0,0,0-3.061L12.895.635a2.163,2.163,0,0,0-3.62,2.089L2.744,9.255a2.177,2.177,0,0,0-.56-.073,2.164,2.164,0,0,0-1.53,3.694l4.59,4.59a2.163,2.163,0,0,0,3.62-2.089l.653-.653A1.623,1.623,0,0,0,12.1,15.2l7.537,8.659a.543.543,0,0,0,.073.092l.03.027,2.246,2.58c.056.066.116.131.177.193a3.218,3.218,0,0,0,2.287.951,3.321,3.321,0,0,0,.455-.031A3.274,3.274,0,0,0,27.323,26,3.2,3.2,0,0,0,27.216,22.73ZM10.6,1.4a1.082,1.082,0,0,1,1.53,0l4.59,4.59a1.082,1.082,0,0,1-1.53,1.53L10.6,2.93h0A1.083,1.083,0,0,1,10.6,1.4ZM7.54,16.7a1.083,1.083,0,0,1-1.53,0l-4.59-4.59A1.082,1.082,0,0,1,2.948,10.58l4.591,4.591A1.083,1.083,0,0,1,7.54,16.7Zm2.278-3.808L8.3,14.407,3.714,9.816,9.834,3.695l4.591,4.591L12.91,9.8l-.015.014L9.836,12.874Zm1.932,1.129,0,0-.381.381a.541.541,0,0,1-.772-.758l3.073-3.073a.541.541,0,0,1,.918.389.536.536,0,0,1-.159.382l-.379.379-.008.008Zm1.12.41,1.581-1.581,6.695,5.839L18.7,21.133Zm6.545,7.519L21.962,19.4l.817.713L20.126,22.77Zm6.964,3.517a2.2,2.2,0,0,1-1.62,1.129,2.15,2.15,0,0,1-1.829-.613c-.042-.042-.081-.085-.119-.129l-.005-.006-1.968-2.262L23.6,20.829l2.259,1.97.005,0a2.329,2.329,0,0,1,.446.514A2.136,2.136,0,0,1,26.379,25.468Z" transform="translate(-0.021 -0.001)" fill="#253150"/>
        </g>
      </g>
      <g id="Grupo_3700" data-name="Grupo 3700" transform="translate(6.979 5.448)">
        <g id="Grupo_3699" data-name="Grupo 3699">
          <path id="Trazado_3638" data-name="Trazado 3638" d="M132.2,100.866a.541.541,0,0,0-.765,0l-2.3,2.3a.541.541,0,1,0,.765.765l2.3-2.3A.541.541,0,0,0,132.2,100.866Z" transform="translate(-128.985 -100.707)" fill="#253150"/>
        </g>
      </g>
    </g>
  </g>
</svg>
