<svg xmlns="http://www.w3.org/2000/svg" width="172" height="63" viewBox="0 0 172 63">
  <g id="Grupo_9523" data-name="Grupo 9523" transform="translate(-1110 -1295)">
    <rect id="Rectángulo_3363" data-name="Rectángulo 3363" width="172" height="63" rx="8" transform="translate(1110 1295)" fill="#fff"/>
    <text id="Justicia" transform="translate(1196 1332)" fill="#253150" font-size="14" font-family="Gotham-Bold, Gotham" font-weight="700"><tspan x="0" y="0">Justicia</tspan></text>
    <ellipse id="Elipse_276" data-name="Elipse 276" cx="14.945" cy="14.945" rx="14.945" ry="14.945" transform="translate(1135.088 1308.682)" fill="rgba(176,182,186,0.2)"/>
    <rect id="Rectángulo_4467" data-name="Rectángulo 4467" width="10" height="3" rx="1" transform="translate(1162 1331)" fill="#bd0f14"/>
    <rect id="Rectángulo_4468" data-name="Rectángulo 4468" width="10" height="3" rx="1" transform="translate(1139 1331)" fill="#bd0f14"/>
    <g id="equilibrar" transform="translate(1137.863 1308.682)">
      <path id="Trazado_3634" data-name="Trazado 3634" d="M35.115,18.562H34.06L30.265,9.2H31.81a1.647,1.647,0,0,0,0-3.294H25.532L24.327,4.7a1.637,1.637,0,0,0-1.165-.482H19.915a2.631,2.631,0,1,0-4.194,0H12.475A1.636,1.636,0,0,0,11.31,4.7l-1.2,1.205H8.792a.522.522,0,1,0,0,1.044h1.53a.522.522,0,0,0,.369-.153l1.358-1.358a.6.6,0,0,1,.426-.176H23.162a.6.6,0,0,1,.426.176L24.946,6.8a.522.522,0,0,0,.369.153H31.81a.6.6,0,0,1,0,1.206H24.85a.6.6,0,0,1-.426-.177L23.065,6.621a.522.522,0,0,0-.369-.153H12.941a.522.522,0,0,0-.369.153L11.213,7.98a.6.6,0,0,1-.426.176H3.827a.6.6,0,0,1,0-1.206H6.355a.522.522,0,1,0,0-1.044H3.827a1.647,1.647,0,0,0,0,3.294H5.372l-3.8,9.362H.522A.522.522,0,0,0,0,19.084v2.25a.522.522,0,0,0,.522.522H.7v1.587a2.634,2.634,0,0,0,2.631,2.631H8.959a2.634,2.634,0,0,0,2.631-2.631V21.856h.181a.522.522,0,0,0,.522-.522v-2.25a.522.522,0,0,0-.522-.522H10.717L6.922,9.2h3.865a1.633,1.633,0,0,0,1.165-.483l1.2-1.205H15.89V28.968h-4.4a.522.522,0,0,0-.522.522v2.29H9.381a.522.522,0,0,0-.522.522v2.813a.522.522,0,0,0,.522.522H26.256a.522.522,0,0,0,.522-.522V32.3a.522.522,0,0,0-.522-.522H24.668V29.49a.522.522,0,0,0-.522-.522h-4.4V12.946a.522.522,0,0,0-1.044,0V28.968H16.934V7.512H18.7v3a.522.522,0,0,0,1.044,0v-3H22.48l1.2,1.2A1.634,1.634,0,0,0,24.85,9.2h3.865l-3.8,9.362H23.865a.522.522,0,0,0-.522.522v2.25a.522.522,0,0,0,.522.522h.181v1.587a2.634,2.634,0,0,0,2.631,2.631H32.3a2.634,2.634,0,0,0,2.631-2.631V21.856h.181a.522.522,0,0,0,.522-.522v-2.25a.522.522,0,0,0-.522-.522ZM17.818,1.044a1.587,1.587,0,1,1-1.587,1.587A1.589,1.589,0,0,1,17.818,1.044Zm-7.272,22.4A1.589,1.589,0,0,1,8.959,25.03H3.334a1.589,1.589,0,0,1-1.587-1.587V21.856h8.8Zm.7-2.631H1.044V19.606H11.25ZM2.7,18.562l3.444-8.494,3.444,8.494ZM23.624,31.78H16.143a.522.522,0,1,0,0,1.044h9.591v1.769H9.9V32.824h3.8a.522.522,0,1,0,0-1.044H12.012V30.012H23.624V31.78ZM29.49,10.067l3.444,8.494H26.046Zm-5.1,9.538H34.593v1.206H24.387Zm9.5,3.837A1.589,1.589,0,0,1,32.3,25.03H26.678a1.589,1.589,0,0,1-1.587-1.587V21.856h8.8Z" transform="translate(0 0)" fill="#253150"/>
    </g>
  </g>
</svg>
