<?xml version="1.0" encoding="UTF-8" standalone="no"?>
<svg
   xmlns:dc="http://purl.org/dc/elements/1.1/"
   xmlns:cc="http://creativecommons.org/ns#"
   xmlns:rdf="http://www.w3.org/1999/02/22-rdf-syntax-ns#"
   xmlns:svg="http://www.w3.org/2000/svg"
   xmlns="http://www.w3.org/2000/svg"
   xmlns:sodipodi="http://sodipodi.sourceforge.net/DTD/sodipodi-0.dtd"
   xmlns:inkscape="http://www.inkscape.org/namespaces/inkscape"
   width="10.162411mm"
   height="9.429471mm"
   viewBox="0 0 10.162411 9.429471"
   version="1.1"
   id="svg101"
   sodipodi:docname="justicia-1.svg"
   inkscape:version="1.0.2-2 (e86c870879, 2021-01-15)">
  <defs
     id="defs95" />
  <sodipodi:namedview
     id="base"
     pagecolor="#ffffff"
     bordercolor="#666666"
     borderopacity="1.0"
     inkscape:pageopacity="0.0"
     inkscape:pageshadow="2"
     inkscape:zoom="0.98994949"
     inkscape:cx="-126.2836"
     inkscape:cy="27.288983"
     inkscape:document-units="mm"
     inkscape:current-layer="Grupo_5876"
     inkscape:document-rotation="0"
     showgrid="false"
     inkscape:window-width="1258"
     inkscape:window-height="1040"
     inkscape:window-x="1926"
     inkscape:window-y="9"
     inkscape:window-maximized="0"
     fit-margin-top="0"
     fit-margin-left="0"
     fit-margin-right="0"
     fit-margin-bottom="0" />
  <metadata
     id="metadata98">
    <rdf:RDF>
      <cc:Work
         rdf:about="">
        <dc:format>image/svg+xml</dc:format>
        <dc:type
           rdf:resource="http://purl.org/dc/dcmitype/StillImage" />
        <dc:title></dc:title>
      </cc:Work>
    </rdf:RDF>
  </metadata>
  <g
     inkscape:label="Capa 1"
     inkscape:groupmode="layer"
     id="layer1"
     transform="translate(-194.30186,-129.45458)">
    <g
       id="Grupo_5876"
       data-name="Grupo 5876"
       transform="matrix(0.26458333,0,0,0.26458333,-144.4247,-401.21104)">
      <circle
         id="Elipse_276"
         data-name="Elipse 276"
         cx="1295.1714"
         cy="2020.6123"
         fill="rgba(176,182,186,0.2)"
         r="14.945" />
      <rect
         id="Rect치ngulo_4467"
         data-name="Rect치ngulo 4467"
         width="10"
         height="3"
         rx="1"
         fill="#bd0f14"
         x="1307.1385"
         y="2027.9854" />
      <rect
         id="Rect치ngulo_4468"
         data-name="Rect치ngulo 4468"
         width="10"
         height="3"
         rx="1"
         fill="#bd0f14"
         x="1284.1385"
         y="2027.9854" />
      <g
         id="equilibrar"
         transform="translate(1283.0015,2005.6673)">
        <path
           id="Trazado_3634"
           data-name="Trazado 3634"
           d="M 35.115,18.562 H 34.06 L 30.265,9.2 h 1.545 a 1.647,1.647 0 0 0 0,-3.294 H 25.532 L 24.327,4.7 A 1.637,1.637 0 0 0 23.162,4.218 h -3.247 a 2.631,2.631 0 1 0 -4.194,0 H 12.475 A 1.636,1.636 0 0 0 11.31,4.7 l -1.2,1.205 H 8.792 a 0.522,0.522 0 1 0 0,1.044 h 1.53 a 0.522,0.522 0 0 0 0.369,-0.153 l 1.358,-1.358 a 0.6,0.6 0 0 1 0.426,-0.176 h 10.687 a 0.6,0.6 0 0 1 0.426,0.176 L 24.946,6.8 a 0.522,0.522 0 0 0 0.369,0.153 h 6.495 a 0.603,0.603 0 0 1 0,1.206 H 24.85 A 0.6,0.6 0 0 1 24.424,7.982 L 23.065,6.621 A 0.522,0.522 0 0 0 22.696,6.468 H 12.941 A 0.522,0.522 0 0 0 12.572,6.621 L 11.213,7.98 a 0.6,0.6 0 0 1 -0.426,0.176 h -6.96 a 0.603,0.603 0 0 1 0,-1.206 h 2.528 a 0.522,0.522 0 1 0 0,-1.044 H 3.827 a 1.647,1.647 0 0 0 0,3.294 h 1.545 l -3.8,9.362 H 0.522 A 0.522,0.522 0 0 0 0,19.084 v 2.25 a 0.522,0.522 0 0 0 0.522,0.522 H 0.7 v 1.587 a 2.634,2.634 0 0 0 2.631,2.631 h 5.628 a 2.634,2.634 0 0 0 2.631,-2.631 v -1.587 h 0.181 a 0.522,0.522 0 0 0 0.522,-0.522 v -2.25 A 0.522,0.522 0 0 0 11.771,18.562 H 10.717 L 6.922,9.2 h 3.865 a 1.633,1.633 0 0 0 1.165,-0.483 l 1.2,-1.205 h 2.738 v 21.456 h -4.4 a 0.522,0.522 0 0 0 -0.522,0.522 v 2.29 H 9.381 a 0.522,0.522 0 0 0 -0.522,0.522 v 2.813 a 0.522,0.522 0 0 0 0.522,0.522 h 16.875 a 0.522,0.522 0 0 0 0.522,-0.522 V 32.3 A 0.522,0.522 0 0 0 26.256,31.778 H 24.668 V 29.49 a 0.522,0.522 0 0 0 -0.522,-0.522 h -4.4 V 12.946 a 0.522,0.522 0 0 0 -1.044,0 V 28.968 H 16.934 V 7.512 H 18.7 v 3 a 0.522,0.522 0 0 0 1.044,0 v -3 h 2.736 l 1.2,1.2 A 1.634,1.634 0 0 0 24.85,9.2 h 3.865 l -3.8,9.362 h -1.05 a 0.522,0.522 0 0 0 -0.522,0.522 v 2.25 a 0.522,0.522 0 0 0 0.522,0.522 h 0.181 v 1.587 a 2.634,2.634 0 0 0 2.631,2.631 H 32.3 a 2.634,2.634 0 0 0 2.631,-2.631 v -1.587 h 0.181 a 0.522,0.522 0 0 0 0.522,-0.522 v -2.25 A 0.522,0.522 0 0 0 35.112,18.562 Z M 17.818,1.044 a 1.587,1.587 0 1 1 -1.587,1.587 1.589,1.589 0 0 1 1.587,-1.587 z m -7.272,22.4 A 1.589,1.589 0 0 1 8.959,25.03 H 3.334 A 1.589,1.589 0 0 1 1.747,23.443 v -1.587 h 8.8 z m 0.7,-2.631 H 1.044 V 19.606 H 11.25 Z M 2.7,18.562 6.144,10.068 9.588,18.562 Z M 23.624,31.78 h -7.481 a 0.522,0.522 0 1 0 0,1.044 h 9.591 v 1.769 H 9.9 v -1.769 h 3.8 a 0.522,0.522 0 1 0 0,-1.044 h -1.688 v -1.768 h 11.612 z m 5.866,-21.713 3.444,8.494 h -6.888 z m -5.1,9.538 h 10.203 v 1.206 H 24.387 Z m 9.5,3.837 A 1.589,1.589 0 0 1 32.3,25.03 h -5.622 a 1.589,1.589 0 0 1 -1.587,-1.587 v -1.587 h 8.8 z"
           fill="#253150" />
      </g>
    </g>
  </g>
</svg>
