<svg xmlns="http://www.w3.org/2000/svg" width="371" height="63" viewBox="0 0 371 63">
  <g id="Grupo_9525" data-name="Grupo 9525" transform="translate(-1110 -1706)">
    <rect id="Rectángulo_3664" data-name="Rectángulo 3664" width="371" height="63" rx="8" transform="translate(1110 1706)" fill="#fff"/>
    <text id="Lealtad" transform="translate(1225 1743)" fill="#253150" font-size="14" font-family="Gotham-Bold, Gotham" font-weight="700"><tspan x="0" y="0">Lealtad</tspan></text>
    <g id="Grupo_3691" data-name="Grupo 3691" transform="translate(-0.5 -0.439)">
      <ellipse id="Elipse_273" data-name="Elipse 273" cx="14" cy="13" rx="14" ry="13" transform="translate(1157.501 1723.44)" fill="rgba(176,182,186,0.2)"/>
      <g id="Grupo_3684" data-name="Grupo 3684" transform="translate(1155.294 1720.18)">
        <path id="Trazado_3625" data-name="Trazado 3625" d="M1819.034,1844.286s-4.954,11.88-3.853,13.251-2.752-1.675-2.752-1.675Z" transform="translate(-1811.069 -1836.262)" fill="#bd0f14"/>
        <path id="Trazado_3626" data-name="Trazado 3626" d="M1812.429,1844.286s4.954,11.88,3.853,13.251,2.752-1.675,2.752-1.675Z" transform="translate(-1779.609 -1836.262)" fill="#bd0f14"/>
        <g id="apreton-de-manos" transform="translate(0 0)">
          <path id="Trazado_3620" data-name="Trazado 3620" d="M246.784,36.606a.789.789,0,0,0,.789-.789V31.8a.789.789,0,1,0-1.579,0v4.021A.789.789,0,0,0,246.784,36.606Z" transform="translate(-226.578 -31.006)" fill="#253150"/>
          <path id="Trazado_3621" data-name="Trazado 3621" d="M154.852,65.312a.789.789,0,1,0,1.335-.842l-2.1-3.337a.789.789,0,1,0-1.335.842Z" transform="translate(-140.58 -58.416)" fill="#253150"/>
          <path id="Trazado_3622" data-name="Trazado 3622" d="M313.116,65.56a.789.789,0,0,0,1.089-.247l2.1-3.337a.789.789,0,1,0-1.336-.841l-2.1,3.337A.789.789,0,0,0,313.116,65.56Z" transform="translate(-288.061 -58.416)" fill="#253150"/>
          <path id="Trazado_3623" data-name="Trazado 3623" d="M40.159,129.072l-1.371-2.423a.789.789,0,1,0-1.374.778l1.371,2.422a.389.389,0,0,1,.034.3.372.372,0,0,1-.176.226l-2.114,1.171a.4.4,0,0,1-.535-.142l-.537-.95-.007-.012L29.9,120.62a.384.384,0,0,1-.035-.3.37.37,0,0,1,.176-.225l2.116-1.171a.393.393,0,0,1,.533.143l1.237,2.186a.789.789,0,1,0,1.374-.778L34.063,118.3a1.976,1.976,0,0,0-2.672-.748l-2.116,1.171a1.961,1.961,0,0,0-.8,2.592l-1.166.338a4.59,4.59,0,0,1-.965.222h0a1.971,1.971,0,0,1-.6-.18c-.163-.062-.365-.138-.614-.225l-2.065-.722a4.732,4.732,0,0,0-2.4-.309l-3.522.315a4.757,4.757,0,0,0-3.194,1.132L11.94,121.3a1.96,1.96,0,0,0-.8-2.581l-2.115-1.172a1.977,1.977,0,0,0-2.673.747L.256,129.071a1.964,1.964,0,0,0,.749,2.683l2.115,1.171a1.979,1.979,0,0,0,2.673-.747l.223-.4a3.707,3.707,0,0,1,1.471,1.12A2.649,2.649,0,0,0,9.2,137.257a2.647,2.647,0,0,0,2.33,2.911,2.646,2.646,0,0,0,2.33,2.911,2.654,2.654,0,0,0,4.3,2.349l1.653-1.322a2.658,2.658,0,0,0,.358-.345l.944.754a2.652,2.652,0,0,0,4.261-1.562,2.639,2.639,0,0,0,.865.145,2.728,2.728,0,0,0,.3-.017,2.648,2.648,0,0,0,2.345-2.913,2.644,2.644,0,0,0,2.33-2.91,2.653,2.653,0,0,0,1.713-4.354,3.692,3.692,0,0,1,1.469-1.12l.224.4a1.98,1.98,0,0,0,2.674.746l2.114-1.171a1.966,1.966,0,0,0,.752-2.682ZM4.419,131.4a.4.4,0,0,1-.535.143L1.77,130.373a.371.371,0,0,1-.176-.225.387.387,0,0,1,.036-.3l6.095-10.778a.385.385,0,0,1,.338-.193.4.4,0,0,1,.2.051l2.114,1.171h0a.37.37,0,0,1,.176.225.385.385,0,0,1-.036.3Zm5.76,4.062a1.074,1.074,0,0,1-1.343-1.677l2.955-2.362a1.079,1.079,0,0,1,1.513.169,1.075,1.075,0,0,1-.168,1.507l-.014.012-2.943,2.351ZM11,138.2a1.078,1.078,0,0,1,.168-1.509h0l4.257-3.4a1.078,1.078,0,0,1,1.513.169,1.078,1.078,0,0,1-.169,1.51l-4.255,3.4A1.079,1.079,0,0,1,11,138.2Zm3.051,3.306a1.074,1.074,0,0,1-.553-1.9h0l2.946-2.353.011-.008a1.078,1.078,0,0,1,1.512.167,1.078,1.078,0,0,1-.169,1.51l-2.955,2.362A1.072,1.072,0,0,1,14.049,141.511Zm5.172.641a1.066,1.066,0,0,1-.4.72l-1.653,1.323a1.079,1.079,0,0,1-1.514-.168,1.078,1.078,0,0,1,.167-1.508h0l1.652-1.321,0,0a1.079,1.079,0,0,1,1.513.169A1.063,1.063,0,0,1,19.22,142.152ZM31.745,135.3a1.082,1.082,0,0,1-1.512.168h0l-2.112-1.687a.789.789,0,1,0-.985,1.233l2.111,1.687a1.074,1.074,0,1,1-1.343,1.677l-2.291-1.828a.789.789,0,0,0-.985,1.234l2.29,1.827a1.076,1.076,0,0,1-1.345,1.68l-1.14-.912-.006,0-.963-.77-.18-.144a.789.789,0,0,0-.986,1.233l1.146.917a1.075,1.075,0,0,1-1.346,1.677l-1.3-1.039a2.641,2.641,0,0,0-1.517-2.609,2.649,2.649,0,0,0-1.029-3.951,2.653,2.653,0,0,0-3.194-3.99,2.632,2.632,0,0,0-.519-1.086,2.66,2.66,0,0,0-3.731-.416l-2.114,1.689A5.2,5.2,0,0,0,6.8,130.4l4.348-7.69,2.315.671a2.581,2.581,0,0,0,.064.392c.56,2.3,2.682,3.377,5.536,2.8,2.405-.484,3.4.237,5.367,1.673.2.149.417.3.64.463,1.418,1.017,2.934,2.213,3.95,3.024l2.562,2.048a1.078,1.078,0,0,1,.167,1.51Zm-.025-3.417L30,130.5c-1.03-.822-2.567-2.034-4.015-3.073-.219-.157-.429-.31-.63-.456-2.045-1.489-3.523-2.565-6.608-1.944-.944.19-3.194.413-3.691-1.627-.07-.288,0-.387.031-.429.106-.147.53-.505,2.192-.652l3.525-.315a3.233,3.233,0,0,1,1.739.228l2.066.722c.23.08.413.15.575.211a3.025,3.025,0,0,0,2.565,0l1.523-.441,4.342,7.679A5.186,5.186,0,0,0,31.721,131.879Z" transform="translate(0 -110.489)" fill="#253150"/>
          <path id="Trazado_3624" data-name="Trazado 3624" d="M451.359,193.164a.79.79,0,1,0-.789-.791v0A.788.788,0,0,0,451.359,193.164Z" transform="translate(-415.005 -178.909)" fill="#253150"/>
        </g>
      </g>
    </g>
  </g>
</svg>
