<?xml version="1.0" encoding="UTF-8" standalone="no"?>
<svg
   xmlns:dc="http://purl.org/dc/elements/1.1/"
   xmlns:cc="http://creativecommons.org/ns#"
   xmlns:rdf="http://www.w3.org/1999/02/22-rdf-syntax-ns#"
   xmlns:svg="http://www.w3.org/2000/svg"
   xmlns="http://www.w3.org/2000/svg"
   xmlns:sodipodi="http://sodipodi.sourceforge.net/DTD/sodipodi-0.dtd"
   xmlns:inkscape="http://www.inkscape.org/namespaces/inkscape"
   width="10.693317mm"
   height="9.397542mm"
   viewBox="0 0 10.693317 9.397542"
   version="1.1"
   id="svg101"
   sodipodi:docname="lealtad-1.svg"
   inkscape:version="1.0.2-2 (e86c870879, 2021-01-15)">
  <defs
     id="defs95" />
  <sodipodi:namedview
     id="base"
     pagecolor="#ffffff"
     bordercolor="#666666"
     borderopacity="1.0"
     inkscape:pageopacity="0.0"
     inkscape:pageshadow="2"
     inkscape:zoom="0.7"
     inkscape:cx="-144.86244"
     inkscape:cy="2.1548952"
     inkscape:document-units="mm"
     inkscape:current-layer="layer1"
     inkscape:document-rotation="0"
     showgrid="false"
     inkscape:window-width="1258"
     inkscape:window-height="1040"
     inkscape:window-x="1926"
     inkscape:window-y="9"
     inkscape:window-maximized="0"
     fit-margin-top="0"
     fit-margin-left="0"
     fit-margin-right="0"
     fit-margin-bottom="0" />
  <metadata
     id="metadata98">
    <rdf:RDF>
      <cc:Work
         rdf:about="">
        <dc:format>image/svg+xml</dc:format>
        <dc:type
           rdf:resource="http://purl.org/dc/dcmitype/StillImage" />
        <dc:title></dc:title>
      </cc:Work>
    </rdf:RDF>
  </metadata>
  <g
     inkscape:label="Capa 1"
     inkscape:groupmode="layer"
     id="layer1"
     transform="translate(-186.28727,-101.89051)">
    <g
       id="Grupo_3691"
       data-name="Grupo 3691"
       transform="matrix(0.26458333,0,0,0.26458333,-119.38432,-353.24163)">
      <ellipse
         id="Elipse_273"
         data-name="Elipse 273"
         cx="14"
         cy="13"
         rx="14"
         ry="13"
         transform="translate(1157.501,1723.44)"
         fill="rgba(176,182,186,0.2)" />
      <g
         id="Grupo_3684"
         data-name="Grupo 3684"
         transform="translate(1155.294,1720.18)">
        <path
           id="Trazado_3625"
           data-name="Trazado 3625"
           d="m 1819.034,1844.286 c 0,0 -4.954,11.88 -3.853,13.251 1.101,1.371 -2.752,-1.675 -2.752,-1.675 z"
           transform="translate(-1811.069,-1836.262)"
           fill="#bd0f14" />
        <path
           id="Trazado_3626"
           data-name="Trazado 3626"
           d="m 1812.429,1844.286 c 0,0 4.954,11.88 3.853,13.251 -1.101,1.371 2.752,-1.675 2.752,-1.675 z"
           transform="translate(-1779.609,-1836.262)"
           fill="#bd0f14" />
        <g
           id="apreton-de-manos">
          <path
             id="Trazado_3620"
             data-name="Trazado 3620"
             d="m 246.784,36.606 a 0.789,0.789 0 0 0 0.789,-0.789 V 31.8 a 0.7895,0.7895 0 1 0 -1.579,0 v 4.021 a 0.789,0.789 0 0 0 0.79,0.785 z"
             transform="translate(-226.578,-31.006)"
             fill="#253150" />
          <path
             id="Trazado_3621"
             data-name="Trazado 3621"
             d="m 154.852,65.312 a 0.78917504,0.78917504 0 1 0 1.335,-0.842 l -2.1,-3.337 a 0.78917504,0.78917504 0 1 0 -1.335,0.842 z"
             transform="translate(-140.58,-58.416)"
             fill="#253150" />
          <path
             id="Trazado_3622"
             data-name="Trazado 3622"
             d="m 313.116,65.56 a 0.789,0.789 0 0 0 1.089,-0.247 l 2.1,-3.337 a 0.78933152,0.78933152 0 1 0 -1.336,-0.841 l -2.1,3.337 a 0.789,0.789 0 0 0 0.247,1.088 z"
             transform="translate(-288.061,-58.416)"
             fill="#253150" />
          <path
             id="Trazado_3623"
             data-name="Trazado 3623"
             d="m 40.159,129.072 -1.371,-2.423 a 0.78948718,0.78948718 0 1 0 -1.374,0.778 l 1.371,2.422 a 0.389,0.389 0 0 1 0.034,0.3 0.372,0.372 0 0 1 -0.176,0.226 l -2.114,1.171 a 0.4,0.4 0 0 1 -0.535,-0.142 l -0.537,-0.95 -0.007,-0.012 -5.55,-9.822 a 0.384,0.384 0 0 1 -0.035,-0.3 0.37,0.37 0 0 1 0.176,-0.225 l 2.116,-1.171 a 0.393,0.393 0 0 1 0.533,0.143 l 1.237,2.186 a 0.78948718,0.78948718 0 1 0 1.374,-0.778 L 34.063,118.3 a 1.976,1.976 0 0 0 -2.672,-0.748 l -2.116,1.171 a 1.961,1.961 0 0 0 -0.8,2.592 l -1.166,0.338 a 4.59,4.59 0 0 1 -0.965,0.222 v 0 a 1.971,1.971 0 0 1 -0.6,-0.18 c -0.163,-0.062 -0.365,-0.138 -0.614,-0.225 l -2.065,-0.722 a 4.732,4.732 0 0 0 -2.4,-0.309 l -3.522,0.315 a 4.757,4.757 0 0 0 -3.194,1.132 L 11.94,121.3 a 1.96,1.96 0 0 0 -0.8,-2.581 l -2.115,-1.172 a 1.977,1.977 0 0 0 -2.673,0.747 l -6.096,10.777 a 1.964,1.964 0 0 0 0.749,2.683 l 2.115,1.171 a 1.979,1.979 0 0 0 2.673,-0.747 l 0.223,-0.4 a 3.707,3.707 0 0 1 1.471,1.12 2.649,2.649 0 0 0 1.713,4.359 2.647,2.647 0 0 0 2.33,2.911 2.646,2.646 0 0 0 2.33,2.911 2.654,2.654 0 0 0 4.3,2.349 l 1.653,-1.322 a 2.658,2.658 0 0 0 0.358,-0.345 l 0.944,0.754 a 2.652,2.652 0 0 0 4.261,-1.562 2.639,2.639 0 0 0 0.865,0.145 2.728,2.728 0 0 0 0.3,-0.017 2.648,2.648 0 0 0 2.345,-2.913 2.644,2.644 0 0 0 2.33,-2.91 2.653,2.653 0 0 0 1.713,-4.354 3.692,3.692 0 0 1 1.469,-1.12 l 0.224,0.4 a 1.98,1.98 0 0 0 2.674,0.746 l 2.114,-1.171 a 1.966,1.966 0 0 0 0.752,-2.682 z M 4.419,131.4 a 0.4,0.4 0 0 1 -0.535,0.143 l -2.114,-1.17 a 0.371,0.371 0 0 1 -0.176,-0.225 0.387,0.387 0 0 1 0.036,-0.3 L 7.725,119.07 a 0.385,0.385 0 0 1 0.338,-0.193 0.4,0.4 0 0 1 0.2,0.051 l 2.114,1.171 v 0 a 0.37,0.37 0 0 1 0.176,0.225 0.385,0.385 0 0 1 -0.036,0.3 z m 5.76,4.062 a 1.0742414,1.0742414 0 0 1 -1.343,-1.677 l 2.955,-2.362 a 1.079,1.079 0 0 1 1.513,0.169 1.075,1.075 0 0 1 -0.168,1.507 l -0.014,0.012 z M 11,138.2 a 1.078,1.078 0 0 1 0.168,-1.509 v 0 l 4.257,-3.4 a 1.078,1.078 0 0 1 1.513,0.169 1.078,1.078 0 0 1 -0.169,1.51 l -4.255,3.4 A 1.079,1.079 0 0 1 11,138.2 Z m 3.051,3.306 a 1.074,1.074 0 0 1 -0.553,-1.9 v 0 l 2.946,-2.353 0.011,-0.008 a 1.078,1.078 0 0 1 1.512,0.167 1.078,1.078 0 0 1 -0.169,1.51 l -2.955,2.362 a 1.072,1.072 0 0 1 -0.794,0.227 z m 5.172,0.641 a 1.066,1.066 0 0 1 -0.4,0.72 l -1.653,1.323 a 1.079,1.079 0 0 1 -1.514,-0.168 1.078,1.078 0 0 1 0.167,-1.508 v 0 l 1.652,-1.321 v 0 a 1.079,1.079 0 0 1 1.513,0.169 1.063,1.063 0 0 1 0.232,0.79 z M 31.745,135.3 a 1.082,1.082 0 0 1 -1.512,0.168 v 0 l -2.112,-1.687 a 0.78906812,0.78906812 0 1 0 -0.985,1.233 l 2.111,1.687 a 1.0742414,1.0742414 0 1 1 -1.343,1.677 l -2.291,-1.828 a 0.78945883,0.78945883 0 0 0 -0.985,1.234 l 2.29,1.827 a 1.0760373,1.0760373 0 0 1 -1.345,1.68 l -1.14,-0.912 h -0.006 l -0.963,-0.77 -0.18,-0.144 a 0.78938029,0.78938029 0 0 0 -0.986,1.233 l 1.146,0.917 a 1.0751796,1.0751796 0 0 1 -1.346,1.677 l -1.3,-1.039 a 2.641,2.641 0 0 0 -1.517,-2.609 2.649,2.649 0 0 0 -1.029,-3.951 2.653,2.653 0 0 0 -3.194,-3.99 2.632,2.632 0 0 0 -0.519,-1.086 2.66,2.66 0 0 0 -3.731,-0.416 L 8.694,131.89 A 5.2,5.2 0 0 0 6.8,130.4 l 4.348,-7.69 2.315,0.671 a 2.581,2.581 0 0 0 0.064,0.392 c 0.56,2.3 2.682,3.377 5.536,2.8 2.405,-0.484 3.4,0.237 5.367,1.673 0.2,0.149 0.417,0.3 0.64,0.463 1.418,1.017 2.934,2.213 3.95,3.024 l 2.562,2.048 a 1.078,1.078 0 0 1 0.167,1.51 z M 31.72,131.883 30,130.5 c -1.03,-0.822 -2.567,-2.034 -4.015,-3.073 -0.219,-0.157 -0.429,-0.31 -0.63,-0.456 -2.045,-1.489 -3.523,-2.565 -6.608,-1.944 -0.944,0.19 -3.194,0.413 -3.691,-1.627 -0.07,-0.288 0,-0.387 0.031,-0.429 0.106,-0.147 0.53,-0.505 2.192,-0.652 l 3.525,-0.315 a 3.233,3.233 0 0 1 1.739,0.228 l 2.066,0.722 c 0.23,0.08 0.413,0.15 0.575,0.211 a 3.025,3.025 0 0 0 2.565,0 l 1.523,-0.441 4.342,7.679 a 5.186,5.186 0 0 0 -1.893,1.476 z"
             transform="translate(0,-110.489)"
             fill="#253150" />
          <path
             id="Trazado_3624"
             data-name="Trazado 3624"
             d="m 451.359,193.164 a 0.79,0.79 0 1 0 -0.789,-0.791 v 0 a 0.788,0.788 0 0 0 0.789,0.791 z"
             transform="translate(-415.005,-178.909)"
             fill="#253150" />
        </g>
      </g>
    </g>
  </g>
</svg>
