<svg xmlns="http://www.w3.org/2000/svg" width="371" height="63" viewBox="0 0 371 63">
  <g id="Grupo_9526" data-name="Grupo 9526" transform="translate(-1110 -1788)">
    <rect id="Rectángulo_3663" data-name="Rectángulo 3663" width="371" height="63" rx="8" transform="translate(1110 1788)" fill="#fff"/>
    <text id="Perseverancia" transform="translate(1225 1825)" fill="#253150" font-size="14" font-family="Gotham-Bold, Gotham" font-weight="700"><tspan x="0" y="0">Perseverancia</tspan></text>
    <g id="Grupo_5876" data-name="Grupo 5876" transform="translate(0.604 -1.852)">
      <circle id="Elipse_274" data-name="Elipse 274" cx="15" cy="15" r="15" transform="translate(1158 1805.852)" fill="rgba(176,182,186,0.2)"/>
      <path id="Trazado_3629" data-name="Trazado 3629" d="M22.333,39.43S23.86,53.382,33.691,53.382H22.645L21.56,51.807V39.43Z" transform="translate(1155.41 1782.924)" fill="#bd0f14"/>
      <g id="surface1" transform="translate(1156.246 1803.256)">
        <path id="Trazado_3627" data-name="Trazado 3627" d="M30.9,10.868h-4.42v-3.4h7.138A1.015,1.015,0,0,0,34.307,5.7L32.338,3.732l2-2A1.015,1.015,0,0,0,33.62,0H25.469a1.015,1.015,0,0,0-1.014,1.015v9.854H23.295A3.736,3.736,0,0,0,19.563,14.6v2.115a3.709,3.709,0,0,0-1.7-.413H16.774a3.736,3.736,0,0,0-3.732,3.732V22.15a3.711,3.711,0,0,0-1.7-.413H10.253a3.736,3.736,0,0,0-3.732,3.732v2.115a3.705,3.705,0,0,0-1.7-.413H3.732A3.736,3.736,0,0,0,0,30.9V33.62a1.015,1.015,0,0,0,1.015,1.015H33.62a1.015,1.015,0,0,0,1.015-1.015V14.6A3.736,3.736,0,0,0,30.9,10.868Zm-4.42-8.839H31.17l-.985.985a1.015,1.015,0,0,0,0,1.435l.985.985H26.483ZM2.029,30.9a1.7,1.7,0,0,1,1.7-1.7H4.819a1.7,1.7,0,0,1,1.7,1.7v1.7H2.029Zm6.521,0V25.469a1.7,1.7,0,0,1,1.7-1.7H11.34a1.7,1.7,0,0,1,1.7,1.7v7.137H8.55Zm6.521-5.434V20.035a1.7,1.7,0,0,1,1.7-1.7h1.087a1.7,1.7,0,0,1,1.7,1.7V32.606H15.071Zm17.534,7.137H21.593V14.6a1.7,1.7,0,0,1,1.7-1.7H30.9a1.7,1.7,0,0,1,1.7,1.7Zm0,0" transform="translate(0)" fill="#253150"/>
      </g>
      <path id="Trazado_3628" data-name="Trazado 3628" d="M0,0H38" transform="translate(1154 1838.449)" fill="none" stroke="#fff" stroke-width="5"/>
    </g>
  </g>
</svg>
