<svg xmlns="http://www.w3.org/2000/svg" width="371" height="63" viewBox="0 0 371 63">
  <g id="Grupo_9527" data-name="Grupo 9527" transform="translate(-1110 -1870)">
    <rect id="Rectángulo_3665" data-name="Rectángulo 3665" width="371" height="63" rx="8" transform="translate(1110 1870)" fill="#fff"/>
    <text id="Profesionalismo" transform="translate(1225 1907)" fill="#253150" font-size="14" font-family="Gotham-Bold, Gotham" font-weight="700"><tspan x="0" y="0">Profesionalismo</tspan></text>
    <circle id="Elipse_275" data-name="Elipse 275" cx="16" cy="16" r="16" transform="translate(1157 1895)" fill="rgba(176,182,186,0.2)"/>
    <path id="Trazado_3633" data-name="Trazado 3633" d="M22.256,39.43s1.373,12.662,10.216,12.662H22.536l-.976-1.429V39.43Z" transform="translate(1152.043 1865.492)" fill="#bd0f14"/>
    <g id="group" transform="translate(1147.107 1883.676)">
      <g id="Grupo_3686" data-name="Grupo 3686" transform="translate(14.934 0)">
        <g id="Grupo_3685" data-name="Grupo 3685" transform="translate(0 0)">
          <path id="Trazado_3630" data-name="Trazado 3630" d="M164.984,111.287l-4.511-2a.884.884,0,0,1-.524-.807v-1.239a6.574,6.574,0,0,0,2.489-5.15v-1.744a1.609,1.609,0,0,0,.83-1.406v-.169a6.591,6.591,0,0,0-6.584-6.584h-1.659a6.591,6.591,0,0,0-6.584,6.584V100.3a1.628,1.628,0,0,0,.619,1.3,1.515,1.515,0,0,0,.21.136v.343a6.573,6.573,0,0,0,2.489,5.15v1.239a.884.884,0,0,1-.524.807l-4.511,2a4.1,4.1,0,0,0-2.432,3.742v10.288a.776.776,0,0,0,1.552,0V115.029a2.545,2.545,0,0,1,.016-.267l2.079,2.078a1.7,1.7,0,0,1,.5,1.211v7.266a.776.776,0,0,0,1.553,0v-7.266a3.244,3.244,0,0,0-.956-2.309l-2.478-2.478a2.535,2.535,0,0,1,.8-.559l4.435-1.971,3.289,3.289v11.294a.776.776,0,1,0,1.553,0V114.024l3.289-3.289,4.435,1.971a2.534,2.534,0,0,1,.8.559l-2.478,2.478a3.244,3.244,0,0,0-.956,2.309v7.266a.776.776,0,0,0,1.553,0v-7.266a1.7,1.7,0,0,1,.5-1.211l2.078-2.078a2.533,2.533,0,0,1,.016.267v10.288a.776.776,0,0,0,1.553,0V115.029A4.1,4.1,0,0,0,164.984,111.287Zm-9.13,1.317-2.886-2.886a2.432,2.432,0,0,0,.343-1.243v-.316a6.578,6.578,0,0,0,5.085,0v.316a2.431,2.431,0,0,0,.343,1.243Zm0-5.486a5.037,5.037,0,0,1-5.031-5.031v-.349a4.59,4.59,0,0,0,1.41-.915.776.776,0,0,0-1.053-1.141,2.788,2.788,0,0,1-1.153.688l-.021,0a.157.157,0,0,1-.013-.07V98.768a5.037,5.037,0,0,1,5.032-5.031h1.659a5.037,5.037,0,0,1,5.031,5.031v.169a.05.05,0,0,1-.035.051c-4.648.918-6.98-.812-7.766-1.6a.776.776,0,0,0-1.1,1.1c2.411,2.411,5.928,2.454,8.069,2.2v1.4A5.037,5.037,0,0,1,155.854,107.118Z" transform="translate(-144.292 -92.184)" fill="#253150"/>
        </g>
      </g>
      <g id="Grupo_3688" data-name="Grupo 3688" transform="translate(0 4.148)">
        <g id="Grupo_3687" data-name="Grupo 3687" transform="translate(0 0)">
          <path id="Trazado_3631" data-name="Trazado 3631" d="M14,143v-1.66A5.753,5.753,0,0,0,11.36,136.5a3.265,3.265,0,1,0-6.233,0,5.753,5.753,0,0,0-2.638,4.833V143a5.751,5.751,0,0,0,2.489,4.734v1.707a.878.878,0,0,1-.488.79L1.8,151.571A3.248,3.248,0,0,0,0,154.492v6.758a.776.776,0,1,0,1.553,0v-6.423l1.265,1.265a1.7,1.7,0,0,1,.5,1.211v3.947a.776.776,0,1,0,1.553,0V157.3a3.244,3.244,0,0,0-.956-2.309l-1.76-1.76-.026-.024a1.731,1.731,0,0,1,.371-.251l2.685-1.342a2.471,2.471,0,0,0,.385-.24l1.9,1.9v7.975a.776.776,0,0,0,1.553,0v-7.975l1.9-1.9a2.462,2.462,0,0,0,.385.24l.74.37a.776.776,0,1,0,.694-1.388l-.74-.37a.878.878,0,0,1-.488-.79v-1.707A5.751,5.751,0,0,0,14,143Zm-5.754-9.18a1.715,1.715,0,0,1,1.713,1.713,1.74,1.74,0,0,1-.027.306,5.754,5.754,0,0,0-3.369,0,1.7,1.7,0,0,1,1.683-2.018Zm0,3.319a4.207,4.207,0,0,1,4.2,4.2v.281a4.873,4.873,0,0,1-5.24-1.577.776.776,0,0,0-1.17-.083,5.078,5.078,0,0,1-1.991,1.271A4.206,4.206,0,0,1,8.243,137.136Zm0,14.719L6.45,150.062a2.458,2.458,0,0,0,.081-.623v-.948a5.765,5.765,0,0,0,3.425,0v.948a2.458,2.458,0,0,0,.081.623Zm0-4.656a4.207,4.207,0,0,1-4.2-4.2v-.161a6.224,6.224,0,0,0,2.494-1.243,7,7,0,0,0,1.439,1.048,6.175,6.175,0,0,0,2.967.766,6.5,6.5,0,0,0,1.5-.179A4.207,4.207,0,0,1,8.243,147.2Z" transform="translate(0 -132.265)" fill="#253150"/>
        </g>
      </g>
      <g id="Grupo_3690" data-name="Grupo 3690" transform="translate(37.335 5.808)">
        <g id="Grupo_3689" data-name="Grupo 3689" transform="translate(0 0)">
          <path id="Trazado_3632" data-name="Trazado 3632" d="M374.578,164.285l-4.344-2.172a.878.878,0,0,1-.488-.79v-1.1a4.913,4.913,0,0,0,1.659-3.682v-.884h.053a.776.776,0,0,0,.776-.776v-1.659a4.93,4.93,0,0,0-4.925-4.925h-1.659a4.93,4.93,0,0,0-4.925,4.925v1.659a.776.776,0,0,0,.776.776h.053v.884a4.913,4.913,0,0,0,1.659,3.682v1.1a.878.878,0,0,1-.488.79.776.776,0,1,0,.694,1.389,2.473,2.473,0,0,0,.385-.24l1.9,1.9v10.464a.776.776,0,1,0,1.552,0V165.159l1.9-1.9a2.463,2.463,0,0,0,.385.24l4.2,2.1-1.275,1.275a3.244,3.244,0,0,0-.956,2.309v6.436a.776.776,0,0,0,1.553,0v-6.436a1.7,1.7,0,0,1,.5-1.211l1.208-1.208a1.731,1.731,0,0,1,.057.437v8.418a.776.776,0,1,0,1.552,0v-8.418A3.247,3.247,0,0,0,374.578,164.285Zm-12.3-10.339v-.723h0a3.376,3.376,0,0,1,3.372-3.372h1.659a3.376,3.376,0,0,1,3.372,3.372v.862a11.872,11.872,0,0,1-5.431-1.508.776.776,0,0,0-.98.1A5.085,5.085,0,0,1,362.278,153.946Zm4.2,9.794-1.794-1.794a2.457,2.457,0,0,0,.081-.623v-.165a4.92,4.92,0,0,0,3.425,0v.165a2.457,2.457,0,0,0,.081.623Zm0-3.827a3.376,3.376,0,0,1-3.372-3.372V155.29h0a6.57,6.57,0,0,0,1.822-1.112,13.792,13.792,0,0,0,4.923,1.4v.964A3.376,3.376,0,0,1,366.48,159.913Z" transform="translate(-360.726 -148.298)" fill="#253150"/>
        </g>
      </g>
    </g>
  </g>
</svg>
