<?xml version="1.0" encoding="UTF-8" standalone="no"?>
<svg
   xmlns:dc="http://purl.org/dc/elements/1.1/"
   xmlns:cc="http://creativecommons.org/ns#"
   xmlns:rdf="http://www.w3.org/1999/02/22-rdf-syntax-ns#"
   xmlns:svg="http://www.w3.org/2000/svg"
   xmlns="http://www.w3.org/2000/svg"
   xmlns:sodipodi="http://sodipodi.sourceforge.net/DTD/sodipodi-0.dtd"
   xmlns:inkscape="http://www.inkscape.org/namespaces/inkscape"
   width="14.020017mm"
   height="11.46175mm"
   viewBox="0 0 14.020017 11.46175"
   version="1.1"
   id="svg101"
   sodipodi:docname="profesionalismo-1.svg"
   inkscape:version="1.0.2-2 (e86c870879, 2021-01-15)">
  <defs
     id="defs95" />
  <sodipodi:namedview
     id="base"
     pagecolor="#ffffff"
     bordercolor="#666666"
     borderopacity="1.0"
     inkscape:pageopacity="0.0"
     inkscape:pageshadow="2"
     inkscape:zoom="0.98994949"
     inkscape:cx="83.851021"
     inkscape:cy="111.13215"
     inkscape:document-units="mm"
     inkscape:current-layer="Grupo_5876"
     inkscape:document-rotation="0"
     showgrid="false"
     inkscape:window-width="1258"
     inkscape:window-height="1040"
     inkscape:window-x="1926"
     inkscape:window-y="9"
     inkscape:window-maximized="0"
     fit-margin-top="0"
     fit-margin-left="0"
     fit-margin-right="0"
     fit-margin-bottom="0" />
  <metadata
     id="metadata98">
    <rdf:RDF>
      <cc:Work
         rdf:about="">
        <dc:format>image/svg+xml</dc:format>
        <dc:type
           rdf:resource="http://purl.org/dc/dcmitype/StillImage" />
        <dc:title></dc:title>
      </cc:Work>
    </rdf:RDF>
  </metadata>
  <g
     inkscape:label="Capa 1"
     inkscape:groupmode="layer"
     id="layer1"
     transform="translate(-172.32784,-92.6243)">
    <g
       id="Grupo_5876"
       data-name="Grupo 5876"
       transform="matrix(0.26458333,0,0,0.26458333,-144.4247,-401.21104)">
      <circle
         id="Elipse_275"
         data-name="Elipse 275"
         cx="1223.068"
         cy="1893.7843"
         r="16"
         fill="rgba(176,182,186,0.2)" />
      <path
         id="Trazado_3633"
         data-name="Trazado 3633"
         d="m 1224.367,1887.7063 c 0,0 1.373,12.662 10.216,12.662 h -9.936 l -0.976,-1.429 v -11.233 z"
         fill="#bd0f14" />
      <g
         id="group"
         transform="translate(1197.175,1866.4603)">
        <g
           id="Grupo_3686"
           data-name="Grupo 3686"
           transform="translate(14.934)">
          <g
             id="Grupo_3685"
             data-name="Grupo 3685">
            <path
               id="Trazado_3630"
               data-name="Trazado 3630"
               d="m 164.984,111.287 -4.511,-2 a 0.884,0.884 0 0 1 -0.524,-0.807 v -1.239 a 6.574,6.574 0 0 0 2.489,-5.15 v -1.744 a 1.609,1.609 0 0 0 0.83,-1.406 v -0.169 a 6.591,6.591 0 0 0 -6.584,-6.584 h -1.659 a 6.591,6.591 0 0 0 -6.584,6.584 v 1.528 a 1.628,1.628 0 0 0 0.619,1.3 1.515,1.515 0 0 0 0.21,0.136 v 0.343 a 6.573,6.573 0 0 0 2.489,5.15 v 1.239 a 0.884,0.884 0 0 1 -0.524,0.807 l -4.511,2 a 4.1,4.1 0 0 0 -2.432,3.742 v 10.288 a 0.776,0.776 0 0 0 1.552,0 v -10.276 a 2.545,2.545 0 0 1 0.016,-0.267 l 2.079,2.078 a 1.7,1.7 0 0 1 0.5,1.211 v 7.266 a 0.7765,0.7765 0 0 0 1.553,0 v -7.266 a 3.244,3.244 0 0 0 -0.956,-2.309 l -2.478,-2.478 a 2.535,2.535 0 0 1 0.8,-0.559 l 4.435,-1.971 3.289,3.289 v 11.294 a 0.7765,0.7765 0 1 0 1.553,0 v -11.293 l 3.289,-3.289 4.435,1.971 a 2.534,2.534 0 0 1 0.8,0.559 l -2.478,2.478 a 3.244,3.244 0 0 0 -0.956,2.309 v 7.266 a 0.7765,0.7765 0 0 0 1.553,0 v -7.266 a 1.7,1.7 0 0 1 0.5,-1.211 l 2.078,-2.078 a 2.533,2.533 0 0 1 0.016,0.267 v 10.288 a 0.7765,0.7765 0 0 0 1.553,0 v -10.289 a 4.1,4.1 0 0 0 -2.441,-3.742 z m -9.13,1.317 -2.886,-2.886 a 2.432,2.432 0 0 0 0.343,-1.243 v -0.316 a 6.578,6.578 0 0 0 5.085,0 v 0.316 a 2.431,2.431 0 0 0 0.343,1.243 z m 0,-5.486 a 5.037,5.037 0 0 1 -5.031,-5.031 v -0.349 a 4.59,4.59 0 0 0 1.41,-0.915 0.77631984,0.77631984 0 0 0 -1.053,-1.141 2.788,2.788 0 0 1 -1.153,0.688 h -0.021 a 0.157,0.157 0 0 1 -0.013,-0.07 v -1.532 a 5.037,5.037 0 0 1 5.032,-5.031 h 1.659 a 5.037,5.037 0 0 1 5.031,5.031 v 0.169 a 0.05,0.05 0 0 1 -0.035,0.051 c -4.648,0.918 -6.98,-0.812 -7.766,-1.6 a 0.77781746,0.77781746 0 0 0 -1.1,1.1 c 2.411,2.411 5.928,2.454 8.069,2.2 v 1.4 a 5.037,5.037 0 0 1 -5.029,5.03 z"
               transform="translate(-144.292,-92.184)"
               fill="#253150" />
          </g>
        </g>
        <g
           id="Grupo_3688"
           data-name="Grupo 3688"
           transform="translate(0,4.148)">
          <g
             id="Grupo_3687"
             data-name="Grupo 3687">
            <path
               id="Trazado_3631"
               data-name="Trazado 3631"
               d="m 14,143 v -1.66 a 5.753,5.753 0 0 0 -2.64,-4.84 3.265,3.265 0 1 0 -6.233,0 5.753,5.753 0 0 0 -2.638,4.833 V 143 a 5.751,5.751 0 0 0 2.489,4.734 v 1.707 a 0.878,0.878 0 0 1 -0.488,0.79 l -2.69,1.34 A 3.248,3.248 0 0 0 0,154.492 v 6.758 a 0.7765,0.7765 0 1 0 1.553,0 v -6.423 l 1.265,1.265 a 1.7,1.7 0 0 1 0.5,1.211 v 3.947 a 0.7765,0.7765 0 1 0 1.553,0 v -3.95 a 3.244,3.244 0 0 0 -0.956,-2.309 l -1.76,-1.76 -0.026,-0.024 A 1.731,1.731 0 0 1 2.5,152.956 l 2.685,-1.342 a 2.471,2.471 0 0 0 0.385,-0.24 l 1.9,1.9 v 7.975 a 0.7765,0.7765 0 0 0 1.553,0 v -7.975 l 1.9,-1.9 a 2.462,2.462 0 0 0 0.385,0.24 l 0.74,0.37 a 0.776,0.776 0 1 0 0.694,-1.388 l -0.74,-0.37 a 0.878,0.878 0 0 1 -0.488,-0.79 v -1.707 A 5.751,5.751 0 0 0 14,143 Z m -5.754,-9.18 a 1.715,1.715 0 0 1 1.713,1.713 1.74,1.74 0 0 1 -0.027,0.306 5.754,5.754 0 0 0 -3.369,0 1.7,1.7 0 0 1 1.683,-2.018 z m 0,3.319 a 4.207,4.207 0 0 1 4.2,4.2 v 0.281 a 4.873,4.873 0 0 1 -5.24,-1.577 0.776,0.776 0 0 0 -1.17,-0.083 5.078,5.078 0 0 1 -1.991,1.271 4.206,4.206 0 0 1 4.198,-4.095 z m 0,14.719 -1.796,-1.796 a 2.458,2.458 0 0 0 0.081,-0.623 v -0.948 a 5.765,5.765 0 0 0 3.425,0 v 0.948 a 2.458,2.458 0 0 0 0.081,0.623 z m 0,-4.656 a 4.207,4.207 0 0 1 -4.2,-4.2 v -0.161 a 6.224,6.224 0 0 0 2.494,-1.243 7,7 0 0 0 1.439,1.048 6.175,6.175 0 0 0 2.967,0.766 6.5,6.5 0 0 0 1.5,-0.179 4.207,4.207 0 0 1 -4.203,3.967 z"
               transform="translate(0,-132.265)"
               fill="#253150" />
          </g>
        </g>
        <g
           id="Grupo_3690"
           data-name="Grupo 3690"
           transform="translate(37.335,5.808)">
          <g
             id="Grupo_3689"
             data-name="Grupo 3689">
            <path
               id="Trazado_3632"
               data-name="Trazado 3632"
               d="m 374.578,164.285 -4.344,-2.172 a 0.878,0.878 0 0 1 -0.488,-0.79 v -1.1 a 4.913,4.913 0 0 0 1.659,-3.682 v -0.884 h 0.053 a 0.776,0.776 0 0 0 0.776,-0.776 v -1.659 a 4.93,4.93 0 0 0 -4.925,-4.925 h -1.659 a 4.93,4.93 0 0 0 -4.925,4.925 v 1.659 a 0.776,0.776 0 0 0 0.776,0.776 h 0.053 v 0.884 a 4.913,4.913 0 0 0 1.659,3.682 v 1.1 a 0.878,0.878 0 0 1 -0.488,0.79 0.77636283,0.77636283 0 1 0 0.694,1.389 2.473,2.473 0 0 0 0.385,-0.24 l 1.9,1.9 v 10.464 a 0.776,0.776 0 1 0 1.552,0 v -10.467 l 1.9,-1.9 a 2.463,2.463 0 0 0 0.385,0.24 l 4.2,2.1 -1.275,1.275 a 3.244,3.244 0 0 0 -0.956,2.309 v 6.436 a 0.7765,0.7765 0 0 0 1.553,0 v -6.436 a 1.7,1.7 0 0 1 0.5,-1.211 l 1.208,-1.208 a 1.731,1.731 0 0 1 0.057,0.437 v 8.418 a 0.776,0.776 0 1 0 1.552,0 v -8.418 a 3.247,3.247 0 0 0 -1.802,-2.916 z m -12.3,-10.339 v -0.723 0 a 3.376,3.376 0 0 1 3.372,-3.372 h 1.659 a 3.376,3.376 0 0 1 3.372,3.372 v 0.862 a 11.872,11.872 0 0 1 -5.431,-1.508 0.776,0.776 0 0 0 -0.98,0.1 5.085,5.085 0 0 1 -1.992,1.269 z m 4.2,9.794 -1.794,-1.794 a 2.457,2.457 0 0 0 0.081,-0.623 v -0.165 a 4.92,4.92 0 0 0 3.425,0 v 0.165 a 2.457,2.457 0 0 0 0.081,0.623 z m 0,-3.827 a 3.376,3.376 0 0 1 -3.372,-3.372 v -1.251 0 a 6.57,6.57 0 0 0 1.822,-1.112 13.792,13.792 0 0 0 4.923,1.4 v 0.964 a 3.376,3.376 0 0 1 -3.371,3.371 z"
               transform="translate(-360.726,-148.298)"
               fill="#253150" />
          </g>
        </g>
      </g>
    </g>
  </g>
</svg>
