<?xml version="1.0" encoding="UTF-8" standalone="no"?>
<svg
   xmlns:dc="http://purl.org/dc/elements/1.1/"
   xmlns:cc="http://creativecommons.org/ns#"
   xmlns:rdf="http://www.w3.org/1999/02/22-rdf-syntax-ns#"
   xmlns:svg="http://www.w3.org/2000/svg"
   xmlns="http://www.w3.org/2000/svg"
   xmlns:sodipodi="http://sodipodi.sourceforge.net/DTD/sodipodi-0.dtd"
   xmlns:inkscape="http://www.inkscape.org/namespaces/inkscape"
   width="10.427213mm"
   height="9.1649914mm"
   viewBox="0 0 10.427213 9.1649914"
   version="1.1"
   id="svg53"
   sodipodi:docname="dibujo.svg"
   inkscape:version="1.0.2-2 (e86c870879, 2021-01-15)">
  <defs
     id="defs47" />
  <sodipodi:namedview
     id="base"
     pagecolor="#ffffff"
     bordercolor="#666666"
     borderopacity="1.0"
     inkscape:pageopacity="0.0"
     inkscape:pageshadow="2"
     inkscape:zoom="0.7"
     inkscape:cx="21.171671"
     inkscape:cy="280.21402"
     inkscape:document-units="mm"
     inkscape:current-layer="layer1"
     inkscape:document-rotation="0"
     showgrid="false"
     inkscape:window-width="1258"
     inkscape:window-height="1040"
     inkscape:window-x="1926"
     inkscape:window-y="9"
     inkscape:window-maximized="0"
     fit-margin-top="0"
     fit-margin-left="0"
     fit-margin-right="0"
     fit-margin-bottom="0" />
  <metadata
     id="metadata50">
    <rdf:RDF>
      <cc:Work
         rdf:about="">
        <dc:format>image/svg+xml</dc:format>
        <dc:type
           rdf:resource="http://purl.org/dc/dcmitype/StillImage" />
        <dc:title></dc:title>
      </cc:Work>
    </rdf:RDF>
  </metadata>
  <g
     inkscape:label="Capa 1"
     inkscape:groupmode="layer"
     id="layer1"
     transform="translate(-93.060202,-73.847563)">
    <g
       id="Grupo_3692"
       data-name="Grupo 3692"
       transform="matrix(0.26458333,0,0,0.26458333,-212.61102,-381.28339)">
      <circle
         id="Elipse_273"
         data-name="Elipse 273"
         cx="13"
         cy="13"
         r="13"
         transform="translate(1158,1723)"
         fill="rgba(176,182,186,0.2)" />
      <g
         id="Grupo_3684"
         data-name="Grupo 3684"
         transform="translate(0.205,0.18)">
        <path
           id="Trazado_3625"
           data-name="Trazado 3625"
           d="m 1818.87,1844.286 c 0,0 -4.831,11.585 -3.758,12.922 1.073,1.337 -2.684,-1.634 -2.684,-1.634 z"
           transform="translate(-656.014,-116.461)"
           fill="#bd0f14" />
        <path
           id="Trazado_3626"
           data-name="Trazado 3626"
           d="m 1812.429,1844.286 c 0,0 4.831,11.585 3.758,12.922 -1.073,1.337 2.684,-1.634 2.684,-1.634 z"
           transform="translate(-625.333,-116.461)"
           fill="#bd0f14" />
        <g
           id="apreton-de-manos"
           transform="translate(1155.089,1720)">
          <path
             id="Trazado_3620"
             data-name="Trazado 3620"
             d="m 246.765,36.467 a 0.77,0.77 0 0 0 0.77,-0.77 v -3.921 a 0.77,0.77 0 1 0 -1.54,0 V 35.7 a 0.77,0.77 0 0 0 0.77,0.767 z"
             transform="translate(-227.059,-31.006)"
             fill="#253150" />
          <path
             id="Trazado_3621"
             data-name="Trazado 3621"
             d="m 154.8,65.2 a 0.77,0.77 0 1 0 1.3,-0.821 l -2.051,-3.254 a 0.77,0.77 0 1 0 -1.3,0.821 z"
             transform="translate(-140.878,-58.474)"
             fill="#253150" />
          <path
             id="Trazado_3622"
             data-name="Trazado 3622"
             d="m 313.106,65.441 a 0.77,0.77 0 0 0 1.062,-0.241 l 2.049,-3.254 a 0.77,0.77 0 1 0 -1.3,-0.82 l -2.049,3.254 a 0.77,0.77 0 0 0 0.238,1.061 z"
             transform="translate(-288.672,-58.475)"
             fill="#253150" />
          <path
             id="Trazado_3623"
             data-name="Trazado 3623"
             d="m 39.164,128.781 -1.338,-2.363 a 0.77,0.77 0 1 0 -1.34,0.758 l 1.337,2.362 a 0.38,0.38 0 0 1 0.033,0.291 0.363,0.363 0 0 1 -0.172,0.22 l -2.061,1.142 a 0.39,0.39 0 0 1 -0.522,-0.139 l -0.524,-0.926 -0.007,-0.012 -5.414,-9.576 a 0.375,0.375 0 0 1 -0.034,-0.288 0.361,0.361 0 0 1 0.172,-0.219 l 2.064,-1.142 a 0.383,0.383 0 0 1 0.52,0.139 l 1.207,2.132 a 0.77,0.77 0 1 0 1.34,-0.758 l -1.206,-2.131 a 1.927,1.927 0 0 0 -2.605,-0.729 l -2.064,1.142 a 1.913,1.913 0 0 0 -0.778,2.528 l -1.137,0.329 a 4.477,4.477 0 0 1 -0.941,0.216 v 0 a 1.922,1.922 0 0 1 -0.584,-0.176 c -0.159,-0.06 -0.356,-0.135 -0.6,-0.22 l -2.014,-0.7 a 4.615,4.615 0 0 0 -2.344,-0.3 l -3.434,0.307 a 4.639,4.639 0 0 0 -3.115,1.1 l -1.957,-0.567 a 1.912,1.912 0 0 0 -0.782,-2.517 L 8.8,117.542 a 1.928,1.928 0 0 0 -2.607,0.729 L 0.25,128.78 a 1.915,1.915 0 0 0 0.73,2.62 l 2.063,1.142 a 1.93,1.93 0 0 0 2.607,-0.729 l 0.218,-0.386 a 3.616,3.616 0 0 1 1.432,1.09 2.584,2.584 0 0 0 1.67,4.246 2.581,2.581 0 0 0 2.272,2.839 2.58,2.58 0 0 0 2.273,2.839 2.589,2.589 0 0 0 4.19,2.291 l 1.612,-1.29 a 2.593,2.593 0 0 0 0.349,-0.337 l 0.921,0.735 a 2.587,2.587 0 0 0 4.155,-1.523 2.573,2.573 0 0 0 0.843,0.141 2.657,2.657 0 0 0 0.293,-0.016 2.583,2.583 0 0 0 2.287,-2.841 2.578,2.578 0 0 0 2.272,-2.838 2.588,2.588 0 0 0 1.671,-4.246 3.6,3.6 0 0 1 1.433,-1.093 l 0.218,0.386 a 1.931,1.931 0 0 0 2.607,0.728 l 2.061,-1.142 a 1.917,1.917 0 0 0 0.734,-2.616 z M 4.31,131.052 a 0.39,0.39 0 0 1 -0.522,0.14 L 1.726,130.05 a 0.362,0.362 0 0 1 -0.171,-0.22 0.378,0.378 0 0 1 0.035,-0.291 l 5.944,-10.511 a 0.376,0.376 0 0 1 0.329,-0.188 0.4,0.4 0 0 1 0.192,0.05 l 2.062,1.142 v 0 a 0.361,0.361 0 0 1 0.171,0.219 0.376,0.376 0 0 1 -0.035,0.289 z m 5.617,3.961 a 1.048,1.048 0 0 1 -1.31,-1.636 l 2.882,-2.3 a 1.052,1.052 0 0 1 1.476,0.165 1.048,1.048 0 0 1 -0.164,1.469 l -0.013,0.012 -2.87,2.293 z m 0.8,2.674 a 1.051,1.051 0 0 1 0.164,-1.472 v 0 l 4.151,-3.317 a 1.052,1.052 0 0 1 1.476,0.165 1.052,1.052 0 0 1 -0.165,1.473 l -4.15,3.315 a 1.052,1.052 0 0 1 -1.477,-0.164 z m 2.976,3.225 a 1.047,1.047 0 0 1 -0.539,-1.858 v 0 l 2.873,-2.295 0.01,-0.008 a 1.052,1.052 0 0 1 1.475,0.163 1.051,1.051 0 0 1 -0.165,1.473 l -2.882,2.3 a 1.045,1.045 0 0 1 -0.775,0.225 z m 5.043,0.625 a 1.039,1.039 0 0 1 -0.386,0.7 l -1.612,1.29 a 1.052,1.052 0 0 1 -1.477,-0.164 1.051,1.051 0 0 1 0.163,-1.471 v 0 l 1.611,-1.288 v 0 a 1.052,1.052 0 0 1 1.476,0.165 1.037,1.037 0 0 1 0.223,0.767 z m 12.215,-6.687 a 1.055,1.055 0 0 1 -1.475,0.163 v 0 l -2.06,-1.646 a 0.77,0.77 0 1 0 -0.961,1.2 l 2.059,1.645 a 1.048,1.048 0 1 1 -1.31,1.635 l -2.234,-1.783 a 0.77,0.77 0 0 0 -0.96,1.2 l 2.233,1.782 a 1.0493317,1.0493317 0 0 1 -1.312,1.638 l -1.112,-0.889 h -0.006 l -0.939,-0.751 -0.176,-0.14 a 0.77,0.77 0 0 0 -0.962,1.2 l 1.118,0.894 a 1.049,1.049 0 0 1 -1.313,1.635 l -1.268,-1.013 a 2.576,2.576 0 0 0 -1.48,-2.544 2.583,2.583 0 0 0 -1,-3.853 2.588,2.588 0 0 0 -3.115,-3.891 2.567,2.567 0 0 0 -0.506,-1.059 2.594,2.594 0 0 0 -3.639,-0.406 l -2.061,1.648 a 5.072,5.072 0 0 0 -1.849,-1.44 l 4.24,-7.5 2.257,0.654 a 2.518,2.518 0 0 0 0.063,0.382 c 0.546,2.247 2.615,3.294 5.4,2.733 2.346,-0.472 3.311,0.231 5.234,1.632 0.2,0.145 0.407,0.3 0.624,0.452 1.383,0.992 2.861,2.159 3.852,2.949 l 2.5,2 a 1.051,1.051 0 0 1 0.163,1.472 z m -0.024,-3.332 -1.677,-1.34 c -1,-0.8 -2.5,-1.984 -3.916,-3 -0.214,-0.153 -0.418,-0.3 -0.615,-0.445 -1.994,-1.452 -3.435,-2.5 -6.444,-1.9 -0.921,0.186 -3.115,0.4 -3.6,-1.587 -0.068,-0.281 0,-0.377 0.031,-0.419 0.1,-0.143 0.517,-0.493 2.137,-0.636 l 3.438,-0.308 a 3.153,3.153 0 0 1 1.7,0.222 l 2.014,0.7 c 0.224,0.078 0.4,0.146 0.561,0.206 a 2.95,2.95 0 0 0 2.5,0 l 1.485,-0.43 4.234,7.489 a 5.058,5.058 0 0 0 -1.85,1.448 z"
             transform="translate(0,-110.658)"
             fill="#253150" />
          <path
             id="Trazado_3624"
             data-name="Trazado 3624"
             d="m 451.34,193.125 a 0.77,0.77 0 1 0 -0.77,-0.771 v 0 a 0.769,0.769 0 0 0 0.77,0.771 z"
             transform="translate(-415.886,-179.223)"
             fill="#253150" />
        </g>
      </g>
    </g>
  </g>
</svg>
