<svg xmlns="http://www.w3.org/2000/svg" width="172" height="63" viewBox="0 0 172 63">
  <g id="Grupo_9521" data-name="Grupo 9521" transform="translate(-1111 -1206)">
    <rect id="Rectángulo_4470" data-name="Rectángulo 4470" width="172" height="63" rx="8" transform="translate(1111 1206)" fill="#fff"/>
    <text id="Respeto" transform="translate(1196 1243)" fill="#253150" font-size="14" font-family="Gotham-Bold, Gotham" font-weight="700"><tspan x="0" y="0">Respeto</tspan></text>
    <g id="Grupo_3692" data-name="Grupo 3692" transform="translate(-17.707 -500)">
      <circle id="Elipse_273" data-name="Elipse 273" cx="13" cy="13" r="13" transform="translate(1158 1723)" fill="rgba(176,182,186,0.2)"/>
      <g id="Grupo_3684" data-name="Grupo 3684" transform="translate(0.205 0.18)">
        <path id="Trazado_3625" data-name="Trazado 3625" d="M1818.87,1844.286s-4.831,11.585-3.758,12.922-2.684-1.634-2.684-1.634Z" transform="translate(-656.014 -116.461)" fill="#bd0f14"/>
        <path id="Trazado_3626" data-name="Trazado 3626" d="M1812.429,1844.286s4.831,11.585,3.758,12.922,2.684-1.634,2.684-1.634Z" transform="translate(-625.333 -116.461)" fill="#bd0f14"/>
        <g id="apreton-de-manos" transform="translate(1155.089 1720)">
          <path id="Trazado_3620" data-name="Trazado 3620" d="M246.765,36.467a.77.77,0,0,0,.77-.77V31.776a.77.77,0,1,0-1.54,0V35.7A.77.77,0,0,0,246.765,36.467Z" transform="translate(-227.059 -31.006)" fill="#253150"/>
          <path id="Trazado_3621" data-name="Trazado 3621" d="M154.8,65.2a.77.77,0,1,0,1.3-.821l-2.051-3.254a.77.77,0,1,0-1.3.821Z" transform="translate(-140.878 -58.474)" fill="#253150"/>
          <path id="Trazado_3622" data-name="Trazado 3622" d="M313.106,65.441a.77.77,0,0,0,1.062-.241l2.049-3.254a.77.77,0,1,0-1.3-.82l-2.049,3.254A.77.77,0,0,0,313.106,65.441Z" transform="translate(-288.672 -58.475)" fill="#253150"/>
          <path id="Trazado_3623" data-name="Trazado 3623" d="M39.164,128.781l-1.338-2.363a.77.77,0,1,0-1.34.758l1.337,2.362a.38.38,0,0,1,.033.291.363.363,0,0,1-.172.22l-2.061,1.142a.39.39,0,0,1-.522-.139l-.524-.926-.007-.012-5.414-9.576a.375.375,0,0,1-.034-.288.361.361,0,0,1,.172-.219l2.064-1.142a.383.383,0,0,1,.52.139l1.207,2.132a.77.77,0,1,0,1.34-.758l-1.206-2.131a1.927,1.927,0,0,0-2.605-.729l-2.064,1.142a1.913,1.913,0,0,0-.778,2.528l-1.137.329a4.477,4.477,0,0,1-.941.216h0a1.922,1.922,0,0,1-.584-.176c-.159-.06-.356-.135-.6-.22l-2.014-.7a4.615,4.615,0,0,0-2.344-.3l-3.434.307a4.639,4.639,0,0,0-3.115,1.1l-1.957-.567a1.912,1.912,0,0,0-.782-2.517L8.8,117.542a1.928,1.928,0,0,0-2.607.729L.25,128.78A1.915,1.915,0,0,0,.98,131.4l2.063,1.142a1.93,1.93,0,0,0,2.607-.729l.218-.386A3.616,3.616,0,0,1,7.3,132.517a2.584,2.584,0,0,0,1.67,4.246,2.581,2.581,0,0,0,2.272,2.839,2.58,2.58,0,0,0,2.273,2.839,2.589,2.589,0,0,0,4.19,2.291l1.612-1.29a2.593,2.593,0,0,0,.349-.337l.921.735a2.587,2.587,0,0,0,4.155-1.523,2.573,2.573,0,0,0,.843.141,2.657,2.657,0,0,0,.293-.016,2.583,2.583,0,0,0,2.287-2.841,2.578,2.578,0,0,0,2.272-2.838,2.588,2.588,0,0,0,1.671-4.246,3.6,3.6,0,0,1,1.433-1.093l.218.386a1.931,1.931,0,0,0,2.607.728l2.061-1.142a1.917,1.917,0,0,0,.734-2.616ZM4.31,131.052a.39.39,0,0,1-.522.14l-2.062-1.142a.362.362,0,0,1-.171-.22.378.378,0,0,1,.035-.291l5.944-10.511a.376.376,0,0,1,.329-.188.4.4,0,0,1,.192.05l2.062,1.142h0a.361.361,0,0,1,.171.219.376.376,0,0,1-.035.289Zm5.617,3.961a1.048,1.048,0,0,1-1.31-1.636l2.882-2.3a1.052,1.052,0,0,1,1.476.165,1.048,1.048,0,0,1-.164,1.469l-.013.012-2.87,2.293Zm.8,2.674a1.051,1.051,0,0,1,.164-1.472h0l4.151-3.317a1.052,1.052,0,0,1,1.476.165,1.052,1.052,0,0,1-.165,1.473l-4.15,3.315a1.052,1.052,0,0,1-1.477-.164Zm2.976,3.225a1.047,1.047,0,0,1-.539-1.858h0l2.873-2.295.01-.008a1.052,1.052,0,0,1,1.475.163,1.051,1.051,0,0,1-.165,1.473l-2.882,2.3A1.045,1.045,0,0,1,13.7,140.912Zm5.043.625a1.039,1.039,0,0,1-.386.7l-1.612,1.29a1.052,1.052,0,0,1-1.477-.164,1.051,1.051,0,0,1,.163-1.471h0l1.611-1.288,0,0a1.052,1.052,0,0,1,1.476.165A1.037,1.037,0,0,1,18.744,141.536Zm12.215-6.687a1.055,1.055,0,0,1-1.475.163h0l-2.06-1.646a.77.77,0,1,0-.961,1.2l2.059,1.645a1.048,1.048,0,1,1-1.31,1.635l-2.234-1.783a.77.77,0,0,0-.96,1.2l2.233,1.782a1.049,1.049,0,0,1-1.312,1.638l-1.112-.889-.006,0-.939-.751-.176-.14a.77.77,0,0,0-.962,1.2l1.118.894a1.049,1.049,0,0,1-1.313,1.635l-1.268-1.013a2.576,2.576,0,0,0-1.48-2.544,2.583,2.583,0,0,0-1-3.853,2.588,2.588,0,0,0-3.115-3.891,2.567,2.567,0,0,0-.506-1.059,2.594,2.594,0,0,0-3.639-.406l-2.061,1.648a5.072,5.072,0,0,0-1.849-1.44l4.24-7.5,2.257.654a2.518,2.518,0,0,0,.063.382c.546,2.247,2.615,3.294,5.4,2.733,2.346-.472,3.311.231,5.234,1.632.2.145.407.3.624.452,1.383.992,2.861,2.159,3.852,2.949l2.5,2a1.051,1.051,0,0,1,.163,1.472Zm-.024-3.332-1.677-1.34c-1-.8-2.5-1.984-3.916-3-.214-.153-.418-.3-.615-.445-1.994-1.452-3.435-2.5-6.444-1.9-.921.186-3.115.4-3.6-1.587-.068-.281,0-.377.031-.419.1-.143.517-.493,2.137-.636l3.438-.308a3.153,3.153,0,0,1,1.7.222l2.014.7c.224.078.4.146.561.206a2.95,2.95,0,0,0,2.5,0l1.485-.43,4.234,7.489A5.058,5.058,0,0,0,30.935,131.518Z" transform="translate(0 -110.658)" fill="#253150"/>
          <path id="Trazado_3624" data-name="Trazado 3624" d="M451.34,193.125a.77.77,0,1,0-.77-.771v0A.769.769,0,0,0,451.34,193.125Z" transform="translate(-415.886 -179.223)" fill="#253150"/>
        </g>
      </g>
    </g>
  </g>
</svg>
