<?xml version="1.0" encoding="UTF-8" standalone="no"?>
<svg
   xmlns:dc="http://purl.org/dc/elements/1.1/"
   xmlns:cc="http://creativecommons.org/ns#"
   xmlns:rdf="http://www.w3.org/1999/02/22-rdf-syntax-ns#"
   xmlns:svg="http://www.w3.org/2000/svg"
   xmlns="http://www.w3.org/2000/svg"
   xmlns:sodipodi="http://sodipodi.sourceforge.net/DTD/sodipodi-0.dtd"
   xmlns:inkscape="http://www.inkscape.org/namespaces/inkscape"
   width="10.793941mm"
   height="11.496868mm"
   viewBox="0 0 10.793941 11.496868"
   version="1.1"
   id="svg101"
   sodipodi:docname="sentido-1.svg"
   inkscape:version="1.0.2-2 (e86c870879, 2021-01-15)">
  <defs
     id="defs95" />
  <sodipodi:namedview
     id="base"
     pagecolor="#ffffff"
     bordercolor="#666666"
     borderopacity="1.0"
     inkscape:pageopacity="0.0"
     inkscape:pageshadow="2"
     inkscape:zoom="0.98994949"
     inkscape:cx="-46.263708"
     inkscape:cy="238.92453"
     inkscape:document-units="mm"
     inkscape:current-layer="Grupo_5876"
     inkscape:document-rotation="0"
     showgrid="false"
     inkscape:window-width="1258"
     inkscape:window-height="1040"
     inkscape:window-x="1926"
     inkscape:window-y="9"
     inkscape:window-maximized="0"
     fit-margin-top="0"
     fit-margin-left="0"
     fit-margin-right="0"
     fit-margin-bottom="0" />
  <metadata
     id="metadata98">
    <rdf:RDF>
      <cc:Work
         rdf:about="">
        <dc:format>image/svg+xml</dc:format>
        <dc:type
           rdf:resource="http://purl.org/dc/dcmitype/StillImage" />
        <dc:title></dc:title>
      </cc:Work>
    </rdf:RDF>
  </metadata>
  <g
     inkscape:label="Capa 1"
     inkscape:groupmode="layer"
     id="layer1"
     transform="translate(-145.61031,-70.95792)">
    <g
       id="Grupo_5876"
       data-name="Grupo 5876"
       transform="matrix(0.26458333,0,0,0.26458333,-144.4247,-401.21104)">
      <g
         id="Grupo_2826"
         data-name="Grupo 2826"
         transform="translate(-28.804664,-37.42665)">
        <circle
           id="Elipse_260"
           data-name="Elipse 260"
           cx="18.423"
           cy="18.423"
           r="18.423"
           transform="translate(1125,1823.316)"
           fill="rgba(176,182,186,0.2)" />
        <g
           id="Capa_2"
           data-name="Capa 2"
           transform="translate(1126.44,1822)">
          <g
             id="Capa_1"
             data-name="Capa 1">
            <path
               id="Trazado_2852"
               data-name="Trazado 2852"
               d="m 22.229,39.43 c 0,0 1.32,8.313 9.825,8.313 H 22.5 L 21.562,46.805 V 39.43 Z"
               transform="translate(-2.829,-5.161)"
               fill="#bd0f14" />
            <path
               id="Trazado_2853"
               data-name="Trazado 2853"
               d="M 17.681,43.175 H 13.65 l 0.5,-14.255 1.407,-1.26 1.277,0.66 0.417,0.877 z"
               transform="translate(-1.79,-3.616)"
               fill="#bd0f14" />
            <path
               id="Trazado_2854"
               data-name="Trazado 2854"
               d="M 24.323,22.071 21.074,20.846 19.215,18.987 A 0.66,0.66 0 0 0 18.781,18.796 V 17.25 a 6.8,6.8 0 0 0 1.737,-3.475 v 0 a 2.337,2.337 0 0 0 0.486,0 1.955,1.955 0 0 0 1.5,-1.937 V 11.352 A 1.972,1.972 0 0 0 21.913,9.945 c 0.6,-3.214 0.113,-5.829 -1.4,-7.584 C 19,0.606 16.722,-0.141 13.734,0 A 8.948,8.948 0 0 0 8.6,1.917 C 7.818,2.017 5.629,2.603 5.629,5.652 a 16.9,16.9 0 0 0 0.452,3.9 1.946,1.946 0 0 0 -1.095,1.738 v 0.478 a 1.955,1.955 0 0 0 1.5,1.937 2.371,2.371 0 0 0 0.5,0 v 0 A 6.75,6.75 0 0 0 8.721,17.18 V 18.7 A 0.66,0.66 0 0 0 8.278,18.891 L 6.454,20.846 2.806,22.253 A 4.4,4.4 0 0 0 0,26.493 l 0.521,12.926 a 0.643,0.643 0 0 0 0.634,0.617 v 0 A 0.634,0.634 0 0 0 1.763,39.367 L 1.277,26.44 a 2.9,2.9 0 0 1 0.122,-0.99 l 2.076,2.059 a 3.093,3.093 0 0 1 0.869,2.206 v 9.677 a 0.634,0.634 0 0 0 1.268,0 v -9.677 a 4.343,4.343 0 0 0 -1.268,-3.1 L 2.032,24.321 a 3.214,3.214 0 0 1 1.234,-0.869 l 3.405,-1.312 2.606,3.9 a 1.894,1.894 0 0 0 1.39,0.825 h 0.182 a 1.937,1.937 0 0 0 0.982,-0.269 l -0.539,12.77 a 0.634,0.634 0 0 0 0.608,0.669 v 0 a 0.643,0.643 0 0 0 0.634,-0.608 l 0.5,-11.884 h 1.451 l 0.513,11.884 a 0.643,0.643 0 0 0 0.634,0.608 v 0 a 0.643,0.643 0 0 0 0.608,-0.669 l -0.513,-12.8 a 1.885,1.885 0 0 0 0.973,0.269 h 0.191 A 1.876,1.876 0 0 0 18.242,26 l 2.606,-3.9 3,1.155 a 0.5,0.5 0 0 0 0.226,0.043 0.634,0.634 0 0 0 0.252,-1.225 z M 8.252,13.558 a 1.277,1.277 0 0 0 -1.3,-1.042 0.53,0.53 0 0 1 -0.165,0 0.678,0.678 0 0 1 -0.5,-0.686 v -0.478 a 0.669,0.669 0 0 1 0.5,-0.669 0.625,0.625 0 0 1 0.6,0.235 0.891,0.891 0 0 0 1.234,0.191 4.8,4.8 0 0 0 1.3,-1.373 A 0.634,0.634 0 0 0 9.73,8.867 0.625,0.625 0 0 0 8.861,9.067 3.57,3.57 0 0 1 8.149,9.884 1.79,1.79 0 0 0 7.402,9.484 15.636,15.636 0 0 1 6.923,5.67 2.363,2.363 0 0 1 7.818,3.47 2.18,2.18 0 0 1 8.834,3.149 0.617,0.617 0 0 0 9.268,2.967 a 7.61,7.61 0 0 1 4.5,-1.694 c 2.606,-0.148 4.578,0.513 5.768,1.885 1.19,1.372 1.608,3.542 1.164,6.221 a 3.075,3.075 0 0 0 -0.617,0 L 19.45,7.85 A 0.634,0.634 0 0 0 18.703,7.476 c -0.061,0 -6.246,1.6 -8.852,-1.651 a 0.643,0.643 0 0 0 -0.869,-0.1 0.634,0.634 0 0 0 -0.1,0.869 c 2.606,3.292 7.914,2.554 9.625,2.206 L 19,10 a 1.068,1.068 0 0 0 1.234,0.634 1.225,1.225 0 0 1 0.513,0 0.66,0.66 0 0 1 0.5,0.652 v 0.486 a 0.669,0.669 0 0 1 -0.5,0.686 0.512,0.512 0 0 1 -0.165,0 1.268,1.268 0 0 0 -1.306,1.042 5.612,5.612 0 0 1 -11.032,0 z m 3.04,11.823 a 0.608,0.608 0 0 1 -0.947,-0.1 l -2.605,-3.914 1.086,-1.086 4.039,3.536 z m 1.833,0.869 0.043,-0.964 0.625,-0.625 0.625,0.625 v 0.964 z m 0.669,-3.336 -3.744,-3.275 v -1.32 a 6.889,6.889 0 0 0 7.479,0 v 1.346 z m 3.475,2.345 a 0.608,0.608 0 0 1 -0.947,0.1 l -1.564,-1.564 4.042,-3.54 1.086,1.086 z"
               transform="translate(0.002,0.019)"
               fill="#253150" />
            <path
               id="Trazado_2855"
               data-name="Trazado 2855"
               d="M 42.024,33.472 A 2.684,2.684 0 0 0 39.348,30.8 h -4.126 v -1.4 a 2,2 0 0 0 -1.989,-2 H 29.15 a 2,2 0 0 0 -2,2 v 1.4 h -4.124 a 2.684,2.684 0 0 0 -2.676,2.676 v 1.894 a 3.318,3.318 0 0 0 0.686,1.981 v 7.08 a 2.606,2.606 0 0 0 2.606,2.606 h 15.1 a 2.606,2.606 0 0 0 2.606,-2.606 v -7.08 A 3.371,3.371 0 0 0 42.026,35.37 Z M 28.429,29.4 v 0 a 0.73,0.73 0 0 1 0.721,-0.73 h 4.083 a 0.73,0.73 0 0 1 0.721,0.73 v 1.4 h -5.525 z m 12.327,5.968 c 0,1.095 -1.034,2.172 -2.806,2.98 v -0.113 a 0.643,0.643 0 0 0 -0.643,-0.634 h -2.719 a 0.634,0.634 0 0 0 -0.634,0.634 v 2.041 a 2,2 0 1 0 4,0 v -0.539 a 9.981,9.981 0 0 0 2.128,-1.147 v 5.838 a 1.338,1.338 0 0 1 -1.338,1.338 h -15.1 A 1.338,1.338 0 0 1 22.3,44.426 v -5.837 a 9.981,9.981 0 0 0 2.128,1.147 v 0.539 a 2,2 0 0 0 3.944,0.452 21.284,21.284 0 0 0 2.815,0.182 h 0.695 a 0.634,0.634 0 1 0 0,-1.268 h -0.66 A 19.112,19.112 0 0 1 28.46,39.45 v -1.217 a 0.643,0.643 0 0 0 -0.643,-0.634 h -2.75 a 0.634,0.634 0 0 0 -0.634,0.634 v 0.113 c -1.737,-0.808 -2.806,-1.885 -2.806,-2.98 v -1.894 a 1.4,1.4 0 0 1 1.4,-1.4 h 16.321 a 1.407,1.407 0 0 1 1.407,1.4 z m -4.083,3.475 v 1.4 a 0.73,0.73 0 0 1 -0.721,0.73 0.738,0.738 0 0 1 -0.73,-0.73 V 38.875 Z M 25.71,40.274 v -1.4 h 1.442 v 1.4 a 0.721,0.721 0 1 1 -1.442,0 z"
               transform="translate(-2.67,-3.582)"
               fill="#253150" />
          </g>
        </g>
      </g>
    </g>
  </g>
</svg>
