<svg xmlns="http://www.w3.org/2000/svg" width="36.457" height="35.112" viewBox="0 0 36.457 35.112">
  <g id="Grupo_9542" data-name="Grupo 9542" transform="translate(-1135.098 -1640)">
    <circle id="Elipse_361" data-name="Elipse 361" cx="13" cy="13" r="13" transform="translate(1135.098 1649.111)" fill="rgba(176,182,186,0.2)"/>
    <g id="Capa_2" data-name="Capa 2" transform="translate(1140.664 1640.01)">
      <g id="Capa_1" data-name="Capa 1" transform="translate(0.03 -0.01)">
        <path id="Trazado_8830" data-name="Trazado 8830" d="M16.505,8.7s-2.494,8.95,7.234,13.385V22.7h-2l-2.2-1-1.317-.808-1-.8-1-1.142-.768-1.232-.639-1.5L14.4,14.4V12.491l.339-1.611.723-1.651Z" transform="translate(-7.231 -4.355)" fill="#bd0f14"/>
        <path id="Trazado_8831" data-name="Trazado 8831" d="M46.6,18.423a2.39,2.39,0,0,0-3.372.264,2.365,2.365,0,0,0-.569,1.551v4.754a2.3,2.3,0,0,0-.5-.11,2.365,2.365,0,0,0-1.936.678l-5.847,5.832a4.305,4.305,0,0,0-1.262,3.063v3.682a.788.788,0,0,0,1.576,0v-3.7a2.739,2.739,0,0,1,.793-1.961l5.822-5.827a.815.815,0,0,1,1.152,1.152l-3.372,3.377a.788.788,0,1,0,1.122,1.107L43.576,28.9a2.37,2.37,0,0,0,.7-1.806.12.12,0,0,0,0-.06l-.05-6.82a.828.828,0,0,1,1.656,0v8.845a3.357,3.357,0,0,1-1,2.375L40.2,36.123a.768.768,0,0,0-.234.554v1.442a.788.788,0,1,0,1.576,0V37l4.49-4.46a4.889,4.889,0,0,0,1.442-3.467v-8.85a2.38,2.38,0,0,0-.868-1.8Z" transform="translate(-16.612 -8.939)" fill="#253150"/>
        <path id="Trazado_8832" data-name="Trazado 8832" d="M5.927,36.982V38.1a.788.788,0,1,0,1.571,0V36.657a.773.773,0,0,0-.239-.554L2.569,31.414a3.332,3.332,0,0,1-1-2.375V20.2a.823.823,0,0,1,.843-.8h.12a.823.823,0,0,1,.693.813l-.04,6.82h0a2.35,2.35,0,0,0,.693,1.846l3.377,3.382A.783.783,0,1,0,8.4,31.185l-.03-.03L5,27.787a.813.813,0,1,1,1.147-1.152l5.837,5.827a2.749,2.749,0,0,1,.813,1.956V38.1a.788.788,0,1,0,1.576,0V34.422a4.315,4.315,0,0,0-1.272-3.048L7.259,25.528a2.385,2.385,0,0,0-1.941-.678,2.245,2.245,0,0,0-.5.11V20.2a2.395,2.395,0,0,0-4.789,0V29.04a4.889,4.889,0,0,0,1.442,3.492Z" transform="translate(-0.03 -8.92)" fill="#253150"/>
        <path id="Trazado_8833" data-name="Trazado 8833" d="M28.283,11.86h0c-1.457-.334-1.457-.943-1.457-1.132a1.162,1.162,0,0,1,1.282-1.112A1.282,1.282,0,0,1,29.3,10.4a.789.789,0,1,0,1.5-.5,1,1,0,0,0-.05-.13,2.864,2.864,0,0,0-1.851-1.641V7.475a.788.788,0,1,0-1.571,0h0v.664a2.639,2.639,0,0,0-2.07,2.584c0,.763.344,2.115,2.649,2.649h.025c1.457.334,1.457.948,1.457,1.132a1.162,1.162,0,0,1-1.287,1.112,1.272,1.272,0,0,1-1.167-.783.784.784,0,1,0-1.472.544.3.3,0,0,0,0,.06A2.829,2.829,0,0,0,27.3,17.079v.708a.788.788,0,0,0,1.576,0V17.1a2.644,2.644,0,0,0,2.06-2.579C30.932,13.756,30.613,12.4,28.283,11.86Z" transform="translate(-12.668 -3.315)" fill="#253150"/>
        <path id="Trazado_8834" data-name="Trazado 8834" d="M30.878,9.3A9.3,9.3,0,1,0,21.569,18.6h0A9.309,9.309,0,0,0,30.878,9.3Zm-9.3,7.723a7.738,7.738,0,1,1,7.733-7.734v0a7.738,7.738,0,0,1-7.733,7.733Z" transform="translate(-6.164 0.01)" fill="#253150"/>
      </g>
    </g>
  </g>
</svg>
