<svg xmlns="http://www.w3.org/2000/svg" width="36.988" height="30.988" viewBox="0 0 36.988 30.988">
  <g id="Grupo_9545" data-name="Grupo 9545" transform="translate(-1134.564 -1847.006)">
    <circle id="Elipse_363" data-name="Elipse 363" cx="13" cy="13" r="13" transform="translate(1134.564 1848.684)" fill="rgba(176,182,186,0.2)"/>
    <g id="Capa_2" data-name="Capa 2" transform="translate(1140.564 1847.006)">
      <g id="Capa_1" data-name="Capa 1" transform="translate(0 0)">
        <path id="Trazado_8839" data-name="Trazado 8839" d="M30.217,50.662c-.294,0-.537-.084-.537-.192V41.522c0-.1.243-.192.537-.192s.537.089.537.192v8.949C30.764,50.578,30.516,50.662,30.217,50.662Z" transform="translate(-15.81 -22.016)" fill="#253150"/>
        <path id="Trazado_8840" data-name="Trazado 8840" d="M6.688,32.69S6.66,45.63,14.852,45.63H6.66Z" transform="translate(-3.548 -17.413)" fill="#bd0f14"/>
        <path id="Trazado_8841" data-name="Trazado 8841" d="M31.31,31.31H5V5H31.31ZM6.08,30.235H30.235V6.08H6.08Z" transform="translate(-2.663 -2.663)" fill="#253150"/>
        <path id="Trazado_8842" data-name="Trazado 8842" d="M28.693,30.988H2.295A2.3,2.3,0,0,1,0,28.693V2.295A2.3,2.3,0,0,1,2.295,0h26.4a2.3,2.3,0,0,1,2.295,2.295v26.4A2.3,2.3,0,0,1,28.693,30.988ZM2.295,1.075a1.22,1.22,0,0,0-1.22,1.22v26.4a1.22,1.22,0,0,0,1.22,1.215h26.4a1.22,1.22,0,0,0,1.215-1.215V2.295a1.22,1.22,0,0,0-1.215-1.22Z" transform="translate(0 0)" fill="#253150"/>
        <path id="Trazado_8843" data-name="Trazado 8843" d="M30.217,13.352c-.294,0-.537-.075-.537-.168V5.178c0-.093.243-.168.537-.168s.547.075.547.168v8.005C30.764,13.277,30.516,13.352,30.217,13.352Z" transform="translate(-15.81 -2.669)" fill="#253150"/>
        <path id="Trazado_8844" data-name="Trazado 8844" d="M34.867,11.482c-.3,0-.537-.056-.537-.131V5.141c0-.075.238-.131.537-.131s.537.056.537.131v7.342C35.4,12.562,35.162,11.482,34.867,11.482Z" transform="translate(-18.287 -2.669)" fill="#253150"/>
        <path id="Trazado_8845" data-name="Trazado 8845" d="M34.867,52.484c-.3,0-.537-.07-.537-.159V44.9c0-.084.238-.154.537-.154s.537.07.537.154v7.44C35.4,52.414,35.162,52.484,34.867,52.484Z" transform="translate(-18.287 -23.838)" fill="#253150"/>
        <path id="Trazado_8846" data-name="Trazado 8846" d="M32.852,22.4H31.6l-2.552-3.785,4.108-3.5a.466.466,0,0,0-.6-.71l-5.846,4.977V16.242l.855-3.08a.467.467,0,1,0-.9-.252l-.846,3.028-.467.519L22.7,12.065a.478.478,0,0,0-.822.486l.883,1.463a.565.565,0,0,0-.093.14l-1.3,3.271-3.271-1.4-2.9-3.271a.467.467,0,1,0-.7.622l7.1,7.949-1.509,1.126-1.79.593V22l-3.117-2.939a.467.467,0,0,0-.64.678l2.8,2.664v1.935l2.8-.935,1.4,1.491-1.229.935-.023.023a.4.4,0,0,0-.028.075l-2.8,3.08a.474.474,0,0,0,.71.626l2.664-2.953h1.047l.762,4.7a.467.467,0,0,0,.467.393h.075a.467.467,0,0,0,.388-.537l-.794-4.9,2.972-3.154a.467.467,0,0,0-.678-.64l-2.215,2.337L20.991,22.92l1.967-1.463-3.388-3.813,2.295,1,1.472-3.673,1.832,3.019.6-.64v4.047l2.556-2.173,2.393,3.542-2.257,1.79L28.211,24a.467.467,0,1,0-.846.4l.78,1.664-2.1,1.682-2.9-1.622,1.122,2.337.706,2.285a.471.471,0,1,0,.907-.257l-.659-2.136.935.519,2.421-1.939.575,1.248a.467.467,0,0,0,.425.266.5.5,0,0,0,.2-.042.467.467,0,0,0,.2-.6l-.79-1.682v-.935l2.337-1.846h1.337a.467.467,0,1,0,0-.935ZM22.1,25.724h-.042l.14-.107Z" transform="translate(-7.649 -6.303)" fill="#bd0f14"/>
      </g>
    </g>
  </g>
</svg>
