<svg xmlns="http://www.w3.org/2000/svg" width="36.456" height="39.747" viewBox="0 0 36.456 39.747">
  <g id="Grupo_9543" data-name="Grupo 9543" transform="translate(-1135.098 -1705.627)">
    <circle id="Elipse_360" data-name="Elipse 360" cx="13" cy="13" r="13" transform="translate(1135.098 1717.627)" fill="rgba(176,182,186,0.2)"/>
    <g id="Capa_2" data-name="Capa 2" transform="translate(1138.492 1705.627)">
      <g id="Capa_1" data-name="Capa 1" transform="translate(0 0)">
        <path id="Trazado_8811" data-name="Trazado 8811" d="M31.87,29.36s-.03,11.814,7.454,11.814H31.84Z" transform="translate(-18.255 -16.833)" fill="#bd0f14"/>
        <path id="Trazado_8812" data-name="Trazado 8812" d="M38.486,15.513a.563.563,0,0,0-1.126,0v.572a.563.563,0,0,0,1.126,0Z" transform="translate(-21.42 -8.572)" fill="#253150"/>
        <path id="Trazado_8813" data-name="Trazado 8813" d="M45.959,15.447a.563.563,0,1,0-1.122,0v.572a.563.563,0,0,0,1.122,0Z" transform="translate(-25.706 -8.506)" fill="#253150"/>
        <path id="Trazado_8814" data-name="Trazado 8814" d="M53.486,15.513a.563.563,0,1,0-1.126,0v.572a.563.563,0,0,0,1.126,0Z" transform="translate(-30.02 -8.572)" fill="#253150"/>
        <path id="Trazado_8815" data-name="Trazado 8815" d="M60.916,15.513a.563.563,0,1,0-1.126,0v.572a.563.563,0,1,0,1.126,0Z" transform="translate(-34.28 -8.572)" fill="#253150"/>
        <path id="Trazado_8816" data-name="Trazado 8816" d="M38.486,22.933a.563.563,0,1,0-1.126,0v.559a.563.563,0,0,0,1.126,0Z" transform="translate(-21.42 -12.826)" fill="#253150"/>
        <path id="Trazado_8817" data-name="Trazado 8817" d="M45.959,23a.563.563,0,0,0-1.122,0v.559a.563.563,0,1,0,1.122,0Z" transform="translate(-25.706 -12.892)" fill="#253150"/>
        <path id="Trazado_8818" data-name="Trazado 8818" d="M53.486,22.933a.563.563,0,1,0-1.126,0v.559a.563.563,0,0,0,1.126,0Z" transform="translate(-30.02 -12.826)" fill="#253150"/>
        <path id="Trazado_8819" data-name="Trazado 8819" d="M60.916,22.933a.563.563,0,1,0-1.126,0v.559a.563.563,0,1,0,1.126,0Z" transform="translate(-34.28 -12.826)" fill="#253150"/>
        <path id="Trazado_8820" data-name="Trazado 8820" d="M38.486,30.363a.563.563,0,0,0-1.126,0v.572a.563.563,0,1,0,1.126,0Z" transform="translate(-21.42 -17.086)" fill="#253150"/>
        <path id="Trazado_8821" data-name="Trazado 8821" d="M45.959,30.3a.563.563,0,1,0-1.122,0v.572a.563.563,0,1,0,1.122,0Z" transform="translate(-25.706 -17.02)" fill="#253150"/>
        <path id="Trazado_8822" data-name="Trazado 8822" d="M53.486,30.363a.563.563,0,1,0-1.126,0v.572a.563.563,0,1,0,1.126,0Z" transform="translate(-30.02 -17.086)" fill="#253150"/>
        <path id="Trazado_8823" data-name="Trazado 8823" d="M60.916,30.363a.563.563,0,1,0-1.126,0v.572a.563.563,0,1,0,1.126,0Z" transform="translate(-34.28 -17.086)" fill="#253150"/>
        <path id="Trazado_8824" data-name="Trazado 8824" d="M37.923,37.23a.563.563,0,0,0-.563.563v.572a.563.563,0,0,0,1.126,0v-.572A.563.563,0,0,0,37.923,37.23Z" transform="translate(-21.42 -21.346)" fill="#253150"/>
        <path id="Trazado_8825" data-name="Trazado 8825" d="M45.4,37.23a.563.563,0,0,0-.559.563v.572a.563.563,0,1,0,1.122,0v-.572a.563.563,0,0,0-.563-.563Z" transform="translate(-25.706 -21.346)" fill="#253150"/>
        <path id="Trazado_8826" data-name="Trazado 8826" d="M52.873,37.23a.563.563,0,0,0-.563.563v.572a.563.563,0,0,0,1.126,0v-.572A.563.563,0,0,0,52.873,37.23Z" transform="translate(-29.992 -21.346)" fill="#253150"/>
        <path id="Trazado_8827" data-name="Trazado 8827" d="M60.353,37.23a.563.563,0,0,0-.563.563v.572a.563.563,0,0,0,1.126,0v-.572a.563.563,0,0,0-.563-.563Z" transform="translate(-34.28 -21.346)" fill="#253150"/>
        <path id="Trazado_8828" data-name="Trazado 8828" d="M12.527,39.734l1.668-3.307a.917.917,0,0,0-.081-1.015l.742-1.331a1.207,1.207,0,0,0-.209-1.455,2.73,2.73,0,0,1,2.867-.657l3.076.853h.026a4.395,4.395,0,0,0,3.349-.567l1.886-1.092a.563.563,0,1,0-.563-.973l-1.928,1.118a3.234,3.234,0,0,1-2.483.427l-3.063-.853a3.734,3.734,0,0,0-4.1,1.114L9.25,29.166a12.68,12.68,0,0,1,3.661-3.272c1.28-.734,1.707-.806,4.531-1.122a2.859,2.859,0,0,1,.823.034c.666.115,1.749.427,4.207,1.131a.853.853,0,0,1,.683,1.071.589.589,0,0,1-.708.521l-3.814-.495a.568.568,0,1,0-.145,1.126l3.81.495a1.707,1.707,0,0,0,1.877-1.118c6.174-2.56,5.948-2.483,6.007-2.517.734-.38,1.28-.3,1.6.226.427.785-.333,1.374-.525,1.506l-3.695,2.133a.566.566,0,1,0,.563.981l3.712-2.133h.026a2.225,2.225,0,0,0,.887-3.025h0A2.122,2.122,0,0,0,29.832,24V14.933a.563.563,0,1,0-1.122,0v9.485l-3.494,1.455V20.6a1.165,1.165,0,0,0-1.165-1.165H18.5a1.165,1.165,0,0,0-1.16,1.165v3.046h-.021a19.242,19.242,0,0,0-3.447.55V4.177H28.7v8.106a.563.563,0,1,0,1.122,0V4.121a1.361,1.361,0,0,0,.99-1.306V1.361A1.37,1.37,0,0,0,29.439,0H13.124a1.361,1.361,0,0,0-1.361,1.361V2.816a1.361,1.361,0,0,0,.986,1.306V8.008a6.972,6.972,0,1,0,0,11.14v5.547A13.683,13.683,0,0,0,8.29,28.586h0a1.207,1.207,0,0,0-1.5.5L6,30.4l-.175.026a.93.93,0,0,0-.576.427L0,39.734H1.306l4.808-8.149.068.043,6.937,4.424-2,3.695m2.722-6.323a.085.085,0,0,1,.03.111l-.687,1.229L7.04,30.851l.717-1.2a.073.073,0,0,1,.051-.038.09.09,0,0,1,.064,0Zm8-12.859h2.2a.038.038,0,0,1,.038.038v5.286a2,2,0,0,0-1.318-1.037l-.922-.26Zm-3.366.038a.038.038,0,0,1,.038-.038h2.2v3.712c-1.075-.3-1.707-.474-2.163-.563H18.5ZM12.889,1.361a.235.235,0,0,1,.235-.235H29.439a.239.239,0,0,1,.239.235V2.816a.239.239,0,0,1-.239.235H13.124a.235.235,0,0,1-.235-.235V1.361ZM8.563,19.421A5.845,5.845,0,1,1,12.748,9.5v8.153a5.854,5.854,0,0,1-4.185,1.766Z" transform="translate(0 0)" fill="#253150"/>
        <path id="Trazado_8829" data-name="Trazado 8829" d="M17.153,25.061H16.3a.887.887,0,0,1,0-1.771h1.707a.4.4,0,0,0,0-.8h-.883v-.883a.4.4,0,1,0-.8,0v.883H16.3a1.685,1.685,0,0,0,0,3.371h.853a.887.887,0,1,1,0,1.771H15.442a.4.4,0,0,0,0,.8h.883v.883a.4.4,0,1,0,.8,0v-.883h.03a1.685,1.685,0,1,0,0-3.371Z" transform="translate(-8.377 -12.134)" fill="#bd0f14"/>
      </g>
    </g>
  </g>
</svg>
