<svg xmlns="http://www.w3.org/2000/svg" width="34.287" height="33.922" viewBox="0 0 34.287 33.922">
  <g id="Grupo_9544" data-name="Grupo 9544" transform="translate(-1135.098 -1777.539)">
    <circle id="Elipse_362" data-name="Elipse 362" cx="13" cy="13" r="13" transform="translate(1135.098 1785.461)" fill="rgba(176,182,186,0.2)"/>
    <g id="Capa_2" data-name="Capa 2" transform="translate(1142.602 1777.234)">
      <g id="Capa_1" data-name="Capa 1" transform="translate(0.258 0.305)">
        <path id="Trazado_8835" data-name="Trazado 8835" d="M39.826,24a.636.636,0,1,0,.636.636A.636.636,0,0,0,39.826,24Z" transform="translate(-19.554 -12.049)" fill="#bd0f14"/>
        <path id="Trazado_8836" data-name="Trazado 8836" d="M39.826,14.87a.636.636,0,0,0-.636.636v.055h0l.252,3.082h0a.378.378,0,0,0,.757,0h0l.257-3.082h0v-.055a.641.641,0,0,0-.63-.636Z" transform="translate(-19.554 -7.524)" fill="#bd0f14"/>
        <path id="Trazado_8837" data-name="Trazado 8837" d="M18.643,17.728a7.525,7.525,0,0,1-.953-.318l-.161-.066-.121.131a7.823,7.823,0,0,0-1.942,4.116h-9.2a7.888,7.888,0,0,0-2.1-4.292,9.215,9.215,0,0,1-2.577-6.416A9.311,9.311,0,0,1,10.75,1.609h.106a9.23,9.23,0,0,1,6.128,2.33l.126.111.151-.076a6.97,6.97,0,0,1,.938-.388l.393-.131-.308-.277A10.723,10.723,0,0,0,3.109,18.308a6.421,6.421,0,0,1,1.725,3.581A1.922,1.922,0,0,0,4.354,24.7,1.922,1.922,0,0,0,5.5,27.78a4.6,4.6,0,0,0,4.443,3.369h1.841a4.6,4.6,0,0,0,4.438-3.369,1.927,1.927,0,0,0,1.15-3.077,1.932,1.932,0,0,0-.479-2.814,6.39,6.39,0,0,1,1.71-3.581c.04-.035.071-.076.106-.111l.338-.373ZM14.664,27.815a3.183,3.183,0,0,1-2.88,1.876H9.943a3.2,3.2,0,0,1-2.885-1.876ZM5.857,25.43H15.864a.464.464,0,1,1,0,.928H5.857a.464.464,0,1,1,0-.928Zm10.007-1.458H5.857a.464.464,0,0,1,0-.923H15.864a.464.464,0,1,1,0,.923Z" transform="translate(-0.258 -0.305)" fill="#253150"/>
        <path id="Trazado_8838" data-name="Trazado 8838" d="M34.3,20.808a6.254,6.254,0,1,1,6.254-6.254A6.254,6.254,0,0,1,34.3,20.808Zm0-11.247A4.993,4.993,0,1,0,39.3,14.554,4.993,4.993,0,0,0,34.3,9.561Z" transform="translate(-14.033 -4.267)" fill="#bd0f14"/>
      </g>
    </g>
  </g>
</svg>
