<svg xmlns="http://www.w3.org/2000/svg" width="63" height="63" viewBox="0 0 63 63">
  <g id="Capa_2" data-name="Capa 2" transform="translate(0 3)">
    <g id="Capa_1" data-name="Capa 1" transform="translate(0 -3)">
      <path id="Trazado_7803" data-name="Trazado 7803" d="M13.883,41.5s-.053,21.018,13.26,21.018H13.83Z" transform="translate(-3.333 -10)" fill="#b0b6ba"/>
      <path id="Trazado_7804" data-name="Trazado 7804" d="M63,22.05V5.253A5.253,5.253,0,0,0,57.747,0H30.422A5.253,5.253,0,0,0,25.2,5.253v12.6H9.45A5.253,5.253,0,0,0,4.2,23.1V52.5H3.15A3.15,3.15,0,0,0,0,55.653v4.2A3.15,3.15,0,0,0,3.15,63h56.7A3.15,3.15,0,0,0,63,59.85v-4.2a3.15,3.15,0,0,0-3.15-3.15H58.8V27.2A5.253,5.253,0,0,0,63,22.05ZM27.325,5.253a3.142,3.142,0,0,1,3.15-3.15H57.8a3.142,3.142,0,0,1,3.15,3.15v16.8A3.15,3.15,0,0,1,57.8,25.2H43.728L34.62,32.464V25.2H30.453a3.15,3.15,0,0,1-3.127-3.15Zm3.127,22.073h2.095v9.511l11.924-9.511H52.5v25.2H39.971a3.15,3.15,0,0,0-2.626,1.366l-.85,1.29a1.063,1.063,0,0,1-.865.471H27.371a1.047,1.047,0,0,1-.873-.471l-.85-1.29a3.158,3.158,0,0,0-2.619-1.4H10.5V24.153H25.678A5.268,5.268,0,0,0,30.453,27.325ZM6.3,23.1a3.15,3.15,0,0,1,3.15-3.15H25.2v2.1H8.4V52.5H6.3ZM59.85,54.6A1.047,1.047,0,0,1,60.9,55.653v4.2A1.047,1.047,0,0,1,59.85,60.9H3.15A1.047,1.047,0,0,1,2.1,59.85v-4.2A1.047,1.047,0,0,1,3.15,54.6H23.029a1.047,1.047,0,0,1,.873.471l.85,1.283a3.158,3.158,0,0,0,2.619,1.4h8.258a3.15,3.15,0,0,0,2.626-1.4l.85-1.283a1.063,1.063,0,0,1,.865-.471ZM54.6,52.5V27.325h2.1v25.2Z" fill="#253150"/>
      <path id="Trazado_7805" data-name="Trazado 7805" d="M57.882,25.322A2.383,2.383,0,0,1,55.756,24L54.58,21.777l-.668,1.275-.061.1a2.11,2.11,0,0,1-1.723.835h0a2.345,2.345,0,0,1-1.617-.691,2.437,2.437,0,0,1-.706-1.723V11.454a2.345,2.345,0,0,1,3.841-1.822l5.146,3.833a.781.781,0,0,1-.934,1.252L52.7,10.87H52.66a.759.759,0,0,0-1.29.584v10.11a.858.858,0,0,0,.759.865h0a.622.622,0,0,0,.4-.152l1.321-2.52a.759.759,0,0,1,.683-.417h0a.759.759,0,0,1,.691.417L57.138,23.3h0a.8.8,0,1,0,1.45-.676l-1.905-3.363a.759.759,0,0,1,.676-1.169h2.679a.759.759,0,0,0,.683-.486.8.8,0,0,0-.152-.85.779.779,0,1,1,1.154-1.047,2.353,2.353,0,0,1-1.617,3.97H58.717l1.26,2.239v.046a2.368,2.368,0,0,1,.1,1.822,2.33,2.33,0,0,1-1.23,1.343A2.277,2.277,0,0,1,57.882,25.322Zm-7.2-16.934A.759.759,0,0,0,51,7.356l-.66-1.214a.785.785,0,1,0-1.374.759l.668,1.214a.715.715,0,0,0,1.055.273Zm-1.647,1.776a.759.759,0,0,0-.4-1.025l-1.252-.547a.778.778,0,0,0-.622,1.427l1.245.547a.777.777,0,0,0,1.032-.4ZM53.9,7.644l.433-1.29a.769.769,0,1,0-1.45-.516L52.455,7.12a.759.759,0,0,0,.433.994.956.956,0,0,0,.25.038A.759.759,0,0,0,53.9,7.644Zm2.072,1.989,1.055-.759a.8.8,0,0,0-.934-1.29l-1.055.759a.759.759,0,0,0,.463,1.412A.827.827,0,0,0,55.976,9.633ZM47.437,14.02l1.177-.471a.782.782,0,0,0-.584-1.45l-1.169.463a.773.773,0,0,0,.288,1.518A.759.759,0,0,0,47.437,14.02Z" transform="translate(-11.14 -1.283)" fill="#bd0f14"/>
    </g>
  </g>
</svg>
