<svg xmlns="http://www.w3.org/2000/svg" width="33.152" height="31.092" viewBox="0 0 33.152 31.092">
  <g id="Grupo_9637" data-name="Grupo 9637" transform="translate(-37.391 -21)">
    <g id="Grupo_60" data-name="Grupo 60" transform="translate(44 21)">
      <g id="Grupo_59" data-name="Grupo 59" transform="translate(0)">
        <rect id="Rect치ngulo_427" data-name="Rect치ngulo 427" width="24.501" height="3.5" rx="1.414" transform="translate(2.475 0) rotate(45)" fill="#333"/>
        <rect id="Rect치ngulo_428" data-name="Rect치ngulo 428" width="24.501" height="3.5" rx="1.414" transform="translate(0 17.325) rotate(-45)" fill="#333"/>
      </g>
    </g>
    <path id="Text_State" data-name="Text State" d="M5.423-2.158l.009.026A2.057,2.057,0,0,1,4.814-.472a2.619,2.619,0,0,1-1.8.565A2.562,2.562,0,0,1,1.11-.633a2.58,2.58,0,0,1-.719-1.9V-3.867a2.637,2.637,0,0,1,.692-1.9,2.409,2.409,0,0,1,1.83-.727A2.821,2.821,0,0,1,4.8-5.924a2,2,0,0,1,.648,1.648l-.013.026H3.986a1.176,1.176,0,0,0-.25-.844,1.118,1.118,0,0,0-.822-.255.869.869,0,0,0-.769.4,1.9,1.9,0,0,0-.268,1.07v1.345a1.79,1.79,0,0,0,.294,1.077.981.981,0,0,0,.844.4.94.94,0,0,0,.736-.255,1.278,1.278,0,0,0,.226-.853Zm4.57-.58H7.739v1.6h2.7V0H6.253V-6.4h4.192v1.143H7.739V-3.88H9.993Zm2.769.286V0H11.276V-6.4H13.5a2.766,2.766,0,0,1,1.762.514,1.7,1.7,0,0,1,.65,1.406,1.4,1.4,0,0,1-.261.853,1.854,1.854,0,0,1-.771.58,1.432,1.432,0,0,1,.846.556,1.721,1.721,0,0,1,.257.969v.4a2.551,2.551,0,0,0,.075.571.756.756,0,0,0,.259.457V0H14.788a.719.719,0,0,1-.229-.479,4.258,4.258,0,0,1-.053-.646v-.387a.946.946,0,0,0-.242-.7.959.959,0,0,0-.708-.242Zm0-1.143h.751a1.022,1.022,0,0,0,.686-.2.732.732,0,0,0,.237-.587.844.844,0,0,0-.244-.631.94.94,0,0,0-.688-.24h-.743ZM18.5-2.452V0H17.016V-6.4h2.228a2.766,2.766,0,0,1,1.762.514,1.7,1.7,0,0,1,.65,1.406,1.4,1.4,0,0,1-.261.853,1.854,1.854,0,0,1-.771.58,1.432,1.432,0,0,1,.846.556,1.721,1.721,0,0,1,.257.969v.4a2.551,2.551,0,0,0,.075.571.756.756,0,0,0,.259.457V0H20.527A.719.719,0,0,1,20.3-.479a4.258,4.258,0,0,1-.053-.646v-.387A.946.946,0,0,0,20-2.21a.959.959,0,0,0-.708-.242Zm0-1.143h.751a1.022,1.022,0,0,0,.686-.2.732.732,0,0,0,.237-.587.844.844,0,0,0-.244-.631.94.94,0,0,0-.688-.24H18.5Zm7.6,2.351H24.2L23.832,0H22.267l2.087-6.4h.8v0l0,0h.8L28.042,0H26.477Zm-1.56-1.143h1.217l-.6-1.986s.129-.5-.026,0S24.543-2.386,24.543-2.386Zm5.44-.066V0H28.5V-6.4h2.228a2.766,2.766,0,0,1,1.762.514,1.7,1.7,0,0,1,.65,1.406,1.4,1.4,0,0,1-.261.853,1.854,1.854,0,0,1-.771.58,1.432,1.432,0,0,1,.846.556,1.721,1.721,0,0,1,.257.969v.4a2.551,2.551,0,0,0,.075.571.756.756,0,0,0,.259.457V0H32.01a.719.719,0,0,1-.229-.479,4.258,4.258,0,0,1-.053-.646v-.387a.946.946,0,0,0-.242-.7.959.959,0,0,0-.708-.242Zm0-1.143h.751a1.022,1.022,0,0,0,.686-.2.732.732,0,0,0,.237-.587.844.844,0,0,0-.244-.631.94.94,0,0,0-.688-.24h-.743Z" transform="translate(37 52)" fill="#333"/>
  </g>
</svg>
