<svg xmlns="http://www.w3.org/2000/svg" width="28.6" height="31.967" viewBox="0 0 28.6 31.967">
  <g id="Grupo_9636" data-name="Grupo 9636" transform="translate(21318 7519)">
    <g id="Grupo_62" data-name="Grupo 62" transform="translate(-21660 -7566)">
      <g id="Capa_2" data-name="Capa 2" transform="translate(342 47)">
        <g id="Capa_1" data-name="Capa 1">
          <path id="Trazado_296" data-name="Trazado 296" d="M26.812,10.725H1.787a1.787,1.787,0,1,1,0-3.575H26.812a1.787,1.787,0,1,1,0,3.575Zm0-7.15H1.787A1.788,1.788,0,1,1,1.787,0H26.812a1.788,1.788,0,0,1,0,3.575ZM1.787,14.3H26.812a1.788,1.788,0,0,1,0,3.575H1.787a1.787,1.787,0,1,1,0-3.575Z" fill="#253150" fill-rule="evenodd"/>
        </g>
      </g>
    </g>
    <path id="Text_State" data-name="Text State" d="M3.889-1.92h.026L5.361-6.4H7.326V0H5.84V-4.122l-.026,0L4.4,0h-1L2.021-4.065,2-4.061V0H.51V-6.4H2.457Zm8.2-.817H9.831v1.6h2.7V0H8.345V-6.4h4.192v1.143H9.831V-3.88h2.254ZM18.7,0H17.222L14.88-4.025l-.026.009V0H13.368V-6.4h1.485L17.2-2.377l.026-.009V-6.4H18.7Zm6.262-6.4V-2.25a2.14,2.14,0,0,1-.729,1.72,2.832,2.832,0,0,1-1.9.622A2.862,2.862,0,0,1,20.417-.53a2.134,2.134,0,0,1-.734-1.72V-6.4h1.49V-2.25a1.205,1.205,0,0,0,.308.9,1.162,1.162,0,0,0,.853.3,1.138,1.138,0,0,0,.842-.3,1.22,1.22,0,0,0,.3-.9V-6.4ZM22.5-8.2h1.63l.009.026L22.9-7.036h-1.31Z" transform="translate(-21316 -7487.125)" fill="#253150"/>
  </g>
</svg>
