<svg xmlns="http://www.w3.org/2000/svg" width="39.667" height="39.667" viewBox="0 0 39.667 39.667">
  <g id="Grupo_3671" data-name="Grupo 3671" transform="translate(-1136 -2692.333)">
    <line id="Línea_505" data-name="Línea 505" x2="8.77" transform="translate(1145.325 2727.989)" fill="none" stroke="#bd0f14" stroke-linecap="round" stroke-width="2"/>
    <path id="Trazado_3605" data-name="Trazado 3605" d="M3994.108,2824.6s-1.508,21.2,7.647,22.6-8.616,0-8.616,0l-.539-3.2v-19.4Z" transform="translate(-2856 -116)" fill="#b0b6ba"/>
    <path id="Trazado_3606" data-name="Trazado 3606" d="M4022.75,2836.211h2.313v4.851l.25.438h1.5v.688l-3,3.188-3.125-3.187v-.687h2.063Z" transform="translate(-2856 -116)" fill="#bd0f14"/>
    <g id="archivo-pdf_1_" data-name="archivo-pdf (1)" transform="translate(1136 2692.333)">
      <path id="Trazado_3604" data-name="Trazado 3604" d="M24.982,10.459H6.86a.581.581,0,0,0,0,1.162H24.981a.581.581,0,0,0,0-1.162Zm-.387-6.973H20.75a.581.581,0,0,0,0,1.162H24.4V6.973H7.441V4.648h10.6a.581.581,0,0,0,0-1.162H7.248a.969.969,0,0,0-.968.968V7.166a.969.969,0,0,0,.968.968H24.594a.969.969,0,0,0,.968-.968V4.455a.969.969,0,0,0-.968-.968Zm.387,9.3H6.86a.581.581,0,1,0,0,1.162H24.981a.581.581,0,0,0,0-1.162Zm0,4.648h-6.5a.581.581,0,1,0,0,1.162h6.5a.581.581,0,0,0,0-1.162Zm0-2.324h-6.5a.581.581,0,1,0,0,1.162h6.5a.581.581,0,0,0,0-1.162Zm6.86,8.874v-1.32a2.91,2.91,0,0,0-2.331-2.848V2.905A2.909,2.909,0,0,0,26.605,0H5.236A2.909,2.909,0,0,0,2.331,2.905V15.165A2.91,2.91,0,0,0,0,18.013v8.245a.581.581,0,1,0,1.162,0V18.013A1.745,1.745,0,0,1,2.905,16.27H14.243a1.432,1.432,0,0,1,1.391,1.085l.4,1.6a2.591,2.591,0,0,0,2.518,1.966H28.937a1.745,1.745,0,0,1,1.743,1.743v1.4A7.841,7.841,0,0,0,27.72,38.5H2.905a1.745,1.745,0,0,1-1.743-1.743V28.969a.581.581,0,0,0-1.162,0v7.792a2.909,2.909,0,0,0,2.905,2.905H28.937a2.868,2.868,0,0,0,1.083-.21,7.843,7.843,0,1,0,1.823-15.476Zm-3.493-4.225h-9.8a1.43,1.43,0,0,1-1.39-1.085l-.4-1.6a2.593,2.593,0,0,0-2.518-1.965H3.493V2.905A1.745,1.745,0,0,1,5.236,1.162H26.605a1.745,1.745,0,0,1,1.743,1.743ZM31.824,38.5A6.681,6.681,0,1,1,38.5,31.824,6.688,6.688,0,0,1,31.824,38.5Zm2.791-5.734h-.86V28.156a1.02,1.02,0,0,0-1.019-1.019H30.911a1.02,1.02,0,0,0-1.019,1.019v4.615h-.86a.957.957,0,0,0-.676,1.633L31.1,37.151a1.02,1.02,0,0,0,1.441,0L35.292,34.4a.957.957,0,0,0-.677-1.633Zm-2.791,3.458-2.3-2.3h.507a1.02,1.02,0,0,0,1.019-1.019V28.3h1.539v4.615a1.02,1.02,0,0,0,1.019,1.019h.507Zm-9.546-8.495a.581.581,0,1,0,0-1.162H20.189a.581.581,0,0,0-.581.581v5.155a.581.581,0,0,0,1.162,0V30.263h1.342a.581.581,0,0,0,0-1.162H20.77V27.734Zm-7.611,5.155h0c.043,0,1.061,0,1.467-.011,1.486-.026,2.564-1.325,2.564-3.09,0-1.855-1.051-3.1-2.616-3.1H14.657a.581.581,0,0,0-.581.582v4.957a.645.645,0,0,0,.591.663Zm1.417-5.04c1.072,0,1.454,1,1.454,1.939,0,1.315-.714,1.915-1.423,1.928-.2,0-.558.006-.87.008,0-.6-.006-3.255-.007-3.875h.845Zm-5.939,4.459V30.63l.865,0a2.047,2.047,0,1,0,0-4.093H9.564a.587.587,0,0,0-.581.581v5.193a.581.581,0,0,0,1.162,0ZM11.01,27.7a.885.885,0,1,1,0,1.769l-.858,0c0-.316,0-1.441-.005-1.772Z" transform="translate(0)"/>
    </g>
  </g>
</svg>
