<svg xmlns="http://www.w3.org/2000/svg" width="64.998" height="77.599" viewBox="0 0 64.998 77.599">
  <g id="Grupo_9547" data-name="Grupo 9547" transform="translate(-926.686 -2299)">
    <g id="Capa_2" data-name="Capa 2" transform="translate(926.686 2299)">
      <g id="Capa_1" data-name="Capa 1">
        <path id="Trazado_7322" data-name="Trazado 7322" d="M2.985,40.44S2.877,78.988,31.59,78.988H2.85Z" transform="translate(-0.29 -4.119)" fill="#b0b6ba"/>
        <path id="Trazado_7323" data-name="Trazado 7323" d="M53.2,52.864V71.546a3.323,3.323,0,0,1-3.323,3.323H6.018a3.323,3.323,0,0,1-3.323-3.323V6.018A3.323,3.323,0,0,1,6.018,2.694H49.874A3.323,3.323,0,0,1,53.2,6.018V42.751h2.694V6.018A6.027,6.027,0,0,0,49.874,0H6.018A6.018,6.018,0,0,0,0,6.018V71.582A6.018,6.018,0,0,0,6.018,77.6H49.874a6.027,6.027,0,0,0,6.018-6.018V52.864Z" fill="#253150"/>
        <path id="Trazado_7324" data-name="Trazado 7324" d="M10.406,24.61a1.186,1.186,0,0,0,0,2.371H47.355a1.186,1.186,0,1,0,0-2.371Z" transform="translate(-0.939 -2.507)" fill="#253150"/>
        <path id="Trazado_7325" data-name="Trazado 7325" d="M11.2,8.78A1.976,1.976,0,0,0,9.22,10.774V16.3A1.976,1.976,0,0,0,11.2,18.273H46.574a1.967,1.967,0,0,0,1.967-1.994V10.774A1.967,1.967,0,0,0,46.574,8.8h-22a1.186,1.186,0,0,0,0,2.371H46.178V15.9H11.591V11.151h7.446a1.186,1.186,0,0,0,0-2.371Z" transform="translate(-0.939 -0.894)" fill="#253150"/>
        <path id="Trazado_7326" data-name="Trazado 7326" d="M10.394,29.889a1.186,1.186,0,1,0,0,2.362H47.343a1.186,1.186,0,1,0,0-2.362Z" transform="translate(-0.927 -3.044)" fill="#253150"/>
        <path id="Trazado_7327" data-name="Trazado 7327" d="M9.22,36.346a1.186,1.186,0,0,0,1.186,1.186H23.662a1.186,1.186,0,1,0,0-2.371H10.406A1.186,1.186,0,0,0,9.22,36.346Z" transform="translate(-0.939 -3.581)" fill="#253150"/>
        <path id="Trazado_7328" data-name="Trazado 7328" d="M33.076,71.8l.656.513a1.025,1.025,0,0,0,1.269,0l.656-.513a36.887,36.887,0,0,0,13-19.9h8.547a4.127,4.127,0,1,0,0-2.059H49.129a37.887,37.887,0,0,0,.714-7.219,1.059,1.059,0,0,0-.42-.84,1.034,1.034,0,0,0-.9-.168A11.716,11.716,0,0,1,37.01,38.63l-1.916-1.908a1.025,1.025,0,0,0-1.454,0L31.723,38.63a11.7,11.7,0,0,1-11.514,2.984,1.093,1.093,0,0,0-.908.168,1.051,1.051,0,0,0-.412.84A36.887,36.887,0,0,0,33.076,71.8ZM61.189,48.808a2.059,2.059,0,1,1-1.461.6,2.067,2.067,0,0,1,1.461-.6Zm-28-8.707,1.185-1.185L35.547,40.1a13.817,13.817,0,0,0,12.2,3.816,34.179,34.179,0,0,1-.723,5.883H39.464a5.16,5.16,0,1,0-8.152,5.16v5.16a1.034,1.034,0,0,0,1.034,1.034h4.127a1.034,1.034,0,0,0,1-1v-5.16a5.185,5.185,0,0,0,1.95-3.093H46.54A34.844,34.844,0,0,1,34.379,70.18h0a34.819,34.819,0,0,1-13.4-26.255,13.825,13.825,0,0,0,12.2-3.824Zm4.076,11.766a3.093,3.093,0,0,1-1.345,1.681,1.025,1.025,0,0,0-.513.891V59.12H33.337V54.439a1.034,1.034,0,0,0-.521-.891,3.1,3.1,0,1,1,4.454-3.706H33.337V51.9Z" transform="translate(-0.33 -3.368)" fill="#bd0f14"/>
      </g>
    </g>
  </g>
</svg>
