<svg xmlns="http://www.w3.org/2000/svg" width="59.495" height="77.599" viewBox="0 0 59.495 77.599">
  <g id="Grupo_9546" data-name="Grupo 9546" transform="translate(-529.254 -2299)">
    <g id="Capa_2" data-name="Capa 2" transform="translate(529.254 2299)">
      <g id="Capa_1" data-name="Capa 1">
        <path id="Trazado_7335" data-name="Trazado 7335" d="M2.575,40.54s-.1,38.548,28.606,38.548H2.44Z" transform="translate(-0.249 -4.129)" fill="#b0b6ba"/>
        <path id="Trazado_7336" data-name="Trazado 7336" d="M53.2,64.28v7.266a3.323,3.323,0,0,1-3.323,3.323H6.018a3.323,3.323,0,0,1-3.323-3.323V6.018A3.323,3.323,0,0,1,6.018,2.694H49.874A3.323,3.323,0,0,1,53.2,6.018V43.955h2.694V6.018A6.027,6.027,0,0,0,49.874,0H6.018A6.018,6.018,0,0,0,0,6.018V71.582A6.018,6.018,0,0,0,6.018,77.6H49.874a6.027,6.027,0,0,0,6.018-6.018v-7.3Z" fill="#253150"/>
        <path id="Trazado_7337" data-name="Trazado 7337" d="M10.406,13.68a1.186,1.186,0,1,0,0,2.371H47.364a1.186,1.186,0,1,0,0-2.371Z" transform="translate(-0.939 -1.393)" fill="#253150"/>
        <path id="Trazado_7338" data-name="Trazado 7338" d="M10.406,19a1.186,1.186,0,0,0,0,2.371H47.364a1.186,1.186,0,1,0,0-2.371Z" transform="translate(-0.939 -1.935)" fill="#253150"/>
        <path id="Trazado_7339" data-name="Trazado 7339" d="M9.22,25.426a1.186,1.186,0,0,0,1.186,1.186H23.662a1.186,1.186,0,1,0,0-2.371H10.406A1.186,1.186,0,0,0,9.22,25.426Z" transform="translate(-0.939 -2.469)" fill="#253150"/>
        <path id="Trazado_7340" data-name="Trazado 7340" d="M34.863,40.747a.71.71,0,1,0,.209.5.71.71,0,0,0-.209-.5Z" transform="translate(-3.428 -4.129)" fill="#bd0f14"/>
        <path id="Trazado_7341" data-name="Trazado 7341" d="M43.695,62a2.452,2.452,0,0,0,.485-1.473A2.5,2.5,0,0,0,41.692,58H29.558a2.452,2.452,0,0,0-1.8.736,2.488,2.488,0,0,0-.243,3.233,3.593,3.593,0,0,0-1.859,3.215V65.9a.71.71,0,0,0,.71.71H44.9a.71.71,0,0,0,.71-.71v-.719A3.593,3.593,0,0,0,43.695,62ZM28.821,59.8a1.042,1.042,0,0,1,.754-.314H41.692a1.069,1.069,0,0,1,.754,1.8,1.042,1.042,0,0,1-.754.314H29.558a1.069,1.069,0,0,1-.754-1.8Zm-1.733,5.389a2.129,2.129,0,0,1,2.138-2.129H42.042a2.129,2.129,0,0,1,2.138,2.129Z" transform="translate(-2.614 -5.908)" fill="#bd0f14"/>
        <path id="Trazado_7342" data-name="Trazado 7342" d="M61.483,56.86a4.491,4.491,0,0,0-.9-.979l-3.332-2.91a.476.476,0,0,0-.09-.108.718.718,0,0,0-.189-.135l-2.012-1.8L45.675,42.84a2.084,2.084,0,0,0,.593-1.482,2.129,2.129,0,0,0-.629-1.509,1.985,1.985,0,0,0-.584-.413l.9-.9a2.851,2.851,0,0,0,2.757-4.769l-6.044-6.044A2.847,2.847,0,0,0,37.9,30.473l-8.6,8.6a2.856,2.856,0,0,0-.736-.1,2.85,2.85,0,0,0-2.012,4.868l6.044,6.044a2.851,2.851,0,0,0,4.769-2.757l.9-.853a2.03,2.03,0,0,0,.413.584,2.138,2.138,0,0,0,2.991,0L51.54,58.27a.575.575,0,0,0,.09.117h0l2.955,3.4.234.251a4.239,4.239,0,0,0,3.009,1.248,4.489,4.489,0,0,0,.6,0,4.3,4.3,0,0,0,3.179-2.209A4.221,4.221,0,0,0,61.483,56.86ZM39.6,28.784a1.419,1.419,0,0,1,2.021,0l6.044,6.044a1.464,1.464,0,0,1,0,2.039,1.428,1.428,0,0,1-2.021,0L39.6,30.823h0a1.419,1.419,0,0,1,0-2.039ZM35.571,48.93a1.446,1.446,0,0,1-2.021,0l-6.044-6.053a1.419,1.419,0,0,1,1.006-2.416,1.4,1.4,0,0,1,1.006.413l6.053,6.044A1.446,1.446,0,0,1,35.571,48.93Zm2.973-5.021L36.55,45.9l-6.044-6.044,8.083-8.083,6.044,6.053L42.64,39.823h0l-4.033,4.024ZM41.086,45.4h0l-.5.5a.692.692,0,0,1-.5.207.71.71,0,0,1-.71-.71.718.718,0,0,1,.2-.494l4.051-4.051a.708.708,0,0,1,1,1.006l-.494.5h0Zm1.473.539,2.084-2.084,8.811,7.688-3.215,3.215Zm8.622,9.88,3.35-3.35,1.078.9L52.115,56.86Zm9.17,4.634a2.883,2.883,0,0,1-2.138,1.482,2.847,2.847,0,0,1-2.38-.817l-.153-.171h0l-2.6-2.982,3.593-3.593,2.973,2.6h0a2.865,2.865,0,0,1,.584.683,2.8,2.8,0,0,1,.144,2.82Z" transform="translate(-2.619 -2.738)" fill="#bd0f14"/>
        <path id="Trazado_7343" data-name="Trazado 7343" d="M40.129,35.136a.71.71,0,0,0-1.006,0L36.1,38.154a.719.719,0,0,0,0,1.015.727.727,0,0,0,1.015,0l3.018-3.027a.71.71,0,0,0,0-1.006Z" transform="translate(-3.655 -3.558)" fill="#bd0f14"/>
      </g>
    </g>
  </g>
</svg>
