<svg xmlns="http://www.w3.org/2000/svg" width="41.794" height="43.451" viewBox="0 0 41.794 43.451">
  <g id="Grupo_2826" data-name="Grupo 2826" transform="translate(-1124 -1822)">
    <circle id="Elipse_260" data-name="Elipse 260" cx="15" cy="15" r="15" transform="translate(1124 1823.316)" fill="rgba(176,182,186,0.2)"/>
    <g id="Capa_2" data-name="Capa 2" transform="translate(1126.44 1822)">
      <g id="Capa_1" data-name="Capa 1" transform="translate(0 0)">
        <path id="Trazado_2852" data-name="Trazado 2852" d="M22.229,39.43s1.32,8.313,9.825,8.313H22.5l-.938-.938V39.43Z" transform="translate(-2.829 -5.161)" fill="#bd0f14"/>
        <path id="Trazado_2853" data-name="Trazado 2853" d="M17.681,43.175H13.65l.5-14.255,1.407-1.26,1.277.66.417.877Z" transform="translate(-1.79 -3.616)" fill="#bd0f14"/>
        <path id="Trazado_2854" data-name="Trazado 2854" d="M24.323,22.071l-3.249-1.225-1.859-1.859a.66.66,0,0,0-.434-.191V17.25a6.8,6.8,0,0,0,1.737-3.475h0a2.337,2.337,0,0,0,.486,0,1.955,1.955,0,0,0,1.5-1.937v-.486a1.972,1.972,0,0,0-.591-1.407c.6-3.214.113-5.829-1.4-7.584S16.722-.141,13.734,0A8.948,8.948,0,0,0,8.6,1.917c-.782.1-2.971.686-2.971,3.735a16.9,16.9,0,0,0,.452,3.9A1.946,1.946,0,0,0,4.986,11.29v.478a1.955,1.955,0,0,0,1.5,1.937,2.371,2.371,0,0,0,.5,0h0A6.75,6.75,0,0,0,8.721,17.18V18.7a.66.66,0,0,0-.443.191L6.454,20.846,2.806,22.253A4.4,4.4,0,0,0,0,26.493L.521,39.419a.643.643,0,0,0,.634.617h0a.634.634,0,0,0,.608-.669L1.277,26.44a2.9,2.9,0,0,1,.122-.99l2.076,2.059a3.093,3.093,0,0,1,.869,2.206v9.677a.634.634,0,0,0,1.268,0V29.715a4.343,4.343,0,0,0-1.268-3.1L2.032,24.321a3.214,3.214,0,0,1,1.234-.869L6.671,22.14l2.606,3.9a1.894,1.894,0,0,0,1.39.825h.182a1.937,1.937,0,0,0,.982-.269l-.539,12.77a.634.634,0,0,0,.608.669h0a.643.643,0,0,0,.634-.608l.5-11.884h1.451l.513,11.884a.643.643,0,0,0,.634.608h0a.643.643,0,0,0,.608-.669l-.513-12.8a1.885,1.885,0,0,0,.973.269h.191A1.876,1.876,0,0,0,18.242,26l2.606-3.9,3,1.155a.5.5,0,0,0,.226.043.634.634,0,0,0,.252-1.225ZM8.252,13.558a1.277,1.277,0,0,0-1.3-1.042.53.53,0,0,1-.165,0,.678.678,0,0,1-.5-.686v-.478a.669.669,0,0,1,.5-.669.625.625,0,0,1,.6.235.891.891,0,0,0,1.234.191,4.8,4.8,0,0,0,1.3-1.373.634.634,0,0,0-.191-.869.625.625,0,0,0-.869.2,3.57,3.57,0,0,1-.712.817,1.79,1.79,0,0,0-.747-.4A15.636,15.636,0,0,1,6.923,5.67a2.363,2.363,0,0,1,.895-2.2,2.18,2.18,0,0,1,1.016-.321.617.617,0,0,0,.434-.182,7.61,7.61,0,0,1,4.5-1.694c2.606-.148,4.578.513,5.768,1.885S21.144,6.7,20.7,9.379a3.075,3.075,0,0,0-.617,0L19.45,7.85a.634.634,0,0,0-.747-.374c-.061,0-6.246,1.6-8.852-1.651a.643.643,0,0,0-.869-.1.634.634,0,0,0-.1.869c2.606,3.292,7.914,2.554,9.625,2.206L19,10a1.068,1.068,0,0,0,1.234.634,1.225,1.225,0,0,1,.513,0,.66.66,0,0,1,.5.652v.486a.669.669,0,0,1-.5.686.512.512,0,0,1-.165,0A1.268,1.268,0,0,0,19.276,13.5a5.612,5.612,0,0,1-11.032,0Zm3.04,11.823a.608.608,0,0,1-.947-.1L7.74,21.367l1.086-1.086,4.039,3.536Zm1.833.869.043-.964.625-.625.625.625v.964Zm.669-3.336L10.05,19.639v-1.32a6.889,6.889,0,0,0,7.479,0v1.346Zm3.475,2.345a.608.608,0,0,1-.947.1l-1.564-1.564L18.8,20.255l1.086,1.086Z" transform="translate(0.002 0.019)" fill="#253150"/>
        <path id="Trazado_2855" data-name="Trazado 2855" d="M42.024,33.472A2.684,2.684,0,0,0,39.348,30.8H35.222V29.4a2,2,0,0,0-1.989-2H29.15a2,2,0,0,0-2,2v1.4H23.026a2.684,2.684,0,0,0-2.676,2.676v1.894a3.318,3.318,0,0,0,.686,1.981v7.08a2.606,2.606,0,0,0,2.606,2.606h15.1a2.606,2.606,0,0,0,2.606-2.606v-7.08a3.371,3.371,0,0,0,.678-1.981ZM28.429,29.4h0a.73.73,0,0,1,.721-.73h4.083a.73.73,0,0,1,.721.73v1.4H28.429Zm12.327,5.968c0,1.095-1.034,2.172-2.806,2.98v-.113a.643.643,0,0,0-.643-.634H34.588a.634.634,0,0,0-.634.634v2.041a2,2,0,1,0,4,0v-.539a9.981,9.981,0,0,0,2.128-1.147v5.838a1.338,1.338,0,0,1-1.338,1.338h-15.1A1.338,1.338,0,0,1,22.3,44.426V38.589a9.981,9.981,0,0,0,2.128,1.147v.539a2,2,0,0,0,3.944.452,21.284,21.284,0,0,0,2.815.182h.695a.634.634,0,1,0,0-1.268h-.66a19.112,19.112,0,0,1-2.762-.191V38.233a.643.643,0,0,0-.643-.634H25.067a.634.634,0,0,0-.634.634v.113c-1.737-.808-2.806-1.885-2.806-2.98V33.472a1.4,1.4,0,0,1,1.4-1.4H39.348a1.407,1.407,0,0,1,1.407,1.4Zm-4.083,3.475v1.4a.73.73,0,0,1-.721.73.738.738,0,0,1-.73-.73V38.875ZM25.71,40.274v-1.4h1.442v1.4a.721.721,0,1,1-1.442,0Z" transform="translate(-2.67 -3.582)" fill="#253150"/>
      </g>
    </g>
  </g>
</svg>
