<svg xmlns="http://www.w3.org/2000/svg" width="78" height="78" viewBox="0 0 78 78">
  <g id="Grupo_9549" data-name="Grupo 9549" transform="translate(-1321 -1976)">
    <g id="Capa_2" data-name="Capa 2" transform="translate(1321 1976)">
      <g id="Capa_1" data-name="Capa 1">
        <path id="Trazado_7803" data-name="Trazado 7803" d="M13.9,41.5S13.83,67.522,30.313,67.522H13.83Z" transform="translate(-0.833 -2.5)" fill="#b0b6ba"/>
        <path id="Trazado_7804" data-name="Trazado 7804" d="M78,27.3V6.5A6.5,6.5,0,0,0,71.5,0H37.666A6.5,6.5,0,0,0,31.2,6.5V22.1H11.7A6.5,6.5,0,0,0,5.2,28.6V65H3.9A3.9,3.9,0,0,0,0,68.9v5.2A3.9,3.9,0,0,0,3.9,78H74.1A3.9,3.9,0,0,0,78,74.1V68.9A3.9,3.9,0,0,0,74.1,65H72.8V33.672A6.5,6.5,0,0,0,78,27.3ZM33.831,6.5a3.891,3.891,0,0,1,3.9-3.9H71.563a3.891,3.891,0,0,1,3.9,3.9V27.3a3.9,3.9,0,0,1-3.9,3.9H54.14L42.862,40.193V31.2H37.7a3.9,3.9,0,0,1-3.872-3.9ZM37.7,33.831H40.3V45.607L55.06,33.831H65v31.2H49.488a3.9,3.9,0,0,0-3.252,1.692l-1.053,1.6a1.316,1.316,0,0,1-1.071.583H33.888a1.3,1.3,0,0,1-1.081-.583l-1.053-1.6a3.909,3.909,0,0,0-3.242-1.729H13V29.9h18.8A6.522,6.522,0,0,0,37.7,33.831ZM7.8,28.6a3.9,3.9,0,0,1,3.9-3.9H31.2v2.6H10.4V65H7.8Zm66.3,39A1.3,1.3,0,0,1,75.4,68.9v5.2a1.3,1.3,0,0,1-1.3,1.3H3.9a1.3,1.3,0,0,1-1.3-1.3V68.9A1.3,1.3,0,0,1,3.9,67.6H28.512a1.3,1.3,0,0,1,1.081.583l1.053,1.588A3.909,3.909,0,0,0,33.888,71.5H44.112a3.9,3.9,0,0,0,3.252-1.729l1.053-1.588a1.316,1.316,0,0,1,1.071-.583ZM67.6,65V33.831h2.6v31.2Z" fill="#253150"/>
        <path id="Trazado_7805" data-name="Trazado 7805" d="M60.655,30.083a2.951,2.951,0,0,1-2.631-1.635l-1.457-2.753-.827,1.579-.075.122a2.613,2.613,0,0,1-2.133,1.034h0a2.9,2.9,0,0,1-2-.855,3.017,3.017,0,0,1-.874-2.133V12.914a2.9,2.9,0,0,1,4.755-2.255L61.783,15.4a.967.967,0,0,1-1.156,1.551l-6.39-4.765H54.19a.94.94,0,0,0-1.6.724V25.431a1.062,1.062,0,0,0,.94,1.071h0a.771.771,0,0,0,.5-.188l1.635-3.12a.94.94,0,0,1,.846-.517h0a.94.94,0,0,1,.855.517l2.368,4.379h0a.99.99,0,0,0,1.795-.836l-2.359-4.163a.94.94,0,0,1,.836-1.447h3.317a.94.94,0,0,0,.846-.6.987.987,0,0,0-.188-1.053.965.965,0,0,1,1.428-1.3,2.913,2.913,0,0,1-2,4.915h-1.72l1.56,2.772v.056a2.932,2.932,0,0,1,.122,2.255,2.885,2.885,0,0,1-1.522,1.663,2.819,2.819,0,0,1-1.193.244ZM51.747,9.117a.94.94,0,0,0,.385-1.278l-.818-1.5a.972.972,0,1,0-1.7.94l.827,1.5a.886.886,0,0,0,1.306.338Zm-2.039,2.2a.94.94,0,0,0-.5-1.269l-1.551-.677a.964.964,0,0,0-.771,1.767l1.541.677a.961.961,0,0,0,1.278-.5ZM55.731,8.2l.536-1.6a.953.953,0,1,0-1.795-.639l-.536,1.588a.94.94,0,0,0,.536,1.231,1.184,1.184,0,0,0,.31.047A.94.94,0,0,0,55.731,8.2ZM58.3,10.658l1.306-.94a.986.986,0,0,0-1.156-1.6l-1.306.94a.94.94,0,0,0,.573,1.748,1.024,1.024,0,0,0,.583-.15ZM47.724,16.09l1.457-.583a.968.968,0,0,0-.724-1.795l-1.447.573a.957.957,0,0,0,.357,1.88A.94.94,0,0,0,47.724,16.09Z" transform="translate(-2.785 -0.321)" fill="#bd0f14"/>
      </g>
    </g>
  </g>
</svg>
