<svg xmlns="http://www.w3.org/2000/svg" width="64.435" height="77.6" viewBox="0 0 64.435 77.6">
  <g id="Grupo_9548" data-name="Grupo 9548" transform="translate(-1328 -2299)">
    <g id="Capa_2" data-name="Capa 2" transform="translate(1328 2299)">
      <g id="Capa_1" data-name="Capa 1" transform="translate(0 0)">
        <path id="Trazado_7329" data-name="Trazado 7329" d="M15.435,17.63s-.5,16.1,11.726,16.1H10.349S9.771,19.78,15.435,17.63Z" transform="translate(-0.546 -0.932)" fill="#b0b6ba"/>
        <path id="Trazado_7330" data-name="Trazado 7330" d="M7.478,37.27H5.11V27.59a27.588,27.588,0,1,1,55.176,0l0,8.278H57.914V27.59a25.22,25.22,0,1,0-50.44,0Z" transform="translate(-0.27 0)" fill="#bd0f14"/>
        <path id="Trazado_7331" data-name="Trazado 7331" d="M57.67,45.813h5.607a2.841,2.841,0,0,0,2.841-2.841v-5.56a2.841,2.841,0,0,0-2.841-2.841H57.67Z" transform="translate(-3.048 -1.827)" fill="#bd0f14"/>
        <path id="Trazado_7332" data-name="Trazado 7332" d="M9.879,34.61h-5.6A2.841,2.841,0,0,0,1.44,37.451v5.6a2.841,2.841,0,0,0,2.841,2.841h5.6Z" transform="translate(-0.076 -1.829)" fill="#bd0f14"/>
        <path id="Trazado_7333" data-name="Trazado 7333" d="M28.1,74.54v5.6H39.3v-5.6Z" transform="translate(-1.485 -3.94)" fill="#bd0f14"/>
        <path id="Trazado_7334" data-name="Trazado 7334" d="M36.418,75.092h-8.4V72.25h8.4Zm18-54.793a23.773,23.773,0,0,0-44.383,0s-1.62,2.264-1.62,11.366H2.841a1.127,1.127,0,0,0,0,.246A4.215,4.215,0,0,0,0,35.87v5.6a4.205,4.205,0,0,0,4.205,4.205H8.524a23.773,23.773,0,0,0,47.481,0H60.22a27.988,27.988,0,0,1-21,25.677v-.483a1.4,1.4,0,0,0-1.4-1.4h-11.2a1.4,1.4,0,0,0-1.4,1.4v5.6a1.4,1.4,0,0,0,1.4,1.4h11.2a1.4,1.4,0,0,0,1.4-1.4V74.23A30.792,30.792,0,0,0,63.014,44.575a4.2,4.2,0,0,0,1.421-3.126v-5.6a4.215,4.215,0,0,0-2.841-3.959,2.255,2.255,0,0,0,0-.246H56.024s0-7.246-1.62-11.366Zm-43.2,8.524a21.008,21.008,0,1,1,42.016,0v4.205H11.2ZM2.841,41.449v-5.6a1.4,1.4,0,0,1,1.4-1.4H8.4v8.439h-4.2A1.4,1.4,0,0,1,2.841,41.449ZM32.2,65.26a21.027,21.027,0,0,1-21-21.008v-8.4H53.22v8.4A21.017,21.017,0,0,1,32.2,65.26ZM56.024,34.45h4.205a1.4,1.4,0,0,1,1.4,1.4v5.6a1.4,1.4,0,0,1-1.4,1.44H56.024Z" transform="translate(0 -0.267)" fill="#253150"/>
      </g>
    </g>
  </g>
</svg>
