<?xml version="1.0" encoding="UTF-8" standalone="no"?>
<svg
   xmlns:dc="http://purl.org/dc/elements/1.1/"
   xmlns:cc="http://creativecommons.org/ns#"
   xmlns:rdf="http://www.w3.org/1999/02/22-rdf-syntax-ns#"
   xmlns:svg="http://www.w3.org/2000/svg"
   xmlns="http://www.w3.org/2000/svg"
   xmlns:sodipodi="http://sodipodi.sourceforge.net/DTD/sodipodi-0.dtd"
   xmlns:inkscape="http://www.inkscape.org/namespaces/inkscape"
   width="20.277"
   height="20.903"
   viewBox="0 0 20.277001 20.903001"
   version="1.1"
   id="svg9"
   sodipodi:docname="filtro.svg"
   inkscape:version="1.0.2-2 (e86c870879, 2021-01-15)">
  <metadata
     id="metadata15">
    <rdf:RDF>
      <cc:Work
         rdf:about="">
        <dc:format>image/svg+xml</dc:format>
        <dc:type
           rdf:resource="http://purl.org/dc/dcmitype/StillImage" />
        <dc:title></dc:title>
      </cc:Work>
    </rdf:RDF>
  </metadata>
  <defs
     id="defs13" />
  <sodipodi:namedview
     pagecolor="#ffffff"
     bordercolor="#666666"
     borderopacity="1"
     objecttolerance="10"
     gridtolerance="10"
     guidetolerance="10"
     inkscape:pageopacity="0"
     inkscape:pageshadow="2"
     inkscape:window-width="1920"
     inkscape:window-height="1017"
     id="namedview11"
     showgrid="false"
     fit-margin-top="0"
     fit-margin-left="0"
     fit-margin-right="0"
     fit-margin-bottom="0"
     inkscape:zoom="15.180918"
     inkscape:cx="33.495998"
     inkscape:cy="10.4505"
     inkscape:window-x="-8"
     inkscape:window-y="-8"
     inkscape:window-maximized="1"
     inkscape:current-layer="Grupo_6204" />
  <g
     id="Grupo_6204"
     data-name="Grupo 6204"
     transform="translate(-1705,-1015)">
    <g
       id="Capa_2"
       data-name="Capa 2"
       transform="translate(1705,1015)">
      <g
         id="Capa_1"
         data-name="Capa 1">
        <path
           id="Trazado_5915"
           data-name="Trazado 5915"
           d="m 19.649,32.315 h -3.316 v -1.69 A 0.626,0.626 0 0 0 15.707,30 h -4.631 a 0.626,0.626 0 0 0 -0.626,0.626 v 1.69 H 0.626 a 0.626,0.626 0 1 0 0,1.252 h 9.824 v 1.69 a 0.626,0.626 0 0 0 0.626,0.626 h 4.631 a 0.626,0.626 0 0 0 0.626,-0.626 v -1.69 h 3.317 a 0.626,0.626 0 1 0 0,-1.252 z M 15.081,34.63 H 11.7 v -3.378 h 3.379 z"
           transform="translate(0,-22.491)"
           fill="#bd0f14" />
        <path
           id="Trazado_5916"
           data-name="Trazado 5916"
           d="M 19.649,62.315 H 9.825 v -1.69 A 0.626,0.626 0 0 0 9.2,60 H 4.568 a 0.626,0.626 0 0 0 -0.626,0.626 v 1.69 H 0.626 a 0.626,0.626 0 0 0 0,1.252 h 3.316 v 1.69 a 0.626,0.626 0 0 0 0.626,0.626 H 9.2 a 0.626,0.626 0 0 0 0.626,-0.626 v -1.69 h 9.825 a 0.626,0.626 0 0 0 0,-1.252 z M 8.573,64.631 H 5.194 v -3.379 h 3.379 z"
           transform="translate(0,-44.981)"
           fill="#253150" />
        <path
           id="Trazado_5917"
           data-name="Trazado 5917"
           d="M 19.649,2.315 H 9.825 V 0.626 A 0.626,0.626 0 0 0 9.2,0 H 4.568 A 0.626,0.626 0 0 0 3.942,0.626 v 1.69 H 0.626 a 0.626,0.626 0 0 0 0,1.252 h 3.316 v 1.69 A 0.626,0.626 0 0 0 4.568,5.884 H 9.2 A 0.626,0.626 0 0 0 9.826,5.258 V 3.567 h 9.825 a 0.626,0.626 0 1 0 0,-1.252 z M 8.573,4.631 H 5.194 V 1.252 h 3.379 z"
           fill="#253150" />
      </g>
    </g>
  </g>
</svg>
