<svg xmlns="http://www.w3.org/2000/svg" width="66.992" height="20.901" viewBox="0 0 66.992 20.901">
  <g id="Grupo_6204" data-name="Grupo 6204" transform="translate(-1705 -1015)">
    <path id="Text_State" data-name="Text State" d="M7.7-4.727H3.328V0H1.047V-11.375H8.492v1.758H3.328v3.133H7.7ZM12.172,0H9.891V-8.453h2.281Zm0-10.477H9.891v-1.711h2.281ZM16.445,0H14.164V-12.187h2.281Zm4.609-10.523v2.07h1.43v1.6h-1.43v4.3a.982.982,0,0,0,.207.7.727.727,0,0,0,.543.211,2.178,2.178,0,0,0,.313-.02,2.632,2.632,0,0,0,.3-.066L22.609-.07a4.618,4.618,0,0,1-.668.176,3.982,3.982,0,0,1-.707.059,2.431,2.431,0,0,1-1.816-.648,2.843,2.843,0,0,1-.637-2.055V-6.852H17.547v-1.6h1.234v-2.07Zm7.281,4.031L27.5-6.516a1.519,1.519,0,0,0-.836.211,1.337,1.337,0,0,0-.5.594V0H23.891V-8.453h2.117l.1,1.25a2.667,2.667,0,0,1,.77-1.035,1.715,1.715,0,0,1,1.09-.371,1.7,1.7,0,0,1,.316.027q.145.027.293.066Zm.68,2.188A4.536,4.536,0,0,1,30.07-7.4a3.676,3.676,0,0,1,2.922-1.207,3.715,3.715,0,0,1,2.938,1.2,4.512,4.512,0,0,1,1.063,3.1v.164a4.519,4.519,0,0,1-1.059,3.105,3.7,3.7,0,0,1-2.926,1.2,3.709,3.709,0,0,1-2.934-1.2,4.519,4.519,0,0,1-1.059-3.105Zm2.273.164A3.677,3.677,0,0,0,31.7-2.285a1.4,1.4,0,0,0,1.313.7,1.389,1.389,0,0,0,1.293-.7,3.653,3.653,0,0,0,.41-1.852V-4.3A3.616,3.616,0,0,0,34.3-6.141a1.4,1.4,0,0,0-1.3-.711,1.384,1.384,0,0,0-1.293.715,3.648,3.648,0,0,0-.41,1.832Z" transform="translate(1735 1031)" fill="#253150"/>
    <g id="Capa_2" data-name="Capa 2" transform="translate(1705 1015)">
      <g id="Capa_1" data-name="Capa 1">
        <path id="Trazado_5915" data-name="Trazado 5915" d="M19.649,32.315H16.333v-1.69A.626.626,0,0,0,15.707,30H11.076a.626.626,0,0,0-.626.626v1.69H.626a.626.626,0,1,0,0,1.252H10.45v1.69a.626.626,0,0,0,.626.626h4.631a.626.626,0,0,0,.626-.626v-1.69h3.317a.626.626,0,1,0,0-1.252Zm-4.568,2.315H11.7V31.252h3.379Z" transform="translate(0 -22.491)" fill="#bd0f14"/>
        <path id="Trazado_5916" data-name="Trazado 5916" d="M19.649,62.315H9.825v-1.69A.626.626,0,0,0,9.2,60H4.568a.626.626,0,0,0-.626.626v1.69H.626a.626.626,0,0,0,0,1.252H3.942v1.69a.626.626,0,0,0,.626.626H9.2a.626.626,0,0,0,.626-.626v-1.69h9.825a.626.626,0,0,0,0-1.252ZM8.573,64.631H5.194V61.252H8.573Z" transform="translate(0 -44.981)" fill="#253150"/>
        <path id="Trazado_5917" data-name="Trazado 5917" d="M19.649,2.315H9.825V.626A.626.626,0,0,0,9.2,0H4.568a.626.626,0,0,0-.626.626v1.69H.626a.626.626,0,0,0,0,1.252H3.942v1.69a.626.626,0,0,0,.626.626H9.2a.626.626,0,0,0,.626-.626V3.567h9.825a.626.626,0,1,0,0-1.252ZM8.573,4.631H5.194V1.252H8.573Z" fill="#253150"/>
      </g>
    </g>
  </g>
</svg>
