<?xml version="1.0" encoding="UTF-8" standalone="no"?>
<svg
   xmlns:dc="http://purl.org/dc/elements/1.1/"
   xmlns:cc="http://creativecommons.org/ns#"
   xmlns:rdf="http://www.w3.org/1999/02/22-rdf-syntax-ns#"
   xmlns:svg="http://www.w3.org/2000/svg"
   xmlns="http://www.w3.org/2000/svg"
   xmlns:sodipodi="http://sodipodi.sourceforge.net/DTD/sodipodi-0.dtd"
   xmlns:inkscape="http://www.inkscape.org/namespaces/inkscape"
   width="2.2518601mm"
   height="3.8496876mm"
   viewBox="0 0 2.2518601 3.8496876"
   version="1.1"
   id="svg32"
   inkscape:version="1.0.2-2 (e86c870879, 2021-01-15)"
   sodipodi:docname="icon_flecha-activo-iz.svg">
  <defs
     id="defs26" />
  <sodipodi:namedview
     id="base"
     pagecolor="#ffffff"
     bordercolor="#666666"
     borderopacity="1.0"
     inkscape:pageopacity="0.0"
     inkscape:pageshadow="2"
     inkscape:zoom="3.959798"
     inkscape:cx="66.064678"
     inkscape:cy="-12.216208"
     inkscape:document-units="mm"
     inkscape:current-layer="layer1"
     inkscape:document-rotation="0"
     showgrid="false"
     fit-margin-top="0"
     fit-margin-left="0"
     fit-margin-right="0"
     fit-margin-bottom="0"
     inkscape:window-width="1280"
     inkscape:window-height="961"
     inkscape:window-x="1912"
     inkscape:window-y="1"
     inkscape:window-maximized="1" />
  <metadata
     id="metadata29">
    <rdf:RDF>
      <cc:Work
         rdf:about="">
        <dc:format>image/svg+xml</dc:format>
        <dc:type
           rdf:resource="http://purl.org/dc/dcmitype/StillImage" />
        <dc:title></dc:title>
      </cc:Work>
    </rdf:RDF>
  </metadata>
  <style
     type="text/css"
     id="style5">
	.st0{fill:#BD0F14;}
</style>
  <g
     inkscape:label="Capa 1"
     inkscape:groupmode="layer"
     id="layer1"
     transform="translate(-114.61749,-54.376601)">
    <g
       id="Trazado_3904"
       transform="matrix(0,-0.16557796,0.16557796,0,114.61749,58.28838)">
      <path
         class="st0"
         d="m 22,13.6 c -0.5,0 -0.9,-0.2 -1.2,-0.5 L 12.2,4.4 3.4,13 c -0.7,0.7 -1.8,0.7 -2.5,0 -0.7,-0.7 -0.7,-1.8 0,-2.5 l 10,-10 C 11.2,0.2 11.7,0 12.1,0 12.6,0 13,0.2 13.3,0.5 l 9.8,10 c 0.7,0.7 0.7,1.8 0,2.5 -0.3,0.4 -0.7,0.6 -1.1,0.6 z"
         id="path4" />
    </g>
  </g>
</svg>
