<?xml version="1.0" encoding="utf-8"?>
<!-- Generator: Adobe Illustrator 25.3.1, SVG Export Plug-In . SVG Version: 6.00 Build 0)  -->
<svg version="1.1" id="Grupo_7585" xmlns="http://www.w3.org/2000/svg" xmlns:xlink="http://www.w3.org/1999/xlink" x="0px" y="0px"
	 viewBox="0 0 53 53" style="enable-background:new 0 0 53 53;" xml:space="preserve">
<style type="text/css">
	.st0{fill:none;}
	.st1{fill:#B0B6BA;}
</style>
<circle class="st0" cx="26.5" cy="26.5" r="25"/>
<path class="st1" d="M26.5,1.5c13.8,0,25,11.2,25,25s-11.2,25-25,25s-25-11.2-25-25S12.7,1.5,26.5,1.5 M26.5,0.5
	c-14.4,0-26,11.6-26,26s11.6,26,26,26s26-11.6,26-26S40.9,0.5,26.5,0.5L26.5,0.5z"/>
<g id="Trazado_3906_2_">
	<g>
		<path class="st1" d="M21.6,37.5c-0.3,0-0.6-0.1-0.9-0.4c-0.5-0.5-0.5-1.3,0-1.7l9-8.8l-9-9c-0.5-0.5-0.5-1.3,0-1.7
			c0.5-0.5,1.3-0.5,1.7,0l9.9,9.9c0.2,0.2,0.4,0.5,0.4,0.9c0,0.3-0.1,0.6-0.4,0.9l-9.9,9.7C22.2,37.4,21.9,37.5,21.6,37.5z"/>
	</g>
</g>
</svg>
