<svg xmlns="http://www.w3.org/2000/svg" viewBox="0 0 88.28 86.57"><defs><style>.cls-1{fill:#253150;}.cls-2{fill:#bd0f14;}</style></defs><g id="Capa_2" data-name="Capa 2"><g id="Capa_1-2" data-name="Capa 1"><path class="cls-1" d="M60.79,69.43v6a6.61,6.61,0,0,1-6.6,6.6H11.11a6.61,6.61,0,0,1-6.6-6.6V11.11a6.61,6.61,0,0,1,6.6-6.6H54.19a6.61,6.61,0,0,1,6.6,6.6V44.34a12.71,12.71,0,0,1,4.51,1.4V11.11A11.12,11.12,0,0,0,54.19,0H11.11A11.12,11.12,0,0,0,0,11.11V75.46A11.12,11.12,0,0,0,11.11,86.57H54.19A11.12,11.12,0,0,0,65.3,75.46V68A12.32,12.32,0,0,1,60.79,69.43Z"/><rect class="cls-1" x="13.15" y="22.87" width="25" height="4.51"/><rect class="cls-1" x="13.15" y="49.37" width="25" height="4.51"/><rect class="cls-1" x="13.15" y="31.7" width="32.83" height="4.51"/><rect class="cls-1" x="13.15" y="40.53" width="32.83" height="4.51"/><rect class="cls-1" x="13.15" y="58.2" width="32.83" height="4.51"/><g id="Capa_2-2" data-name="Capa 2"><g id="Capa_1-2-2" data-name="Capa 1-2"><g id="noun_950840_cc" data-name="noun 950840 cc"><path id="Trazado_145" data-name="Trazado 145" class="cls-2" d="M70.64,45.59a16,16,0,1,0,4.66,11.3A15.85,15.85,0,0,0,70.64,45.59Zm-3.5,19.1a11,11,0,1,1,3.24-7.8A11,11,0,0,1,67.14,64.69ZM86.73,79.51l-6.25-6.28a3.48,3.48,0,0,0-2.42-1l-3.63-3.75L70.94,72l3.75,3.75a3.32,3.32,0,0,0,1,2.42L82,84.27a3.44,3.44,0,1,0,5.75-3.78A3.39,3.39,0,0,0,86.73,79.51Z"/></g></g></g><g id="Grupo_60" data-name="Grupo 60"><g id="Grupo_59" data-name="Grupo 59"><path id="Rect치ngulo_427" data-name="Rect치ngulo 427" class="cls-2" d="M55,50.75,65.5,61.27a1.24,1.24,0,0,1,0,1.75h0a1.23,1.23,0,0,1-1.75,0L53.23,52.5a1.23,1.23,0,0,1,0-1.75h0A1.24,1.24,0,0,1,55,50.75Z"/><path id="Rect치ngulo_428" data-name="Rect치ngulo 428" class="cls-2" d="M53.23,61.27,63.75,50.75a1.24,1.24,0,0,1,1.75,0h0a1.24,1.24,0,0,1,0,1.75L55,63a1.23,1.23,0,0,1-1.75,0h0A1.23,1.23,0,0,1,53.23,61.27Z"/></g></g></g></g></svg>