<?xml version="1.0" encoding="UTF-8" standalone="no"?>
<svg
   xmlns:dc="http://purl.org/dc/elements/1.1/"
   xmlns:cc="http://creativecommons.org/ns#"
   xmlns:rdf="http://www.w3.org/1999/02/22-rdf-syntax-ns#"
   xmlns:svg="http://www.w3.org/2000/svg"
   xmlns="http://www.w3.org/2000/svg"
   xmlns:sodipodi="http://sodipodi.sourceforge.net/DTD/sodipodi-0.dtd"
   xmlns:inkscape="http://www.inkscape.org/namespaces/inkscape"
   version="1.1"
   id="Capa_1"
   x="0px"
   y="0px"
   viewBox="0 0 52.8 52.8"
   style="enable-background:new 0 0 52.8 52.8;"
   xml:space="preserve"
   sodipodi:docname="icon_flecha-rojo-prev.svg"
   inkscape:version="1.0.2-2 (e86c870879, 2021-01-15)"><metadata
   id="metadata18"><rdf:RDF><cc:Work
       rdf:about=""><dc:format>image/svg+xml</dc:format><dc:type
         rdf:resource="http://purl.org/dc/dcmitype/StillImage" /><dc:title></dc:title></cc:Work></rdf:RDF></metadata><defs
   id="defs16" /><sodipodi:namedview
   pagecolor="#ffffff"
   bordercolor="#666666"
   borderopacity="1"
   objecttolerance="10"
   gridtolerance="10"
   guidetolerance="10"
   inkscape:pageopacity="0"
   inkscape:pageshadow="2"
   inkscape:window-width="1920"
   inkscape:window-height="1017"
   id="namedview14"
   showgrid="false"
   inkscape:zoom="16.098485"
   inkscape:cx="26.4"
   inkscape:cy="26.4"
   inkscape:window-x="-8"
   inkscape:window-y="-8"
   inkscape:window-maximized="1"
   inkscape:current-layer="g11" />
<style
   type="text/css"
   id="style2">
	.st0{fill:#F8E6E7;}
	.st1{fill:#BD0F14;}
</style>
<g
   id="g11">
	<circle
   class="st0"
   cx="26.4"
   cy="26.4"
   r="25"
   id="circle4" />
	<path
   class="st1"
   d="M26.4,1.4c13.8,0,25,11.2,25,25s-11.2,25-25,25s-25-11.2-25-25S12.6,1.4,26.4,1.4 M26.4,0.4   c-14.4,0-26,11.6-26,26s11.6,26,26,26s26-11.6,26-26S40.7,0.4,26.4,0.4L26.4,0.4z"
   id="path6" />
	<g
   id="Trazado_3906_2_"
   transform="rotate(180,26.3125,26.4125)">
		<path
   class="st1"
   d="m 21.4,37.4 c -0.3,0 -0.6,-0.1 -0.9,-0.4 -0.5,-0.5 -0.5,-1.3 0,-1.7 l 9,-8.8 -9,-9 C 20,17 20,16.2 20.5,15.8 c 0.5,-0.5 1.3,-0.5 1.7,0 l 9.9,9.9 c 0.2,0.2 0.4,0.5 0.4,0.9 0,0.3 -0.1,0.6 -0.4,0.9 L 22.3,37 c -0.2,0.3 -0.5,0.4 -0.9,0.4 z"
   id="path8" />
	</g>
</g>
</svg>
