<?xml version="1.0" encoding="utf-8"?>
<!-- Generator: Adobe Illustrator 25.3.1, SVG Export Plug-In . SVG Version: 6.00 Build 0)  -->
<svg version="1.1" id="Capa_1" xmlns="http://www.w3.org/2000/svg" xmlns:xlink="http://www.w3.org/1999/xlink" x="0px" y="0px"
	 viewBox="0 0 52.8 52.8" style="enable-background:new 0 0 52.8 52.8;" xml:space="preserve">
<style type="text/css">
	.st0{fill:#F8E6E7;}
	.st1{fill:#BD0F14;}
</style>
<g>
	<circle class="st0" cx="26.4" cy="26.4" r="25"/>
	<path class="st1" d="M26.4,1.4c13.8,0,25,11.2,25,25s-11.2,25-25,25s-25-11.2-25-25S12.6,1.4,26.4,1.4 M26.4,0.4
		c-14.4,0-26,11.6-26,26s11.6,26,26,26s26-11.6,26-26S40.7,0.4,26.4,0.4L26.4,0.4z"/>
	<g id="Trazado_3906_2_">
		<path class="st1" d="M21.4,37.4c-0.3,0-0.6-0.1-0.9-0.4c-0.5-0.5-0.5-1.3,0-1.7l9-8.8l-9-9c-0.5-0.5-0.5-1.3,0-1.7
			c0.5-0.5,1.3-0.5,1.7,0l9.9,9.9c0.2,0.2,0.4,0.5,0.4,0.9c0,0.3-0.1,0.6-0.4,0.9L22.3,37C22.1,37.3,21.8,37.4,21.4,37.4z"/>
	</g>
</g>
</svg>
