<svg xmlns="http://www.w3.org/2000/svg" viewBox="0 0 18.63 18.63"><defs><style>.cls-1{fill:#fff;}</style></defs><g id="Capa_2" data-name="Capa 2"><g id="Capa_1-2" data-name="Capa 1"><path class="cls-1" d="M18.21,15.74,11.79,9.31l6.42-6.42a1.4,1.4,0,0,0,0-2L17.74.41a1.42,1.42,0,0,0-2,0L9.31,6.84,2.89.41a1.42,1.42,0,0,0-2,0L.41.89a1.42,1.42,0,0,0,0,2L6.84,9.31.41,15.74a1.42,1.42,0,0,0,0,2l.48.47a1.4,1.4,0,0,0,2,0l6.42-6.42,6.43,6.42a1.4,1.4,0,0,0,2,0l.47-.47A1.4,1.4,0,0,0,18.21,15.74Z"/></g></g></svg>