<svg xmlns="http://www.w3.org/2000/svg" viewBox="0 0 144.96 30"><defs><style>.cls-1{fill:#4597cb;}.cls-2{fill:#006098;}</style></defs><g id="Capa_2" data-name="Capa 2"><g id="Capa_1-2" data-name="Capa 1"><path class="cls-1" d="M41.83,18.31A5.59,5.59,0,0,1,40,20.39a5.07,5.07,0,0,1-2.94.81,5.48,5.48,0,0,1-2.14-.4,5,5,0,0,1-1.69-1.11,5.14,5.14,0,0,1-1.1-1.7,5.48,5.48,0,0,1-.4-2.14,5.56,5.56,0,0,1,.4-2.15A4.9,4.9,0,0,1,33.22,12a5,5,0,0,1,1.69-1.11,5.48,5.48,0,0,1,2.14-.4,5.08,5.08,0,0,1,2.93.8,4.68,4.68,0,0,1,1.75,2.07l-2.47,1a2.66,2.66,0,0,0-.89-1.05A2.42,2.42,0,0,0,37,13a2.48,2.48,0,0,0-1.84.78,2.59,2.59,0,0,0-.56.9,3.23,3.23,0,0,0-.21,1.19A3.19,3.19,0,0,0,34.61,17a2.42,2.42,0,0,0,.56.9,2.48,2.48,0,0,0,1.84.78,2.49,2.49,0,0,0,1.42-.38,2.73,2.73,0,0,0,.94-1.09Z"/><path class="cls-1" d="M45,9.47a1.67,1.67,0,0,1-.67-.13A1.62,1.62,0,0,1,43.75,9a1.79,1.79,0,0,1-.37-.54,1.72,1.72,0,0,1,0-1.36,1.79,1.79,0,0,1,.37-.54,1.62,1.62,0,0,1,.55-.37,1.77,1.77,0,0,1,1.9.37A1.71,1.71,0,0,1,46.2,9a1.72,1.72,0,0,1-1.23.5m-1.34,1.36h2.69v10H43.63Z"/><path class="cls-1" d="M58.2,18.46a5.69,5.69,0,0,1-1.88,2,5.28,5.28,0,0,1-2.88.75,5.5,5.5,0,0,1-2.13-.4,5.07,5.07,0,0,1-1.69-1.11A5.19,5.19,0,0,1,48.5,18a5.66,5.66,0,0,1-.4-2.14,5.51,5.51,0,0,1,.39-2.06,5.27,5.27,0,0,1,1.09-1.7,5.35,5.35,0,0,1,1.65-1.16,5,5,0,0,1,2.11-.43,5.42,5.42,0,0,1,2.15.4A4.27,4.27,0,0,1,57.07,12a4.75,4.75,0,0,1,1,1.67,6.4,6.4,0,0,1,.33,2.09V16a1.8,1.8,0,0,0,0,.22,1.52,1.52,0,0,0,0,.23H50.75a2.89,2.89,0,0,0,.34,1.05,2.53,2.53,0,0,0,.63.74,2.48,2.48,0,0,0,.84.43,3.16,3.16,0,0,0,.92.14A2.58,2.58,0,0,0,55,18.4a3.08,3.08,0,0,0,1-1Zm-2.44-3.9a2,2,0,0,0-.18-.6,2.09,2.09,0,0,0-.45-.61,2.29,2.29,0,0,0-.74-.47,2.56,2.56,0,0,0-1-.19,2.49,2.49,0,0,0-1.52.49,2.62,2.62,0,0,0-.93,1.38Z"/><path class="cls-1" d="M62.61,12.14h.16A3.33,3.33,0,0,1,64,10.94a3.67,3.67,0,0,1,1.83-.44,4.1,4.1,0,0,1,1.66.31,3,3,0,0,1,1.18.87,3.76,3.76,0,0,1,.7,1.35,6.39,6.39,0,0,1,.23,1.75v6.1H67V15.11a2.33,2.33,0,0,0-.48-1.61,1.8,1.8,0,0,0-1.4-.52,2,2,0,0,0-1,.24,2,2,0,0,0-.71.63,3.05,3.05,0,0,0-.46.94A4.39,4.39,0,0,0,62.77,16v4.93H60.08v-10h2.53Z"/><path class="cls-2" d="M81.39,18.31a5.47,5.47,0,0,1-1.83,2.08,5.09,5.09,0,0,1-2.94.81,5.56,5.56,0,0,1-2.15-.4,4.83,4.83,0,0,1-1.68-1.11A5.32,5.32,0,0,1,71.68,18a5.66,5.66,0,0,1-.4-2.14,5.75,5.75,0,0,1,.4-2.15A5.07,5.07,0,0,1,72.79,12a4.83,4.83,0,0,1,1.68-1.11,5.56,5.56,0,0,1,2.15-.4,5.08,5.08,0,0,1,2.93.8,4.72,4.72,0,0,1,1.74,2.07l-2.46,1a2.66,2.66,0,0,0-.89-1.05A2.43,2.43,0,0,0,76.57,13a2.59,2.59,0,0,0-1,.2,2.54,2.54,0,0,0-.83.58,2.77,2.77,0,0,0-.57.9,3.45,3.45,0,0,0-.2,1.19,3.41,3.41,0,0,0,.2,1.19,2.57,2.57,0,0,0,.57.9,2.54,2.54,0,0,0,.83.58,2.59,2.59,0,0,0,1,.2A2.52,2.52,0,0,0,78,18.34a2.63,2.63,0,0,0,.93-1.09Z"/><path class="cls-2" d="M90,19.56h-.17a3.26,3.26,0,0,1-1.27,1.2,3.63,3.63,0,0,1-1.82.44A3.41,3.41,0,0,1,83.89,20,4.82,4.82,0,0,1,83,16.92V10.83h2.69v5.76a2.33,2.33,0,0,0,.48,1.61,1.81,1.81,0,0,0,1.41.52,2,2,0,0,0,1-.23,2.31,2.31,0,0,0,.72-.64,2.83,2.83,0,0,0,.45-.94,4.34,4.34,0,0,0,.15-1.16V10.83h2.69v10H90Z"/><path class="cls-2" d="M100.9,19.81h-.16a4.69,4.69,0,0,1-1.14,1,3.19,3.19,0,0,1-1.71.41A4.2,4.2,0,0,1,96.42,21a3.78,3.78,0,0,1-1.2-.71,3.12,3.12,0,0,1-.8-1.09,3.36,3.36,0,0,1-.29-1.39,3.11,3.11,0,0,1,.31-1.41,3.16,3.16,0,0,1,.86-1.07,3.94,3.94,0,0,1,1.3-.69,5.35,5.35,0,0,1,1.63-.24,6.92,6.92,0,0,1,2.67.48v-.31a1.65,1.65,0,0,0-.63-1.33,2.48,2.48,0,0,0-1.58-.52,3,3,0,0,0-2.36,1.17l-2-1.33a5.28,5.28,0,0,1,4.37-2,5.16,5.16,0,0,1,3.57,1.1,4.12,4.12,0,0,1,1.23,3.25v6H100.9Zm0-3a4.89,4.89,0,0,0-1-.35,4.25,4.25,0,0,0-1.1-.14,2.34,2.34,0,0,0-1.49.42,1.28,1.28,0,0,0-.52,1,1.16,1.16,0,0,0,.5,1,1.89,1.89,0,0,0,1.16.37,2.5,2.5,0,0,0,1-.19,2.28,2.28,0,0,0,.76-.52,2.16,2.16,0,0,0,.5-.73,2.38,2.38,0,0,0,.17-.88"/><path class="cls-2" d="M113.06,19.67h-.16a3.09,3.09,0,0,1-1.15,1.08,3.8,3.8,0,0,1-1.93.45,4.28,4.28,0,0,1-1.83-.4,4.78,4.78,0,0,1-1.54-1.1,5.16,5.16,0,0,1-1.06-1.7,6.12,6.12,0,0,1,0-4.3A5.11,5.11,0,0,1,106.45,12,4.66,4.66,0,0,1,108,10.9a4.28,4.28,0,0,1,1.83-.4,3.8,3.8,0,0,1,1.93.45A3,3,0,0,1,112.9,12h.16l-.16-1.44V6.19h2.69V20.88h-2.53Zm-2.68-1a2.67,2.67,0,0,0,1-.19,2.45,2.45,0,0,0,.85-.57,2.63,2.63,0,0,0,.6-.9,3.07,3.07,0,0,0,.22-1.21,3.11,3.11,0,0,0-.22-1.21,2.73,2.73,0,0,0-.6-.9,2.45,2.45,0,0,0-.85-.57,2.74,2.74,0,0,0-2,0,2.73,2.73,0,0,0-.85.58,2.81,2.81,0,0,0-.59.9,3,3,0,0,0-.23,1.19,3,3,0,0,0,.23,1.19,2.61,2.61,0,0,0,.59.9,2.73,2.73,0,0,0,.85.58,2.69,2.69,0,0,0,1,.2"/><path class="cls-2" d="M117.88,10.83h2.53v1.39h.16a2.67,2.67,0,0,1,.49-.68,4,4,0,0,1,.69-.53,3.8,3.8,0,0,1,.82-.37,2.72,2.72,0,0,1,.87-.14,3.51,3.51,0,0,1,.92.11,2.53,2.53,0,0,1,.64.3l-.72,2.4a2.63,2.63,0,0,0-.54-.2A3.68,3.68,0,0,0,123,13a2.19,2.19,0,0,0-1,.22,2.07,2.07,0,0,0-.77.61,2.75,2.75,0,0,0-.49.91,3.55,3.55,0,0,0-.18,1.15v4.95h-2.69Z"/><path class="cls-2" d="M132,19.81h-.17a4.34,4.34,0,0,1-1.14,1,3.14,3.14,0,0,1-1.71.41,4.11,4.11,0,0,1-1.46-.25,3.78,3.78,0,0,1-1.2-.71,3,3,0,0,1-.8-1.09,3.21,3.21,0,0,1-.29-1.39,3.11,3.11,0,0,1,.31-1.41,3.16,3.16,0,0,1,.86-1.07,3.94,3.94,0,0,1,1.3-.69,5.31,5.31,0,0,1,1.63-.24,7.12,7.12,0,0,1,1.62.16,7.92,7.92,0,0,1,1.05.32v-.31a1.66,1.66,0,0,0-.64-1.33,2.44,2.44,0,0,0-1.58-.52,3,3,0,0,0-2.36,1.17l-2-1.33a5.3,5.3,0,0,1,4.37-2,5.16,5.16,0,0,1,3.57,1.1,4.12,4.12,0,0,1,1.23,3.25v6H132Zm0-3a5,5,0,0,0-1-.35A4.17,4.17,0,0,0,130,16.3a2.32,2.32,0,0,0-1.49.42,1.28,1.28,0,0,0-.52,1,1.13,1.13,0,0,0,.5,1,1.87,1.87,0,0,0,1.16.37,2.45,2.45,0,0,0,1-.19,2.33,2.33,0,0,0,.77-.52,2.13,2.13,0,0,0,.49-.73,2.2,2.2,0,0,0,.18-.88"/><path class="cls-2" d="M140.67,21.2a5.88,5.88,0,0,1-1.75-.24,4.85,4.85,0,0,1-1.33-.65,4,4,0,0,1-1-.92,4.16,4.16,0,0,1-.59-1.06l2.4-1a2.61,2.61,0,0,0,.93,1.16,2.36,2.36,0,0,0,1.3.38,2.18,2.18,0,0,0,1.17-.27.75.75,0,0,0,.43-.64.78.78,0,0,0-.36-.66,3.58,3.58,0,0,0-1.24-.46l-1.41-.31a5.14,5.14,0,0,1-1-.33,3.88,3.88,0,0,1-.91-.57,3.15,3.15,0,0,1-.68-.85,2.43,2.43,0,0,1-.26-1.14,2.71,2.71,0,0,1,.31-1.32,3.12,3.12,0,0,1,.88-1,4.24,4.24,0,0,1,1.3-.62,5.91,5.91,0,0,1,1.61-.21,5.7,5.7,0,0,1,2.56.56,3.44,3.44,0,0,1,1.66,1.8l-2.31.94a1.8,1.8,0,0,0-.84-.86,2.52,2.52,0,0,0-1.11-.27,2.07,2.07,0,0,0-1,.24.71.71,0,0,0-.43.6.62.62,0,0,0,.36.56,4.6,4.6,0,0,0,1,.37l1.53.37A4.39,4.39,0,0,1,144.21,16,2.73,2.73,0,0,1,145,17.9a2.6,2.6,0,0,1-.31,1.25,3.23,3.23,0,0,1-.87,1.06,4.37,4.37,0,0,1-1.35.73,5.42,5.42,0,0,1-1.76.26"/><path class="cls-2" d="M19.38,7.72h0a7.1,7.1,0,0,0-3.65,1,7.32,7.32,0,0,0-1.3,1,5.66,5.66,0,1,1-1.7,0,7.94,7.94,0,0,0-1.3-1h0a7.07,7.07,0,0,0-3.67-1h0A7.16,7.16,0,0,0,.53,14.79,10.78,10.78,0,0,0,.75,17,13.45,13.45,0,0,0,2,20.21,16,16,0,0,0,4,23a36.83,36.83,0,0,0,8.69,6.57l.22.14.57.34.8-.47c2.48-1.45,6.23-3.65,8.92-6.69a15.93,15.93,0,0,0,1.52-2,13.18,13.18,0,0,0,1.64-4.06,10.78,10.78,0,0,0,.18-1.88,7.17,7.17,0,0,0-7.12-7.19"/><path class="cls-1" d="M7.67,6h0a8.89,8.89,0,0,1,5.81,2.22,8.84,8.84,0,0,1,12.1.47A9,9,0,0,1,27,10.46a14,14,0,0,0-27-.09A8.88,8.88,0,0,1,7.67,6"/></g></g></svg>