<?xml version="1.0" encoding="utf-8"?>
<!-- Generator: Adobe Illustrator 25.3.1, SVG Export Plug-In . SVG Version: 6.00 Build 0)  -->
<svg version="1.1" id="Capa_1" xmlns="http://www.w3.org/2000/svg" xmlns:xlink="http://www.w3.org/1999/xlink" x="0px" y="0px"
	 viewBox="0 0 74 74" style="enable-background:new 0 0 74 74;" xml:space="preserve">
<style type="text/css">
	.st0{fill:none;}
	.st1{fill:#BD0F14;}
</style>
<g id="Grupo_9644" transform="translate(-171 -248)">
	<g id="Elipse_407" transform="translate(171 248)">
		<g>
			<circle class="st0" cx="37" cy="37" r="37"/>
		</g>
		<g>
			<path class="st1" d="M37,74C16.6,74,0,57.4,0,37C0,16.6,16.6,0,37,0c20.4,0,37,16.6,37,37C74,57.4,57.4,74,37,74z M37,3
				C18.3,3,3,18.3,3,37c0,18.7,15.3,34,34,34c18.7,0,34-15.3,34-34C71,18.3,55.7,3,37,3z"/>
		</g>
	</g>
	<g id="Grupo_60" transform="translate(-157.5 231)">
		<g id="Grupo_59" transform="translate(352.5 41)">
			<g id="Rectángulo_427">
				<path class="st1" d="M4.4,1L26,22.6c0.6,0.6,0.6,1.4,0,2L24.6,26c-0.6,0.6-1.4,0.6-2,0L1,4.4c-0.6-0.6-0.6-1.4,0-2L2.4,1
					C2.9,0.4,3.8,0.4,4.4,1z"/>
			</g>
			<g id="Rectángulo_428">
				<path class="st1" d="M1,22.6L22.6,1c0.6-0.6,1.4-0.6,2,0L26,2.4c0.6,0.6,0.6,1.4,0,2L4.4,26c-0.6,0.6-1.4,0.6-2,0L1,24.6
					C0.4,24.1,0.4,23.2,1,22.6z"/>
			</g>
		</g>
	</g>
</g>
</svg>
