<?xml version="1.0" encoding="utf-8"?>
<!-- Generator: Adobe Illustrator 25.3.1, SVG Export Plug-In . SVG Version: 6.00 Build 0)  -->
<svg version="1.1" id="Capa_1" xmlns="http://www.w3.org/2000/svg" xmlns:xlink="http://www.w3.org/1999/xlink" x="0px" y="0px"
	 viewBox="0 0 74 74" style="enable-background:new 0 0 74 74;" xml:space="preserve">
<style type="text/css">
	.st0{fill:none;}
	.st1{fill:#253150;}
</style>
<g id="Elipse_407" transform="translate(924 418)">
	<g>
		<circle class="st0" cx="-887" cy="-381" r="37"/>
	</g>
	<g>
		<path class="st1" d="M-887-344c-20.4,0-37-16.6-37-37c0-20.4,16.6-37,37-37c20.4,0,37,16.6,37,37C-850-360.6-866.6-344-887-344z
			 M-887-415c-18.7,0-34,15.3-34,34c0,18.7,15.3,34,34,34c18.7,0,34-15.3,34-34C-853-399.7-868.3-415-887-415z"/>
	</g>
</g>
<g id="marca-de-verificacion" transform="translate(945 440.634)">
	<path id="Trazado_8888" class="st1" d="M-895.5-415.3c-0.5-0.5-1.3-0.5-1.7,0l-14.5,14.5l-7.5-7.5c-0.5-0.5-1.3-0.5-1.7,0
		c0,0,0,0,0,0l-2.6,2.6c-0.5,0.5-0.5,1.3,0,1.7l11,11c0.5,0.5,1.3,0.5,1.7,0l18-18c0.5-0.5,0.5-1.3,0-1.7c0,0,0,0,0,0L-895.5-415.3z
		"/>
</g>
</svg>
